<mxfile host="65bd71144e" pages="3">
    <diagram id="Ht1M8jgEwFfnCIfOTk4-" name="original">
        <mxGraphModel dx="1288" dy="34" grid="1" gridSize="10" guides="1" tooltips="1" connect="1" arrows="1" fold="1" page="1" pageScale="1" pageWidth="1169" pageHeight="827" math="0" shadow="0">
            <root>
                <mxCell id="0"/>
                <mxCell id="1" parent="0"/>
                <mxCell id="nzRuofnxQc4ceTdJqQJu-2" value="AWS Cloud" style="points=[[0,0],[0.25,0],[0.5,0],[0.75,0],[1,0],[1,0.25],[1,0.5],[1,0.75],[1,1],[0.75,1],[0.5,1],[0.25,1],[0,1],[0,0.75],[0,0.5],[0,0.25]];outlineConnect=0;gradientColor=none;html=1;whiteSpace=wrap;fontSize=12;fontStyle=0;shape=mxgraph.aws4.group;grIcon=mxgraph.aws4.group_aws_cloud_alt;strokeColor=#232F3E;fillColor=none;verticalAlign=top;align=left;spacingLeft=30;fontColor=#232F3E;dashed=0;labelBackgroundColor=#ffffff;" parent="1" vertex="1">
                    <mxGeometry x="220" y="850" width="640" height="560" as="geometry"/>
                </mxCell>
                <mxCell id="nzRuofnxQc4ceTdJqQJu-5" value="API Client System" style="rounded=0;whiteSpace=wrap;html=1;" parent="1" vertex="1">
                    <mxGeometry x="40" y="920.5" width="120" height="60" as="geometry"/>
                </mxCell>
                <mxCell id="nzRuofnxQc4ceTdJqQJu-6" value="API Gateway" style="outlineConnect=0;dashed=0;verticalLabelPosition=bottom;verticalAlign=top;align=center;html=1;shape=mxgraph.aws3.api_gateway;fillColor=#D9A741;gradientColor=none;" parent="1" vertex="1">
                    <mxGeometry x="280" y="904" width="76.5" height="93" as="geometry"/>
                </mxCell>
                <mxCell id="nzRuofnxQc4ceTdJqQJu-7" value="AWS Lambda" style="outlineConnect=0;fontColor=#232F3E;gradientColor=#F78E04;gradientDirection=north;fillColor=#D05C17;strokeColor=#ffffff;dashed=0;verticalLabelPosition=bottom;verticalAlign=top;align=center;html=1;fontSize=12;fontStyle=0;aspect=fixed;shape=mxgraph.aws4.resourceIcon;resIcon=mxgraph.aws4.lambda;" parent="1" vertex="1">
                    <mxGeometry x="419" y="911.5" width="78" height="78" as="geometry"/>
                </mxCell>
                <mxCell id="nzRuofnxQc4ceTdJqQJu-9" value="&lt;span style=&quot;color: rgb(35 , 47 , 62) ; background-color: rgb(255 , 255 , 255)&quot;&gt;Amazon&lt;/span&gt;&lt;br style=&quot;color: rgb(35 , 47 , 62)&quot;&gt;&lt;span style=&quot;color: rgb(35 , 47 , 62) ; background-color: rgb(255 , 255 , 255)&quot;&gt;DynamoDB&lt;/span&gt;" style="outlineConnect=0;dashed=0;verticalLabelPosition=bottom;verticalAlign=top;align=center;html=1;shape=mxgraph.aws3.dynamo_db;fillColor=#2E73B8;gradientColor=none;" parent="1" vertex="1">
                    <mxGeometry x="590" y="910" width="72" height="81" as="geometry"/>
                </mxCell>
                <mxCell id="nzRuofnxQc4ceTdJqQJu-10" value="AWS Lambda" style="outlineConnect=0;fontColor=#232F3E;gradientColor=#F78E04;gradientDirection=north;fillColor=#D05C17;strokeColor=#ffffff;dashed=0;verticalLabelPosition=bottom;verticalAlign=top;align=center;html=1;fontSize=12;fontStyle=0;aspect=fixed;shape=mxgraph.aws4.resourceIcon;resIcon=mxgraph.aws4.lambda;labelBackgroundColor=#ffffff;spacingTop=6;" parent="1" vertex="1">
                    <mxGeometry x="587" y="1090.5" width="78" height="78" as="geometry"/>
                </mxCell>
                <mxCell id="nzRuofnxQc4ceTdJqQJu-11" value="S3 Bucket" style="outlineConnect=0;fontColor=#232F3E;gradientColor=#60A337;gradientDirection=north;fillColor=#277116;strokeColor=#ffffff;dashed=0;verticalLabelPosition=bottom;verticalAlign=top;align=center;html=1;fontSize=12;fontStyle=0;aspect=fixed;shape=mxgraph.aws4.resourceIcon;resIcon=mxgraph.aws4.s3;" parent="1" vertex="1">
                    <mxGeometry x="750" y="1090.5" width="78" height="78" as="geometry"/>
                </mxCell>
                <mxCell id="nzRuofnxQc4ceTdJqQJu-12" value="ElasticSearch" style="outlineConnect=0;dashed=0;verticalLabelPosition=bottom;verticalAlign=top;align=center;html=1;shape=mxgraph.aws3.elasticsearch_service;fillColor=#F58534;gradientColor=none;" parent="1" vertex="1">
                    <mxGeometry x="424.5" y="1089" width="67.5" height="81" as="geometry"/>
                </mxCell>
                <mxCell id="nzRuofnxQc4ceTdJqQJu-28" value="crawl" style="edgeStyle=orthogonalEdgeStyle;rounded=0;orthogonalLoop=1;jettySize=auto;html=1;exitX=0.5;exitY=0;exitDx=0;exitDy=0;exitPerimeter=0;" parent="1" source="nzRuofnxQc4ceTdJqQJu-15" target="nzRuofnxQc4ceTdJqQJu-11" edge="1">
                    <mxGeometry relative="1" as="geometry">
                        <Array as="points">
                            <mxPoint x="789" y="1210"/>
                            <mxPoint x="789" y="1210"/>
                        </Array>
                    </mxGeometry>
                </mxCell>
                <mxCell id="nzRuofnxQc4ceTdJqQJu-15" value="AWS Glue" style="outlineConnect=0;dashed=0;verticalLabelPosition=bottom;verticalAlign=top;align=center;html=1;shape=mxgraph.aws3.glue;fillColor=#F58534;gradientColor=none;" parent="1" vertex="1">
                    <mxGeometry x="747.75" y="1258.75" width="82.5" height="99" as="geometry"/>
                </mxCell>
                <mxCell id="nzRuofnxQc4ceTdJqQJu-30" value="pull&lt;br&gt;schema" style="edgeStyle=orthogonalEdgeStyle;rounded=0;orthogonalLoop=1;jettySize=auto;html=1;exitX=1;exitY=0.5;exitDx=0;exitDy=0;exitPerimeter=0;" parent="1" source="nzRuofnxQc4ceTdJqQJu-16" target="nzRuofnxQc4ceTdJqQJu-15" edge="1">
                    <mxGeometry relative="1" as="geometry"/>
                </mxCell>
                <mxCell id="nzRuofnxQc4ceTdJqQJu-36" value="read" style="edgeStyle=orthogonalEdgeStyle;rounded=0;orthogonalLoop=1;jettySize=auto;html=1;exitX=0.5;exitY=0.025;exitDx=0;exitDy=0;exitPerimeter=0;" parent="1" source="nzRuofnxQc4ceTdJqQJu-16" target="nzRuofnxQc4ceTdJqQJu-11" edge="1">
                    <mxGeometry relative="1" as="geometry">
                        <Array as="points">
                            <mxPoint x="626" y="1240"/>
                            <mxPoint x="750" y="1240"/>
                        </Array>
                    </mxGeometry>
                </mxCell>
                <mxCell id="nzRuofnxQc4ceTdJqQJu-16" value="AWS Athena" style="outlineConnect=0;dashed=0;verticalLabelPosition=bottom;verticalAlign=top;align=center;html=1;shape=mxgraph.aws3.athena;fillColor=#F58534;gradientColor=none;" parent="1" vertex="1">
                    <mxGeometry x="587.75" y="1270" width="76.5" height="76.5" as="geometry"/>
                </mxCell>
                <mxCell id="nzRuofnxQc4ceTdJqQJu-17" value="AWS QuickSight" style="outlineConnect=0;dashed=0;verticalLabelPosition=bottom;verticalAlign=top;align=center;html=1;shape=mxgraph.aws3.quicksight;fillColor=#00B7F4;gradientColor=none;" parent="1" vertex="1">
                    <mxGeometry x="432" y="1320" width="60" height="60" as="geometry"/>
                </mxCell>
                <mxCell id="nzRuofnxQc4ceTdJqQJu-18" value="GET&lt;br&gt;POST&lt;br&gt;PUT&lt;br&gt;DELETE" style="edgeStyle=orthogonalEdgeStyle;html=1;endArrow=block;elbow=vertical;startArrow=none;endFill=1;strokeColor=#545B64;rounded=0;exitX=1;exitY=0.5;exitDx=0;exitDy=0;" parent="1" source="nzRuofnxQc4ceTdJqQJu-5" target="nzRuofnxQc4ceTdJqQJu-6" edge="1">
                    <mxGeometry width="100" relative="1" as="geometry">
                        <mxPoint x="120" y="1050" as="sourcePoint"/>
                        <mxPoint x="220" y="1050" as="targetPoint"/>
                    </mxGeometry>
                </mxCell>
                <mxCell id="nzRuofnxQc4ceTdJqQJu-19" value="launch" style="edgeStyle=orthogonalEdgeStyle;html=1;endArrow=block;elbow=vertical;startArrow=none;endFill=1;strokeColor=#545B64;rounded=0;" parent="1" source="nzRuofnxQc4ceTdJqQJu-6" target="nzRuofnxQc4ceTdJqQJu-7" edge="1">
                    <mxGeometry width="100" relative="1" as="geometry">
                        <mxPoint x="330" y="950" as="sourcePoint"/>
                        <mxPoint x="430" y="950" as="targetPoint"/>
                        <Array as="points">
                            <mxPoint x="370" y="951"/>
                            <mxPoint x="370" y="951"/>
                        </Array>
                    </mxGeometry>
                </mxCell>
                <mxCell id="nzRuofnxQc4ceTdJqQJu-20" value="write" style="edgeStyle=orthogonalEdgeStyle;html=1;endArrow=block;elbow=vertical;startArrow=none;endFill=1;strokeColor=#545B64;rounded=0;entryX=0;entryY=0.22;entryDx=0;entryDy=0;entryPerimeter=0;" parent="1" source="nzRuofnxQc4ceTdJqQJu-7" target="nzRuofnxQc4ceTdJqQJu-9" edge="1">
                    <mxGeometry width="100" relative="1" as="geometry">
                        <mxPoint x="460" y="1040" as="sourcePoint"/>
                        <mxPoint x="560" y="1040" as="targetPoint"/>
                    </mxGeometry>
                </mxCell>
                <mxCell id="nzRuofnxQc4ceTdJqQJu-21" value="" style="edgeStyle=orthogonalEdgeStyle;html=1;endArrow=block;elbow=vertical;startArrow=none;endFill=1;strokeColor=#545B64;rounded=0;exitX=0.5;exitY=1;exitDx=0;exitDy=0;exitPerimeter=0;" parent="1" source="nzRuofnxQc4ceTdJqQJu-9" target="nzRuofnxQc4ceTdJqQJu-10" edge="1">
                    <mxGeometry width="100" relative="1" as="geometry">
                        <mxPoint x="530" y="1030" as="sourcePoint"/>
                        <mxPoint x="630" y="1030" as="targetPoint"/>
                    </mxGeometry>
                </mxCell>
                <mxCell id="nzRuofnxQc4ceTdJqQJu-22" value="stream handler" style="edgeLabel;html=1;align=center;verticalAlign=middle;resizable=0;points=[];" parent="nzRuofnxQc4ceTdJqQJu-21" vertex="1" connectable="0">
                    <mxGeometry x="0.2525" y="3" relative="1" as="geometry">
                        <mxPoint as="offset"/>
                    </mxGeometry>
                </mxCell>
                <mxCell id="nzRuofnxQc4ceTdJqQJu-23" value="write" style="edgeStyle=orthogonalEdgeStyle;html=1;endArrow=block;elbow=vertical;startArrow=none;endFill=1;strokeColor=#545B64;rounded=0;" parent="1" source="nzRuofnxQc4ceTdJqQJu-10" target="nzRuofnxQc4ceTdJqQJu-11" edge="1">
                    <mxGeometry width="100" relative="1" as="geometry">
                        <mxPoint x="530" y="1030" as="sourcePoint"/>
                        <mxPoint x="630" y="1030" as="targetPoint"/>
                    </mxGeometry>
                </mxCell>
                <mxCell id="nzRuofnxQc4ceTdJqQJu-24" value="write" style="edgeStyle=orthogonalEdgeStyle;html=1;endArrow=none;elbow=vertical;startArrow=block;startFill=1;strokeColor=#545B64;rounded=0;" parent="1" source="nzRuofnxQc4ceTdJqQJu-12" target="nzRuofnxQc4ceTdJqQJu-10" edge="1">
                    <mxGeometry width="100" relative="1" as="geometry">
                        <mxPoint x="530" y="1030" as="sourcePoint"/>
                        <mxPoint x="549" y="1131" as="targetPoint"/>
                    </mxGeometry>
                </mxCell>
                <mxCell id="nzRuofnxQc4ceTdJqQJu-25" value="full text search" style="edgeStyle=orthogonalEdgeStyle;html=1;endArrow=block;elbow=vertical;startArrow=none;endFill=1;strokeColor=#545B64;rounded=0;exitX=0.5;exitY=0;exitDx=0;exitDy=0;exitPerimeter=0;" parent="1" source="nzRuofnxQc4ceTdJqQJu-12" target="nzRuofnxQc4ceTdJqQJu-7" edge="1">
                    <mxGeometry width="100" relative="1" as="geometry">
                        <mxPoint x="530" y="1030" as="sourcePoint"/>
                        <mxPoint x="630" y="1030" as="targetPoint"/>
                    </mxGeometry>
                </mxCell>
                <mxCell id="nzRuofnxQc4ceTdJqQJu-26" value="read" style="edgeStyle=orthogonalEdgeStyle;html=1;endArrow=block;elbow=vertical;startArrow=none;endFill=1;strokeColor=#545B64;rounded=0;entryX=0;entryY=0.78;entryDx=0;entryDy=0;entryPerimeter=0;" parent="1" source="nzRuofnxQc4ceTdJqQJu-7" target="nzRuofnxQc4ceTdJqQJu-9" edge="1">
                    <mxGeometry width="100" relative="1" as="geometry">
                        <mxPoint x="490" y="970" as="sourcePoint"/>
                        <mxPoint x="590" y="970" as="targetPoint"/>
                    </mxGeometry>
                </mxCell>
                <mxCell id="nzRuofnxQc4ceTdJqQJu-38" value="query" style="edgeStyle=orthogonalEdgeStyle;html=1;endArrow=block;elbow=vertical;startArrow=none;endFill=1;strokeColor=#545B64;rounded=0;exitX=1;exitY=0.5;exitDx=0;exitDy=0;exitPerimeter=0;" parent="1" source="nzRuofnxQc4ceTdJqQJu-17" target="nzRuofnxQc4ceTdJqQJu-16" edge="1">
                    <mxGeometry width="100" relative="1" as="geometry">
                        <mxPoint x="530" y="1130" as="sourcePoint"/>
                        <mxPoint x="630" y="1130" as="targetPoint"/>
                    </mxGeometry>
                </mxCell>
                <mxCell id="nzRuofnxQc4ceTdJqQJu-39" value="Data Analyst" style="shape=umlActor;verticalLabelPosition=bottom;labelBackgroundColor=#ffffff;verticalAlign=top;html=1;outlineConnect=0;" parent="1" vertex="1">
                    <mxGeometry x="60" y="1278" width="50" height="72" as="geometry"/>
                </mxCell>
                <mxCell id="nzRuofnxQc4ceTdJqQJu-40" style="edgeStyle=orthogonalEdgeStyle;rounded=0;orthogonalLoop=1;jettySize=auto;html=1;entryX=0;entryY=0.5;entryDx=0;entryDy=0;entryPerimeter=0;" parent="1" target="nzRuofnxQc4ceTdJqQJu-17" edge="1">
                    <mxGeometry relative="1" as="geometry">
                        <mxPoint x="110" y="1314" as="sourcePoint"/>
                    </mxGeometry>
                </mxCell>
                <mxCell id="nzRuofnxQc4ceTdJqQJu-41" value="Build and view&lt;br&gt;visualizations" style="edgeLabel;html=1;align=center;verticalAlign=middle;resizable=0;points=[];" parent="nzRuofnxQc4ceTdJqQJu-40" vertex="1" connectable="0">
                    <mxGeometry x="0.6983" y="-3" relative="1" as="geometry">
                        <mxPoint x="-48" y="-3" as="offset"/>
                    </mxGeometry>
                </mxCell>
                <mxCell id="nzRuofnxQc4ceTdJqQJu-43" value="" style="edgeStyle=orthogonalEdgeStyle;html=1;endArrow=block;elbow=vertical;startArrow=none;endFill=1;strokeColor=#545B64;rounded=0;entryX=0;entryY=0.39;entryDx=0;entryDy=0;entryPerimeter=0;exitX=1;exitY=0.3333333333333333;exitDx=0;exitDy=0;exitPerimeter=0;" parent="1" source="nzRuofnxQc4ceTdJqQJu-39" target="nzRuofnxQc4ceTdJqQJu-16" edge="1">
                    <mxGeometry width="100" relative="1" as="geometry">
                        <mxPoint x="408" y="1278" as="sourcePoint"/>
                        <mxPoint x="508" y="1278" as="targetPoint"/>
                    </mxGeometry>
                </mxCell>
                <mxCell id="nzRuofnxQc4ceTdJqQJu-44" value="Ad hoc queries" style="edgeLabel;html=1;align=center;verticalAlign=middle;resizable=0;points=[];" parent="nzRuofnxQc4ceTdJqQJu-43" vertex="1" connectable="0">
                    <mxGeometry x="-0.6958" y="-2" relative="1" as="geometry">
                        <mxPoint x="217" y="-4" as="offset"/>
                    </mxGeometry>
                </mxCell>
            </root>
        </mxGraphModel>
    </diagram>
    <diagram id="PizVz5Ss4TuDjwnXr8fp" name="Release">
        <mxGraphModel dx="1288" dy="861" grid="0" gridSize="10" guides="1" tooltips="1" connect="1" arrows="1" fold="0" page="1" pageScale="1" pageWidth="850" pageHeight="1100" background="#ffffff" math="0" shadow="0">
            <root>
                <mxCell id="RxeHKnP7AiUCyKOluCaC-0"/>
                <mxCell id="RxeHKnP7AiUCyKOluCaC-1" parent="RxeHKnP7AiUCyKOluCaC-0"/>
                <mxCell id="RxeHKnP7AiUCyKOluCaC-3" value="" style="outlineConnect=0;dashed=0;verticalLabelPosition=bottom;verticalAlign=top;align=center;html=1;shape=mxgraph.aws3.cloud_2;fillColor=#F58534;gradientColor=none;shadow=0;" parent="RxeHKnP7AiUCyKOluCaC-1" vertex="1">
                    <mxGeometry x="160" y="110" width="40" height="40" as="geometry"/>
                </mxCell>
                <mxCell id="RxeHKnP7AiUCyKOluCaC-4" value="" style="rounded=0;whiteSpace=wrap;html=1;shadow=0;fillColor=none;strokeColor=#000000;" parent="RxeHKnP7AiUCyKOluCaC-1" vertex="1">
                    <mxGeometry x="160" y="110" width="672" height="543" as="geometry"/>
                </mxCell>
                <mxCell id="qKL4ihBS6JLnwxmZZX88-11" style="edgeStyle=orthogonalEdgeStyle;rounded=0;orthogonalLoop=1;jettySize=auto;html=1;entryX=0;entryY=0.5;entryDx=0;entryDy=0;entryPerimeter=0;strokeWidth=1;" parent="RxeHKnP7AiUCyKOluCaC-1" source="RxeHKnP7AiUCyKOluCaC-5" target="qKL4ihBS6JLnwxmZZX88-6" edge="1">
                    <mxGeometry relative="1" as="geometry"/>
                </mxCell>
                <mxCell id="RxeHKnP7AiUCyKOluCaC-5" value="API Gateway" style="points=[[0,0,0],[0.25,0,0],[0.5,0,0],[0.75,0,0],[1,0,0],[0,1,0],[0.25,1,0],[0.5,1,0],[0.75,1,0],[1,1,0],[0,0.25,0],[0,0.5,0],[0,0.75,0],[1,0.25,0],[1,0.5,0],[1,0.75,0]];outlineConnect=0;fontColor=#232F3E;gradientColor=#FF4F8B;gradientDirection=north;fillColor=#BC1356;strokeColor=#ffffff;dashed=0;verticalLabelPosition=bottom;verticalAlign=top;align=center;html=1;fontSize=12;fontStyle=0;aspect=fixed;shape=mxgraph.aws4.resourceIcon;resIcon=mxgraph.aws4.api_gateway;shadow=0;" parent="RxeHKnP7AiUCyKOluCaC-1" vertex="1">
                    <mxGeometry x="190" y="198" width="78" height="78" as="geometry"/>
                </mxCell>
                <mxCell id="qKL4ihBS6JLnwxmZZX88-8" style="edgeStyle=orthogonalEdgeStyle;rounded=0;orthogonalLoop=1;jettySize=auto;html=1;strokeWidth=1;" parent="RxeHKnP7AiUCyKOluCaC-1" source="8SwLJHqdB8uDOJAA3Q8t-2" target="8SwLJHqdB8uDOJAA3Q8t-9" edge="1">
                    <mxGeometry relative="1" as="geometry"/>
                </mxCell>
                <mxCell id="8SwLJHqdB8uDOJAA3Q8t-2" value="DynamoDB" style="points=[[0,0,0],[0.25,0,0],[0.5,0,0],[0.75,0,0],[1,0,0],[0,1,0],[0.25,1,0],[0.5,1,0],[0.75,1,0],[1,1,0],[0,0.25,0],[0,0.5,0],[0,0.75,0],[1,0.25,0],[1,0.5,0],[1,0.75,0]];outlineConnect=0;fontColor=#232F3E;gradientColor=#4D72F3;gradientDirection=north;fillColor=#3334B9;strokeColor=#ffffff;dashed=0;verticalLabelPosition=bottom;verticalAlign=top;align=center;html=1;fontSize=12;fontStyle=0;aspect=fixed;shape=mxgraph.aws4.resourceIcon;resIcon=mxgraph.aws4.dynamodb;shadow=0;" parent="RxeHKnP7AiUCyKOluCaC-1" vertex="1">
                    <mxGeometry x="573" y="198" width="78" height="78" as="geometry"/>
                </mxCell>
                <mxCell id="8SwLJHqdB8uDOJAA3Q8t-13" style="edgeStyle=none;html=1;entryX=0;entryY=0.5;entryDx=0;entryDy=0;entryPerimeter=0;strokeColor=#000000;strokeWidth=1;" parent="RxeHKnP7AiUCyKOluCaC-1" source="8SwLJHqdB8uDOJAA3Q8t-6" target="RxeHKnP7AiUCyKOluCaC-5" edge="1">
                    <mxGeometry relative="1" as="geometry"/>
                </mxCell>
                <mxCell id="8SwLJHqdB8uDOJAA3Q8t-6" value="" style="outlineConnect=0;fontColor=#232F3E;gradientColor=none;fillColor=#232F3E;strokeColor=none;dashed=0;verticalLabelPosition=bottom;verticalAlign=top;align=center;html=1;fontSize=12;fontStyle=0;aspect=fixed;pointerEvents=1;shape=mxgraph.aws4.users;" parent="RxeHKnP7AiUCyKOluCaC-1" vertex="1">
                    <mxGeometry x="40" y="198" width="78" height="78" as="geometry"/>
                </mxCell>
                <mxCell id="qKL4ihBS6JLnwxmZZX88-9" style="edgeStyle=orthogonalEdgeStyle;rounded=0;orthogonalLoop=1;jettySize=auto;html=1;strokeWidth=1;" parent="RxeHKnP7AiUCyKOluCaC-1" source="8SwLJHqdB8uDOJAA3Q8t-9" target="8SwLJHqdB8uDOJAA3Q8t-14" edge="1">
                    <mxGeometry relative="1" as="geometry"/>
                </mxCell>
                <mxCell id="8SwLJHqdB8uDOJAA3Q8t-9" value="DynamoDB Change&#10;Data Capture Stream" style="shape=image;verticalLabelPosition=bottom;labelBackgroundColor=#ffffff;verticalAlign=top;aspect=fixed;imageAspect=0;image=data:image/svg+xml,PHN2ZyB4bWxucz0iaHR0cDovL3d3dy53My5vcmcvMjAwMC9zdmciIHhtbG5zOnhsaW5rPSJodHRwOi8vd3d3LnczLm9yZy8xOTk5L3hsaW5rIiB3aWR0aD0iNDQuMDM4MzkxMTEzMjgxMjUiIGhlaWdodD0iNDQiIHZpZXdCb3g9IjIgMiA0NC4wMzgzOTExMTMyODEyNSA0NCIgdmVyc2lvbj0iMS4xIj4KICAgIDx0aXRsZT5JY29uLVJlc291cmNlL0RhdGFiYXNlL1Jlc19BbWF6b24tRHluYW1vREJfU3RyZWFtXzQ4X0xpZ2h0PC90aXRsZT4KICAgIDxnIGlkPSJJY29uLVJlc291cmNlL0RhdGFiYXNlL1Jlc19BbWF6b24tRHluYW1vREJfU3RyZWFtXzQ4IiBzdHJva2U9Im5vbmUiIHN0cm9rZS13aWR0aD0iMSIgZmlsbD0ibm9uZSIgZmlsbC1ydWxlPSJldmVub2RkIj4KICAgICAgICA8cGF0aCBkPSJNMiw0IEw0Niw0IEw0NiwyIEwyLDIgTDIsNCBaIE0yLDQ2IEw0Niw0NiBMNDYsNDQgTDIsNDQgTDIsNDYgWiBNMzAuODg3LDMzLjYxNiBMMzguNjExLDM1LjY5NiBMNDMuODEzLDE2LjM4NCBMMzYuMDg4LDE0LjMwNCBMMzAuODg3LDMzLjYxNiBaIE0zOS4zMTcsMzcuOTIyIEMzOS4yMywzNy45MjIgMzkuMTQzLDM3LjkxMSAzOS4wNTgsMzcuODg4IEwyOS40MDEsMzUuMjg3IEMyOS4xNDUsMzUuMjE4IDI4LjkyNywzNS4wNSAyOC43OTUsMzQuODIgQzI4LjY2MiwzNC41OSAyOC42MjcsMzQuMzE3IDI4LjY5NSwzNC4wNjEgTDM0LjQxNywxMi44MTggQzM0LjQ4NiwxMi41NjIgMzQuNjU0LDEyLjM0NCAzNC44ODQsMTIuMjExIEMzNS4xMTMsMTIuMDggMzUuMzg3LDEyLjA0MyAzNS42NDMsMTIuMTEyIEw0NS4yOTgsMTQuNzEzIEM0NS44MzEsMTQuODU3IDQ2LjE0NywxNS40MDUgNDYuMDA0LDE1LjkzOSBMNDAuMjgzLDM3LjE4MiBDNDAuMjE0LDM3LjQzOCA0MC4wNDYsMzcuNjU2IDM5LjgxNiwzNy43ODkgQzM5LjY2MywzNy44NzYgMzkuNDkxLDM3LjkyMiAzOS4zMTcsMzcuOTIyIEwzOS4zMTcsMzcuOTIyIFogTTE3LDM0IEwyNSwzNCBMMjUsMTQgTDE3LDE0IEwxNywzNCBaIE0yNiwzNiBMMTYsMzYgQzE1LjQ0NywzNiAxNSwzNS41NTIgMTUsMzUgTDE1LDEzIEMxNSwxMi40NDggMTUuNDQ3LDEyIDE2LDEyIEwyNiwxMiBDMjYuNTUzLDEyIDI3LDEyLjQ0OCAyNywxMyBMMjcsMzUgQzI3LDM1LjU1MiAyNi41NTMsMzYgMjYsMzYgTDI2LDM2IFogTTQsMzQgTDEyLDM0IEwxMiwxNCBMNCwxNCBMNCwzNCBaIE0xMywzNiBMMywzNiBDMi40NDcsMzYgMiwzNS41NTIgMiwzNSBMMiwxMyBDMiwxMi40NDggMi40NDcsMTIgMywxMiBMMTMsMTIgQzEzLjU1MywxMiAxNCwxMi40NDggMTQsMTMgTDE0LDM1IEMxNCwzNS41NTIgMTMuNTUzLDM2IDEzLDM2IEwxMywzNiBaIiBpZD0iRmlsbC0xIiBmaWxsPSIjMkUyN0FEIi8+CiAgICA8L2c+Cjwvc3ZnPg==;" parent="RxeHKnP7AiUCyKOluCaC-1" vertex="1">
                    <mxGeometry x="590" y="313" width="44" height="44" as="geometry"/>
                </mxCell>
                <mxCell id="8SwLJHqdB8uDOJAA3Q8t-12" value="CloudWatch" style="shape=image;verticalLabelPosition=bottom;labelBackgroundColor=#ffffff;verticalAlign=top;aspect=fixed;imageAspect=0;image=data:image/svg+xml,PHN2ZyB4bWxucz0iaHR0cDovL3d3dy53My5vcmcvMjAwMC9zdmciIHhtbG5zOnhsaW5rPSJodHRwOi8vd3d3LnczLm9yZy8xOTk5L3hsaW5rIiB3aWR0aD0iNDAiIGhlaWdodD0iNDAiIHZpZXdCb3g9IjAgMCA0MCA0MCIgdmVyc2lvbj0iMS4xIj4KICAgIDwhLS0gR2VuZXJhdG9yOiBTa2V0Y2ggNjQgKDkzNTM3KSAtIGh0dHBzOi8vc2tldGNoLmNvbSAtLT4KICAgIDx0aXRsZT5JY29uLUFyY2hpdGVjdHVyZS8zMi9BcmNoX0FtYXpvbi1DbG91ZFdhdGNoXzMyPC90aXRsZT4KICAgIDxkZXNjPkNyZWF0ZWQgd2l0aCBTa2V0Y2guPC9kZXNjPgogICAgPGRlZnM+CiAgICAgICAgPGxpbmVhckdyYWRpZW50IHgxPSIwJSIgeTE9IjEwMCUiIHgyPSIxMDAlIiB5Mj0iMCUiIGlkPSJsaW5lYXJHcmFkaWVudC0xIj4KICAgICAgICAgICAgPHN0b3Agc3RvcC1jb2xvcj0iI0IwMDg0RCIgb2Zmc2V0PSIwJSIvPgogICAgICAgICAgICA8c3RvcCBzdG9wLWNvbG9yPSIjRkY0RjhCIiBvZmZzZXQ9IjEwMCUiLz4KICAgICAgICA8L2xpbmVhckdyYWRpZW50PgogICAgPC9kZWZzPgogICAgPGcgaWQ9Ikljb24tQXJjaGl0ZWN0dXJlLzMyL0FyY2hfQW1hem9uLUNsb3VkV2F0Y2hfMzIiIHN0cm9rZT0ibm9uZSIgc3Ryb2tlLXdpZHRoPSIxIiBmaWxsPSJub25lIiBmaWxsLXJ1bGU9ImV2ZW5vZGQiPgogICAgICAgIDxnIGlkPSJJY29uLUFyY2hpdGVjdHVyZS1CRy8zMi9NYW5hZ2VtZW50LUdvdmVybmFuY2UiIGZpbGw9InVybCgjbGluZWFyR3JhZGllbnQtMSkiPgogICAgICAgICAgICA8cmVjdCBpZD0iUmVjdGFuZ2xlIiB4PSIwIiB5PSIwIiB3aWR0aD0iNDAiIGhlaWdodD0iNDAiLz4KICAgICAgICA8L2c+CiAgICAgICAgPHBhdGggZD0iTTI3LjYyOTk4NDQsMjQuMTI0MzQxOSBDMjcuNjI5OTg0NCwyMi4yMjA3OTQ4IDI2LjA0OTkwNDYsMjAuNjcyMzEzNSAyNC4xMDc1MTM0LDIwLjY3MjMxMzUgQzIyLjE2NTEyMjMsMjAuNjcyMzEzNSAyMC41ODUwNDI1LDIyLjIyMDc5NDggMjAuNTg1MDQyNSwyNC4xMjQzNDE5IEMyMC41ODUwNDI1LDI2LjAyNzg4OSAyMi4xNjUxMjIzLDI3LjU3NjM3MDMgMjQuMTA3NTEzNCwyNy41NzYzNzAzIEMyNi4wNDk5MDQ2LDI3LjU3NjM3MDMgMjcuNjI5OTg0NCwyNi4wMjc4ODkgMjcuNjI5OTg0NCwyNC4xMjQzNDE5IEwyNy42Mjk5ODQ0LDI0LjEyNDM0MTkgWiBNMjguNjM2NDA0NywyNC4xMjQzNDE5IEMyOC42MzY0MDQ3LDI2LjU3MTMzNjkgMjYuNjA0NDQyMSwyOC41NjI2NjQxIDI0LjEwNzUxMzQsMjguNTYyNjY0MSBDMjEuNjEwNTg0OCwyOC41NjI2NjQxIDE5LjU3ODYyMjIsMjYuNTcxMzM2OSAxOS41Nzg2MjIyLDI0LjEyNDM0MTkgQzE5LjU3ODYyMjIsMjEuNjc3MzQ2OSAyMS42MTA1ODQ4LDE5LjY4NjAxOTcgMjQuMTA3NTEzNCwxOS42ODYwMTk3IEMyNi42MDQ0NDIxLDE5LjY4NjAxOTcgMjguNjM2NDA0NywyMS42NzczNDY5IDI4LjYzNjQwNDcsMjQuMTI0MzQxOSBMMjguNjM2NDA0NywyNC4xMjQzNDE5IFogTTMyLjkxMTY3NzksMzAuNzAyOTIxNyBMMjkuNTI1MDczNywyNy43MTM0NjUxIEMyOS4yMzYyMzExLDI4LjEzMDY2NzQgMjguODk1MDU0NywyOC41MDY0NDUzIDI4LjUxNjY0MDYsMjguODQ1NzMwNCBMMzEuODg0MTIyOSwzMS44MjIzNjUyIEMzMi4yMDAxMzg4LDMyLjA5OTUxMzcgMzIuNjg2MjM5OCwzMi4wNzM4NzAxIDMyLjk2OTA0MzksMzEuNzY2MTQ2NCBDMzMuMjUwODQxNiwzMS40NTk0MDkgMzMuMjI1NjgxMSwzMC45ODEwNTY1IDMyLjkxMTY3NzksMzAuNzAyOTIxNyBMMzIuOTExNjc3OSwzMC43MDI5MjE3IFogTTI0LjEwNzUxMzQsMjkuNTQ4OTU3OSBDMjcuMTU4OTc5NywyOS41NDg5NTc5IDI5LjY0MjgyNDksMjcuMTE1NzcxMSAyOS42NDI4MjQ5LDI0LjEyNDM0MTkgQzI5LjY0MjgyNDksMjEuMTMyOTEyNyAyNy4xNTg5Nzk3LDE4LjY5OTcyNTkgMjQuMTA3NTEzNCwxOC42OTk3MjU5IEMyMS4wNTYwNDcyLDE4LjY5OTcyNTkgMTguNTcyMjAyLDIxLjEzMjkxMjcgMTguNTcyMjAyLDI0LjEyNDM0MTkgQzE4LjU3MjIwMiwyNy4xMTU3NzExIDIxLjA1NjA0NzIsMjkuNTQ4OTU3OSAyNC4xMDc1MTM0LDI5LjU0ODk1NzkgTDI0LjEwNzUxMzQsMjkuNTQ4OTU3OSBaIE0zMy41ODU5Nzk1LDI5Ljk3MTA5MTcgQzM0LjMxMDYwMjEsMzAuNjEzMTY4OSAzNC4zNjg5NzQ1LDMxLjcxMzg3MjkgMzMuNzE2ODE0MiwzMi40MjU5NzcgQzMzLjM2NTU3MzUsMzIuODA2Njg2NCAzMi44ODI0OTE4LDMzIDMyLjM5NjM5MDgsMzMgQzMxLjk3MjY4NzgsMzMgMzEuNTQ4OTg0OSwzMi44NTMwNDIyIDMxLjIxMDgyNzcsMzIuNTU1MTgxNSBMMjcuNzE2NTM2NSwyOS40NjYxMDkyIEMyNi42ODA5MzAxLDMwLjE0MDczNDIgMjUuNDQxMDIwMywzMC41MzUyNTE3IDI0LjEwNzUxMzQsMzAuNTM1MjUxNyBDMjAuNTAwNTAzMiwzMC41MzUyNTE3IDE3LjU2NTc4MTcsMjcuNjU5MjE4OSAxNy41NjU3ODE3LDI0LjEyNDM0MTkgQzE3LjU2NTc4MTcsMjAuNTg5NDY0OCAyMC41MDA1MDMyLDE3LjcxMzQzMiAyNC4xMDc1MTM0LDE3LjcxMzQzMiBDMjcuNzE0NTIzNywxNy43MTM0MzIgMzAuNjQ5MjQ1MiwyMC41ODk0NjQ4IDMwLjY0OTI0NTIsMjQuMTI0MzQxOSBDMzAuNjQ5MjQ1MiwyNS4wOTE4OTYxIDMwLjQyMjgwMDYsMjYuMDA3MTc2OCAzMC4wMjkyOTAzLDI2LjgzMDczMjEgTDMzLjU4NTk3OTUsMjkuOTcxMDkxNyBaIE0xMC41OTIyOTU3LDI0LjYxNzQ4ODggTDE1LjU1Mjk0MTIsMjQuNjE3NDg4OCBMMTUuNTUyOTQxMiwyNS42MDM3ODI2IEwxMC41ODYyNTcyLDI1LjYwMzc4MjYgQzEwLjAyODcwMDMsMjUuNTk3ODY0OSA5LjQyOTg4MDI3LDI1LjM5NzY0NzIgOC43OTk4NjExOCwyNS4wMDgwNjExIEM3Ljc1NjIwMzM3LDI0LjM3Mzg3NDIgNiwyMi44ODA2MjU0IDYsMjAuMDM1MTY3NyBDNiwxNi41OTMwMDIyIDguNDEwMzc2NTQsMTUuMzI4NTczNiA5LjgxMjMxOTk3LDE0Ljg4NDc0MTMgQzkuODAxMjQ5MzUsMTQuNzIyMDAyOSA5Ljc5NjIxNzI1LDE0LjU1NzI5MTggOS43OTYyMTcyNSwxNC4zOTI1ODA3IEM5Ljc5NjIxNzI1LDExLjU4ODU0NzQgMTEuNzM3NjAxOSw4LjY3ODk4MDYxIDE0LjMxMTAxODYsNy42Mjc1OTEzOSBDMTcuMzI0MjQwOCw2LjM5MDc3ODk0IDIwLjUxMzU4NjcsNy4wMDUyMzk5OSAyMi44NDI0NDMyLDkuMjY1ODI1NDQgQzIzLjU3MTA5MTQsOS45NzI5OTgxMSAyNC4xNjk5MTE1LDEwLjgzMjA2IDI0LjYyNzgzMjcsMTEuODI5MjAzMSBDMjUuMjQxNzQ5MSwxMS4zMjIyNDgxIDI2LjAwMjYwMjgsMTEuMDQyMTQwNiAyNi44MDQ3MTk4LDExLjA0MjE0MDYgQzI4LjM2NTY3NzYsMTEuMDQyMTQwNiAzMC4xMjM4OTM4LDEyLjIwNjk1MzYgMzAuNDMwODUyLDE0Ljc1NDU1MDYgQzMxLjg4NzE0MjEsMTUuMDgxMDEzOCAzNSwxNi4yMzAwNDYxIDM1LDIwLjA3NTYwNTcgQzM1LDIxLjcyNzY0NzkgMzQuNDMzMzg1NCwyMy4wNjUwNjIzIDMzLjMxMzIzOTYsMjQuMDQ3NDExIEwzMi42NDA5NTA5LDIzLjMxMzYwODQgQzMzLjUzODY3NzgsMjIuNTI1NTU5NiAzMy45OTM1Nzk3LDIxLjQzNTcwNDkgMzMuOTkzNTc5NywyMC4wNzU2MDU3IEMzMy45OTM1Nzk3LDE2LjY5MzYwNDIgMzEuMTA2MTYsMTUuODUzMjgxOSAyOS44NjQyMzc0LDE1LjY0OTExOTEgQzI5LjcyOTM3NzEsMTUuNjI3NDIwNiAyOS42MTA2MTk1LDE1LjU1MjQ2MjMgMjkuNTMzMTI1MSwxNS40NDE5OTc0IEMyOS40NTQ2MjQzLDE1LjMzMTUzMjQgMjkuNDI3NDUxLDE1LjE5NTQyMzkgMjkuNDUzNjE3OSwxNS4wNjQyNDY4IEMyOS4zMDY2ODA1LDEyLjk5MDA3MDkgMjguMDE2NDQ5OCwxMi4wMjg0MzQ0IDI2LjgwNDcxOTgsMTIuMDI4NDM0NCBDMjYuMDQ3ODkxNywxMi4wMjg0MzQ0IDI1LjMzODM2NTQsMTIuMzg5NDE4IDI0Ljg1NzI5NjUsMTMuMDE4NjczNCBDMjQuNzQ3NTk2NywxMy4xNjQ2NDQ5IDI0LjU2MjQxNTQsMTMuMjM1NjU4MSAyNC4zODAyNTMzLDEzLjIxMTk4NyBDMjQuMTk4MDkxMywxMy4xODUzNTcxIDI0LjA0NDEwOSwxMy4wNjIwNzA0IDIzLjk4MTcxMDksMTIuODkxNDQxNSBDMjMuNTQ4OTUwMiwxMS43MTk3MjQ1IDIyLjkyNzk4ODksMTAuNzM2Mzg5NSAyMi4xMzQ5Mjk3LDkuOTY3MDgwMzQgQzIwLjEwMjk2NzIsNy45OTQ0OTI3IDE3LjMyMzIzNDQsNy40NTg5MzUxNSAxNC42OTg0OTA0LDguNTM3OTQwNTkgQzEyLjUxMzU1Miw5LjQzMDUzNjUgMTAuODAyNjM3NSwxMi4wMDE4MDQ1IDEwLjgwMjYzNzUsMTQuMzkyNTgwNyBDMTAuODAyNjM3NSwxNC42NjA4NTI2IDEwLjgxODc0MDIsMTQuOTI5MTI0NiAxMC44NTA5NDU3LDE1LjE4NjU0NzMgQzEwLjg2OTA2MTMsMTUuMzI2NjAxIDEwLjgyNDc3ODgsMTUuNDY3NjQxIDEwLjcyOTE2ODgsMTUuNTc0MTYwNyBDMTAuNjUyNjgwOSwxNS42NTg5ODIgMTAuNTUwMDI2LDE1LjcxNDIxNDUgMTAuNDM4MzEzNCwxNS43MzM5NDAzIEM5LjE0MjA0NDA3LDE2LjA2MTM4OTkgNy4wMDY0MjAyNywxNy4wNTM2MDE1IDcuMDA2NDIwMjcsMjAuMDM1MTY3NyBDNy4wMDY0MjAyNywyMi4yODQ5MDM5IDguMjcyNDk2OTYsMjMuNTI2NjQ3OCA5LjMzMzI2MzkzLDI0LjE3MjY3MDMgQzkuODA2MjgxNDUsMjQuNDY0NjEzMyAxMC4yMjg5NzgsMjQuNjEzNTQzNiAxMC41OTIyOTU3LDI0LjYxNzQ4ODggTDEwLjU5MjI5NTcsMjQuNjE3NDg4OCBaIiBpZD0iQW1hem9uLUNsb3VkV2F0Y2hfSWNvbl8zMl9TcXVpZCIgZmlsbD0iI0ZGRkZGRiIvPgogICAgPC9nPgo8L3N2Zz4=;" parent="RxeHKnP7AiUCyKOluCaC-1" vertex="1">
                    <mxGeometry x="710" y="162" width="77" height="77" as="geometry"/>
                </mxCell>
                <mxCell id="qKL4ihBS6JLnwxmZZX88-10" style="edgeStyle=orthogonalEdgeStyle;rounded=0;orthogonalLoop=1;jettySize=auto;html=1;strokeWidth=1;" parent="RxeHKnP7AiUCyKOluCaC-1" source="8SwLJHqdB8uDOJAA3Q8t-14" target="8SwLJHqdB8uDOJAA3Q8t-1" edge="1">
                    <mxGeometry relative="1" as="geometry">
                        <mxPoint x="612" y="542" as="targetPoint"/>
                    </mxGeometry>
                </mxCell>
                <mxCell id="8SwLJHqdB8uDOJAA3Q8t-14" value="" style="points=[[0,0,0],[0.25,0,0],[0.5,0,0],[0.75,0,0],[1,0,0],[0,1,0],[0.25,1,0],[0.5,1,0],[0.75,1,0],[1,1,0],[0,0.25,0],[0,0.5,0],[0,0.75,0],[1,0.25,0],[1,0.5,0],[1,0.75,0]];outlineConnect=0;fontColor=#232F3E;gradientColor=#F78E04;gradientDirection=north;fillColor=#D05C17;strokeColor=#ffffff;dashed=0;verticalLabelPosition=bottom;verticalAlign=top;align=center;html=1;fontSize=12;fontStyle=0;aspect=fixed;shape=mxgraph.aws4.resourceIcon;resIcon=mxgraph.aws4.lambda;shadow=0;" parent="RxeHKnP7AiUCyKOluCaC-1" vertex="1">
                    <mxGeometry x="573" y="425" width="78" height="78" as="geometry"/>
                </mxCell>
                <mxCell id="qKL4ihBS6JLnwxmZZX88-12" value="GET by ID&lt;br&gt;GET all&lt;br&gt;POST&lt;br&gt;PUT&lt;br&gt;DELETE" style="edgeStyle=orthogonalEdgeStyle;rounded=0;orthogonalLoop=1;jettySize=auto;html=1;strokeWidth=1;" parent="RxeHKnP7AiUCyKOluCaC-1" source="qKL4ihBS6JLnwxmZZX88-6" target="8SwLJHqdB8uDOJAA3Q8t-2" edge="1">
                    <mxGeometry relative="1" as="geometry"/>
                </mxCell>
                <mxCell id="qKL4ihBS6JLnwxmZZX88-13" value="GET by query" style="edgeStyle=orthogonalEdgeStyle;rounded=0;orthogonalLoop=1;jettySize=auto;html=1;strokeWidth=1;" parent="RxeHKnP7AiUCyKOluCaC-1" source="qKL4ihBS6JLnwxmZZX88-6" target="8SwLJHqdB8uDOJAA3Q8t-1" edge="1">
                    <mxGeometry relative="1" as="geometry">
                        <Array as="points">
                            <mxPoint x="457" y="237"/>
                            <mxPoint x="457" y="581"/>
                        </Array>
                        <mxPoint x="572" y="581" as="targetPoint"/>
                    </mxGeometry>
                </mxCell>
                <mxCell id="qKL4ihBS6JLnwxmZZX88-14" value="logs" style="edgeStyle=orthogonalEdgeStyle;rounded=0;orthogonalLoop=1;jettySize=auto;html=1;entryX=0.5;entryY=0;entryDx=0;entryDy=0;strokeWidth=1;" parent="RxeHKnP7AiUCyKOluCaC-1" source="qKL4ihBS6JLnwxmZZX88-6" target="8SwLJHqdB8uDOJAA3Q8t-12" edge="1">
                    <mxGeometry relative="1" as="geometry">
                        <Array as="points">
                            <mxPoint x="384" y="142"/>
                            <mxPoint x="749" y="142"/>
                        </Array>
                    </mxGeometry>
                </mxCell>
                <mxCell id="qKL4ihBS6JLnwxmZZX88-6" value="Lambda Functions" style="points=[[0,0,0],[0.25,0,0],[0.5,0,0],[0.75,0,0],[1,0,0],[0,1,0],[0.25,1,0],[0.5,1,0],[0.75,1,0],[1,1,0],[0,0.25,0],[0,0.5,0],[0,0.75,0],[1,0.25,0],[1,0.5,0],[1,0.75,0]];outlineConnect=0;fontColor=#232F3E;gradientColor=#F78E04;gradientDirection=north;fillColor=#D05C17;strokeColor=#ffffff;dashed=0;verticalLabelPosition=bottom;verticalAlign=top;align=center;html=1;fontSize=12;fontStyle=0;aspect=fixed;shape=mxgraph.aws4.resourceIcon;resIcon=mxgraph.aws4.lambda;shadow=0;" parent="RxeHKnP7AiUCyKOluCaC-1" vertex="1">
                    <mxGeometry x="337" y="198" width="78" height="78" as="geometry"/>
                </mxCell>
                <mxCell id="qKL4ihBS6JLnwxmZZX88-15" value="logs" style="edgeStyle=orthogonalEdgeStyle;rounded=0;orthogonalLoop=1;jettySize=auto;html=1;strokeWidth=1;entryX=0.5;entryY=1;entryDx=0;entryDy=0;" parent="RxeHKnP7AiUCyKOluCaC-1" source="8SwLJHqdB8uDOJAA3Q8t-14" target="8SwLJHqdB8uDOJAA3Q8t-12" edge="1">
                    <mxGeometry relative="1" as="geometry">
                        <mxPoint x="386" y="286" as="sourcePoint"/>
                        <mxPoint x="505" y="626" as="targetPoint"/>
                        <Array as="points"/>
                    </mxGeometry>
                </mxCell>
                <mxCell id="8SwLJHqdB8uDOJAA3Q8t-1" value="OpenSearch" style="shape=image;verticalLabelPosition=bottom;labelBackgroundColor=#ffffff;verticalAlign=top;aspect=fixed;imageAspect=0;image=data:image/svg+xml,PHN2ZyB4bWxucz0iaHR0cDovL3d3dy53My5vcmcvMjAwMC9zdmciIHZpZXdCb3g9Ii00Ljc2ODM3MTU4MjAzMTI1ZS03IDAgNjQgNjQiIGZpbGw9Im5vbmUiIHdpZHRoPSI2NCIgaGVpZ2h0PSI2NCI+CjxwYXRoIGQ9Ik02MS43Mzc0IDIzLjVDNjAuNDg3OCAyMy41IDU5LjQ3NDggMjQuNTEzIDU5LjQ3NDggMjUuNzYyNkM1OS40NzQ4IDQ0LjM4MTMgNDQuMzgxNCA1OS40NzQ4IDI1Ljc2MjYgNTkuNDc0OEMyNC41MTMgNTkuNDc0OCAyMy41IDYwLjQ4NzggMjMuNSA2MS43Mzc0QzIzLjUgNjIuOTg3IDI0LjUxMyA2NCAyNS43NjI2IDY0QzQ2Ljg4MDUgNjQgNjQgNDYuODgwNSA2NCAyNS43NjI2QzY0IDI0LjUxMyA2Mi45ODcgMjMuNSA2MS43Mzc0IDIzLjVaIiBmaWxsPSIjMDBBM0UwIi8+CjxwYXRoIGQ9Ik00OC4wODE0IDM4QzUwLjI1NzIgMzQuNDUwNSA1Mi4zNjE1IDI5LjcxNzggNTEuOTQ3NSAyMy4wOTIxQzUxLjA4OTkgOS4zNjcyNSAzOC42NTg5IC0xLjA0NDYzIDI2LjkyMDYgMC4wODM3MzI3QzIyLjMyNTMgMC41MjU0NjUgMTcuNjA2OCA0LjI3MTIgMTguMDI2IDEwLjk4MDVDMTguMjA4MiAxMy44OTYxIDE5LjYzNTIgMTUuNjE2OSAyMS45NTQ0IDE2LjkzOTlDMjQuMTYxOCAxOC4xOTkyIDI2Ljk5NzggMTguOTk2OSAzMC4yMTI4IDE5LjkwMTFDMzQuMDk2MiAyMC45OTM0IDM4LjYwMDkgMjIuMjIwMyA0Mi4wNjMxIDI0Ljc3MTdDNDYuMjEyNSAyNy44Mjk1IDQ5LjA0OTEgMzEuMzc0MyA0OC4wODE0IDM4WiIgZmlsbD0iI0I5RDlFQiIvPgo8cGF0aCBkPSJNMy45MTg2MSAxNEMxLjc0Mjc2IDE3LjU0OTUgLTAuMzYxNTA2IDIyLjI4MjIgMC4wNTI0OTMxIDI4LjkwNzlDMC45MTAwNzIgNDIuNjMyNyAxMy4zNDExIDUzLjA0NDYgMjUuMDc5NCA1MS45MTYzQzI5LjY3NDcgNTEuNDc0NSAzNC4zOTMyIDQ3LjcyODggMzMuOTc0IDQxLjAxOTVDMzMuNzkxOCAzOC4xMDM5IDMyLjM2NDcgMzYuMzgzMSAzMC4wNDU2IDM1LjA2MDFDMjcuODM4MiAzMy44MDA4IDI1LjAwMjIgMzMuMDAzMSAyMS43ODcyIDMyLjA5ODlDMTcuOTAzOCAzMS4wMDY2IDEzLjM5OTEgMjkuNzc5NyA5LjkzNjk1IDI3LjIyODNDNS43ODc0NyAyNC4xNzA0IDIuOTUwOTIgMjAuNjI1NyAzLjkxODYxIDE0WiIgZmlsbD0iIzAwQTNFMCIvPgo8L3N2Zz4=;container=1;" parent="RxeHKnP7AiUCyKOluCaC-1" vertex="1">
                    <mxGeometry x="574.5" y="543" width="75" height="75" as="geometry"/>
                </mxCell>
            </root>
        </mxGraphModel>
    </diagram>
    <diagram name="MongoDB" id="EgXzmBjCZ-6fEiD3whC2">
        <mxGraphModel dx="1288" dy="861" grid="0" gridSize="10" guides="1" tooltips="1" connect="1" arrows="1" fold="0" page="1" pageScale="1" pageWidth="850" pageHeight="1100" background="#ffffff" math="0" shadow="0">
            <root>
                <mxCell id="to6_qT3kHKeevmy2Pyxd-0"/>
                <mxCell id="to6_qT3kHKeevmy2Pyxd-1" parent="to6_qT3kHKeevmy2Pyxd-0"/>
                <mxCell id="to6_qT3kHKeevmy2Pyxd-2" value="" style="outlineConnect=0;dashed=0;verticalLabelPosition=bottom;verticalAlign=top;align=center;html=1;shape=mxgraph.aws3.cloud_2;fillColor=#F58534;gradientColor=none;shadow=0;fontFamily=Roboto;fontSource=https%3A%2F%2Ffonts.googleapis.com%2Fcss%3Ffamily%3DRoboto;" parent="to6_qT3kHKeevmy2Pyxd-1" vertex="1">
                    <mxGeometry x="160" y="110" width="40" height="40" as="geometry"/>
                </mxCell>
                <mxCell id="to6_qT3kHKeevmy2Pyxd-3" value="" style="rounded=0;whiteSpace=wrap;html=1;shadow=0;fillColor=none;strokeColor=#000000;fontFamily=Roboto;fontSource=https%3A%2F%2Ffonts.googleapis.com%2Fcss%3Ffamily%3DRoboto;" parent="to6_qT3kHKeevmy2Pyxd-1" vertex="1">
                    <mxGeometry x="160" y="110" width="672" height="556" as="geometry"/>
                </mxCell>
                <mxCell id="to6_qT3kHKeevmy2Pyxd-4" style="edgeStyle=orthogonalEdgeStyle;rounded=0;orthogonalLoop=1;jettySize=auto;html=1;entryX=0;entryY=0.5;entryDx=0;entryDy=0;entryPerimeter=0;strokeWidth=1;fontFamily=Roboto;fontSource=https%3A%2F%2Ffonts.googleapis.com%2Fcss%3Ffamily%3DRoboto;" parent="to6_qT3kHKeevmy2Pyxd-1" source="to6_qT3kHKeevmy2Pyxd-5" target="to6_qT3kHKeevmy2Pyxd-18" edge="1">
                    <mxGeometry relative="1" as="geometry"/>
                </mxCell>
                <mxCell id="to6_qT3kHKeevmy2Pyxd-5" value="API Gateway" style="points=[[0,0,0],[0.25,0,0],[0.5,0,0],[0.75,0,0],[1,0,0],[0,1,0],[0.25,1,0],[0.5,1,0],[0.75,1,0],[1,1,0],[0,0.25,0],[0,0.5,0],[0,0.75,0],[1,0.25,0],[1,0.5,0],[1,0.75,0]];outlineConnect=0;fontColor=#232F3E;gradientColor=#FF4F8B;gradientDirection=north;fillColor=#BC1356;strokeColor=#ffffff;dashed=0;verticalLabelPosition=bottom;verticalAlign=top;align=center;html=1;fontSize=12;fontStyle=0;aspect=fixed;shape=mxgraph.aws4.resourceIcon;resIcon=mxgraph.aws4.api_gateway;shadow=0;fontFamily=Roboto;fontSource=https%3A%2F%2Ffonts.googleapis.com%2Fcss%3Ffamily%3DRoboto;" parent="to6_qT3kHKeevmy2Pyxd-1" vertex="1">
                    <mxGeometry x="190" y="198" width="78" height="78" as="geometry"/>
                </mxCell>
                <mxCell id="to6_qT3kHKeevmy2Pyxd-6" style="edgeStyle=orthogonalEdgeStyle;rounded=0;orthogonalLoop=1;jettySize=auto;html=1;strokeWidth=1;fontFamily=Roboto;fontSource=https%3A%2F%2Ffonts.googleapis.com%2Fcss%3Ffamily%3DRoboto;" parent="to6_qT3kHKeevmy2Pyxd-1" target="6qfYiCwbWeY1iS7v41xh-4" edge="1">
                    <mxGeometry relative="1" as="geometry">
                        <mxPoint x="612" y="276" as="sourcePoint"/>
                        <mxPoint x="613" y="311" as="targetPoint"/>
                    </mxGeometry>
                </mxCell>
                <mxCell id="to6_qT3kHKeevmy2Pyxd-8" style="edgeStyle=none;html=1;entryX=0;entryY=0.5;entryDx=0;entryDy=0;entryPerimeter=0;strokeColor=#000000;strokeWidth=1;fontFamily=Roboto;fontSource=https%3A%2F%2Ffonts.googleapis.com%2Fcss%3Ffamily%3DRoboto;" parent="to6_qT3kHKeevmy2Pyxd-1" source="to6_qT3kHKeevmy2Pyxd-9" target="to6_qT3kHKeevmy2Pyxd-5" edge="1">
                    <mxGeometry relative="1" as="geometry"/>
                </mxCell>
                <mxCell id="6qfYiCwbWeY1iS7v41xh-11" style="edgeStyle=orthogonalEdgeStyle;rounded=0;html=1;entryX=0;entryY=0.5;entryDx=0;entryDy=0;entryPerimeter=0;strokeWidth=1;fontFamily=Roboto;fontSource=https%3A%2F%2Ffonts.googleapis.com%2Fcss%3Ffamily%3DRoboto;" parent="to6_qT3kHKeevmy2Pyxd-1" source="to6_qT3kHKeevmy2Pyxd-9" target="6qfYiCwbWeY1iS7v41xh-10" edge="1">
                    <mxGeometry relative="1" as="geometry">
                        <Array as="points">
                            <mxPoint x="142" y="237"/>
                            <mxPoint x="142" y="381"/>
                        </Array>
                    </mxGeometry>
                </mxCell>
                <mxCell id="Rex1onu8GYFXPMX8R1UF-0" value="Authenticate" style="edgeLabel;html=1;align=center;verticalAlign=middle;resizable=0;points=[];fontSize=14;fontFamily=Roboto;fontColor=#000000;" parent="6qfYiCwbWeY1iS7v41xh-11" vertex="1" connectable="0">
                    <mxGeometry x="0.0247" y="-1" relative="1" as="geometry">
                        <mxPoint as="offset"/>
                    </mxGeometry>
                </mxCell>
                <mxCell id="to6_qT3kHKeevmy2Pyxd-9" value="" style="outlineConnect=0;fontColor=#232F3E;gradientColor=none;fillColor=#232F3E;strokeColor=none;dashed=0;verticalLabelPosition=bottom;verticalAlign=top;align=center;html=1;fontSize=12;fontStyle=0;aspect=fixed;pointerEvents=1;shape=mxgraph.aws4.users;fontFamily=Roboto;fontSource=https%3A%2F%2Ffonts.googleapis.com%2Fcss%3Ffamily%3DRoboto;" parent="to6_qT3kHKeevmy2Pyxd-1" vertex="1">
                    <mxGeometry x="40" y="198" width="78" height="78" as="geometry"/>
                </mxCell>
                <mxCell id="to6_qT3kHKeevmy2Pyxd-10" style="edgeStyle=orthogonalEdgeStyle;rounded=0;orthogonalLoop=1;jettySize=auto;html=1;strokeWidth=1;exitX=0.5;exitY=1;exitDx=0;exitDy=0;exitPerimeter=0;fontFamily=Roboto;fontSource=https%3A%2F%2Ffonts.googleapis.com%2Fcss%3Ffamily%3DRoboto;" parent="to6_qT3kHKeevmy2Pyxd-1" source="6qfYiCwbWeY1iS7v41xh-4" target="to6_qT3kHKeevmy2Pyxd-14" edge="1">
                    <mxGeometry relative="1" as="geometry">
                        <mxPoint x="612" y="357" as="sourcePoint"/>
                    </mxGeometry>
                </mxCell>
                <mxCell id="to6_qT3kHKeevmy2Pyxd-13" style="edgeStyle=orthogonalEdgeStyle;rounded=0;orthogonalLoop=1;jettySize=auto;html=1;strokeWidth=1;fontFamily=Roboto;fontSource=https%3A%2F%2Ffonts.googleapis.com%2Fcss%3Ffamily%3DRoboto;" parent="to6_qT3kHKeevmy2Pyxd-1" source="to6_qT3kHKeevmy2Pyxd-14" target="KL8XiQu-ZhEDjSY8oURb-0" edge="1">
                    <mxGeometry relative="1" as="geometry">
                        <mxPoint x="572" y="552" as="targetPoint"/>
                    </mxGeometry>
                </mxCell>
                <mxCell id="to6_qT3kHKeevmy2Pyxd-14" value="" style="points=[[0,0,0],[0.25,0,0],[0.5,0,0],[0.75,0,0],[1,0,0],[0,1,0],[0.25,1,0],[0.5,1,0],[0.75,1,0],[1,1,0],[0,0.25,0],[0,0.5,0],[0,0.75,0],[1,0.25,0],[1,0.5,0],[1,0.75,0]];outlineConnect=0;fontColor=#232F3E;gradientColor=#F78E04;gradientDirection=north;fillColor=#D05C17;strokeColor=#ffffff;dashed=0;verticalLabelPosition=bottom;verticalAlign=top;align=center;html=1;fontSize=12;fontStyle=0;aspect=fixed;shape=mxgraph.aws4.resourceIcon;resIcon=mxgraph.aws4.lambda;shadow=0;fontFamily=Roboto;fontSource=https%3A%2F%2Ffonts.googleapis.com%2Fcss%3Ffamily%3DRoboto;" parent="to6_qT3kHKeevmy2Pyxd-1" vertex="1">
                    <mxGeometry x="502" y="435" width="78" height="78" as="geometry"/>
                </mxCell>
                <mxCell id="to6_qT3kHKeevmy2Pyxd-15" value="GET by ID&lt;br&gt;GET all&lt;br&gt;POST&lt;br&gt;PUT&lt;br&gt;DELETE" style="edgeStyle=orthogonalEdgeStyle;rounded=0;orthogonalLoop=1;jettySize=auto;html=1;strokeWidth=1;fontFamily=Roboto;fontSource=https%3A%2F%2Ffonts.googleapis.com%2Fcss%3Ffamily%3DRoboto;" parent="to6_qT3kHKeevmy2Pyxd-1" source="to6_qT3kHKeevmy2Pyxd-18" target="to6_qT3kHKeevmy2Pyxd-22" edge="1">
                    <mxGeometry relative="1" as="geometry">
                        <mxPoint x="573" y="237" as="targetPoint"/>
                    </mxGeometry>
                </mxCell>
                <mxCell id="to6_qT3kHKeevmy2Pyxd-16" value="GET by query" style="edgeStyle=orthogonalEdgeStyle;rounded=0;orthogonalLoop=1;jettySize=auto;html=1;strokeWidth=1;entryX=-0.007;entryY=0.587;entryDx=0;entryDy=0;entryPerimeter=0;fontFamily=Roboto;fontSource=https%3A%2F%2Ffonts.googleapis.com%2Fcss%3Ffamily%3DRoboto;" parent="to6_qT3kHKeevmy2Pyxd-1" source="to6_qT3kHKeevmy2Pyxd-18" target="KL8XiQu-ZhEDjSY8oURb-0" edge="1">
                    <mxGeometry relative="1" as="geometry">
                        <Array as="points"/>
                        <mxPoint x="532" y="581" as="targetPoint"/>
                    </mxGeometry>
                </mxCell>
                <mxCell id="to6_qT3kHKeevmy2Pyxd-17" value="logs" style="edgeStyle=orthogonalEdgeStyle;rounded=0;orthogonalLoop=1;jettySize=auto;html=1;entryX=0.5;entryY=0;entryDx=0;entryDy=0;strokeWidth=1;fontFamily=Roboto;fontSource=https%3A%2F%2Ffonts.googleapis.com%2Fcss%3Ffamily%3DRoboto;" parent="to6_qT3kHKeevmy2Pyxd-1" source="to6_qT3kHKeevmy2Pyxd-18" target="to6_qT3kHKeevmy2Pyxd-12" edge="1">
                    <mxGeometry relative="1" as="geometry">
                        <Array as="points">
                            <mxPoint x="384" y="142"/>
                            <mxPoint x="749" y="142"/>
                        </Array>
                    </mxGeometry>
                </mxCell>
                <mxCell id="to6_qT3kHKeevmy2Pyxd-18" value="Lambda Functions" style="points=[[0,0,0],[0.25,0,0],[0.5,0,0],[0.75,0,0],[1,0,0],[0,1,0],[0.25,1,0],[0.5,1,0],[0.75,1,0],[1,1,0],[0,0.25,0],[0,0.5,0],[0,0.75,0],[1,0.25,0],[1,0.5,0],[1,0.75,0]];outlineConnect=0;fontColor=#232F3E;gradientColor=#F78E04;gradientDirection=north;fillColor=#D05C17;strokeColor=#ffffff;dashed=0;verticalLabelPosition=bottom;verticalAlign=top;align=center;html=1;fontSize=12;fontStyle=0;aspect=fixed;shape=mxgraph.aws4.resourceIcon;resIcon=mxgraph.aws4.lambda;shadow=0;fontFamily=Roboto;fontSource=https%3A%2F%2Ffonts.googleapis.com%2Fcss%3Ffamily%3DRoboto;" parent="to6_qT3kHKeevmy2Pyxd-1" vertex="1">
                    <mxGeometry x="337" y="198" width="78" height="78" as="geometry"/>
                </mxCell>
                <mxCell id="to6_qT3kHKeevmy2Pyxd-19" value="logs" style="edgeStyle=orthogonalEdgeStyle;rounded=0;orthogonalLoop=1;jettySize=auto;html=1;strokeWidth=1;entryX=0.5;entryY=1;entryDx=0;entryDy=0;exitX=1;exitY=0.5;exitDx=0;exitDy=0;exitPerimeter=0;fontFamily=Roboto;fontSource=https%3A%2F%2Ffonts.googleapis.com%2Fcss%3Ffamily%3DRoboto;" parent="to6_qT3kHKeevmy2Pyxd-1" source="6qfYiCwbWeY1iS7v41xh-6" target="to6_qT3kHKeevmy2Pyxd-12" edge="1">
                    <mxGeometry relative="1" as="geometry">
                        <mxPoint x="386" y="286" as="sourcePoint"/>
                        <mxPoint x="505" y="626" as="targetPoint"/>
                        <Array as="points"/>
                    </mxGeometry>
                </mxCell>
                <mxCell id="to6_qT3kHKeevmy2Pyxd-22" value="&lt;span style=&quot;background-color: rgb(255 , 255 , 255)&quot;&gt;DocumentDB / MongoDB&lt;/span&gt;" style="sketch=0;points=[[0,0,0],[0.25,0,0],[0.5,0,0],[0.75,0,0],[1,0,0],[0,1,0],[0.25,1,0],[0.5,1,0],[0.75,1,0],[1,1,0],[0,0.25,0],[0,0.5,0],[0,0.75,0],[1,0.25,0],[1,0.5,0],[1,0.75,0]];outlineConnect=0;fontColor=#232F3E;gradientColor=#4D72F3;gradientDirection=north;fillColor=#3334B9;strokeColor=#ffffff;dashed=0;verticalLabelPosition=bottom;verticalAlign=top;align=center;html=1;fontSize=12;fontStyle=0;aspect=fixed;shape=mxgraph.aws4.resourceIcon;resIcon=mxgraph.aws4.documentdb_with_mongodb_compatibility;fontFamily=Roboto;fontSource=https%3A%2F%2Ffonts.googleapis.com%2Fcss%3Ffamily%3DRoboto;" parent="to6_qT3kHKeevmy2Pyxd-1" vertex="1">
                    <mxGeometry x="574" y="196" width="78" height="78" as="geometry"/>
                </mxCell>
                <mxCell id="6qfYiCwbWeY1iS7v41xh-9" style="edgeStyle=orthogonalEdgeStyle;html=1;entryX=0.5;entryY=0;entryDx=0;entryDy=0;entryPerimeter=0;strokeWidth=1;rounded=0;fontFamily=Roboto;fontSource=https%3A%2F%2Ffonts.googleapis.com%2Fcss%3Ffamily%3DRoboto;" parent="to6_qT3kHKeevmy2Pyxd-1" source="6qfYiCwbWeY1iS7v41xh-4" target="6qfYiCwbWeY1iS7v41xh-6" edge="1">
                    <mxGeometry relative="1" as="geometry"/>
                </mxCell>
                <mxCell id="6qfYiCwbWeY1iS7v41xh-12" style="edgeStyle=orthogonalEdgeStyle;rounded=0;html=1;exitX=1;exitY=0.5;exitDx=0;exitDy=0;exitPerimeter=0;strokeWidth=1;fontFamily=Roboto;fontSource=https%3A%2F%2Ffonts.googleapis.com%2Fcss%3Ffamily%3DRoboto;" parent="to6_qT3kHKeevmy2Pyxd-1" source="6qfYiCwbWeY1iS7v41xh-4" target="to6_qT3kHKeevmy2Pyxd-12" edge="1">
                    <mxGeometry relative="1" as="geometry"/>
                </mxCell>
                <mxCell id="6qfYiCwbWeY1iS7v41xh-4" value="&lt;span style=&quot;background-color: rgb(255 , 255 , 255)&quot;&gt;Kinesis Stream&lt;/span&gt;" style="sketch=0;points=[[0,0,0],[0.25,0,0],[0.5,0,0],[0.75,0,0],[1,0,0],[0,1,0],[0.25,1,0],[0.5,1,0],[0.75,1,0],[1,1,0],[0,0.25,0],[0,0.5,0],[0,0.75,0],[1,0.25,0],[1,0.5,0],[1,0.75,0]];outlineConnect=0;fontColor=#232F3E;gradientColor=#945DF2;gradientDirection=north;fillColor=#5A30B5;strokeColor=#ffffff;dashed=0;verticalLabelPosition=bottom;verticalAlign=top;align=center;html=1;fontSize=12;fontStyle=0;aspect=fixed;shape=mxgraph.aws4.resourceIcon;resIcon=mxgraph.aws4.kinesis_data_streams;fontFamily=Roboto;fontSource=https%3A%2F%2Ffonts.googleapis.com%2Fcss%3Ffamily%3DRoboto;" parent="to6_qT3kHKeevmy2Pyxd-1" vertex="1">
                    <mxGeometry x="573" y="304" width="78" height="78" as="geometry"/>
                </mxCell>
                <mxCell id="6qfYiCwbWeY1iS7v41xh-8" style="edgeStyle=none;html=1;entryX=0.5;entryY=0;entryDx=0;entryDy=0;entryPerimeter=0;strokeWidth=1;fontFamily=Roboto;fontSource=https%3A%2F%2Ffonts.googleapis.com%2Fcss%3Ffamily%3DRoboto;" parent="to6_qT3kHKeevmy2Pyxd-1" source="6qfYiCwbWeY1iS7v41xh-6" target="6qfYiCwbWeY1iS7v41xh-7" edge="1">
                    <mxGeometry relative="1" as="geometry"/>
                </mxCell>
                <mxCell id="6qfYiCwbWeY1iS7v41xh-6" value="" style="points=[[0,0,0],[0.25,0,0],[0.5,0,0],[0.75,0,0],[1,0,0],[0,1,0],[0.25,1,0],[0.5,1,0],[0.75,1,0],[1,1,0],[0,0.25,0],[0,0.5,0],[0,0.75,0],[1,0.25,0],[1,0.5,0],[1,0.75,0]];outlineConnect=0;fontColor=#232F3E;gradientColor=#F78E04;gradientDirection=north;fillColor=#D05C17;strokeColor=#ffffff;dashed=0;verticalLabelPosition=bottom;verticalAlign=top;align=center;html=1;fontSize=12;fontStyle=0;aspect=fixed;shape=mxgraph.aws4.resourceIcon;resIcon=mxgraph.aws4.lambda;shadow=0;fontFamily=Roboto;fontSource=https%3A%2F%2Ffonts.googleapis.com%2Fcss%3Ffamily%3DRoboto;" parent="to6_qT3kHKeevmy2Pyxd-1" vertex="1">
                    <mxGeometry x="651" y="435" width="78" height="78" as="geometry"/>
                </mxCell>
                <mxCell id="6qfYiCwbWeY1iS7v41xh-7" value="S3" style="sketch=0;points=[[0,0,0],[0.25,0,0],[0.5,0,0],[0.75,0,0],[1,0,0],[0,1,0],[0.25,1,0],[0.5,1,0],[0.75,1,0],[1,1,0],[0,0.25,0],[0,0.5,0],[0,0.75,0],[1,0.25,0],[1,0.5,0],[1,0.75,0]];outlineConnect=0;fontColor=#232F3E;gradientColor=#60A337;gradientDirection=north;fillColor=#277116;strokeColor=#ffffff;dashed=0;verticalLabelPosition=bottom;verticalAlign=top;align=center;html=1;fontSize=12;fontStyle=0;aspect=fixed;shape=mxgraph.aws4.resourceIcon;resIcon=mxgraph.aws4.s3;fontFamily=Roboto;fontSource=https%3A%2F%2Ffonts.googleapis.com%2Fcss%3Ffamily%3DRoboto;" parent="to6_qT3kHKeevmy2Pyxd-1" vertex="1">
                    <mxGeometry x="652" y="552" width="78" height="78" as="geometry"/>
                </mxCell>
                <mxCell id="6qfYiCwbWeY1iS7v41xh-10" value="Cognito" style="sketch=0;points=[[0,0,0],[0.25,0,0],[0.5,0,0],[0.75,0,0],[1,0,0],[0,1,0],[0.25,1,0],[0.5,1,0],[0.75,1,0],[1,1,0],[0,0.25,0],[0,0.5,0],[0,0.75,0],[1,0.25,0],[1,0.5,0],[1,0.75,0]];outlineConnect=0;fontColor=#232F3E;gradientColor=#F54749;gradientDirection=north;fillColor=#C7131F;strokeColor=#ffffff;dashed=0;verticalLabelPosition=bottom;verticalAlign=top;align=center;html=1;fontSize=12;fontStyle=0;aspect=fixed;shape=mxgraph.aws4.resourceIcon;resIcon=mxgraph.aws4.cognito;fontFamily=Roboto;fontSource=https%3A%2F%2Ffonts.googleapis.com%2Fcss%3Ffamily%3DRoboto;" parent="to6_qT3kHKeevmy2Pyxd-1" vertex="1">
                    <mxGeometry x="190" y="342" width="78" height="78" as="geometry"/>
                </mxCell>
                <mxCell id="KL8XiQu-ZhEDjSY8oURb-0" value="OpenSearch" style="shape=image;verticalLabelPosition=bottom;labelBackgroundColor=#ffffff;verticalAlign=top;aspect=fixed;imageAspect=0;image=data:image/svg+xml,PHN2ZyB4bWxucz0iaHR0cDovL3d3dy53My5vcmcvMjAwMC9zdmciIHZpZXdCb3g9Ii00Ljc2ODM3MTU4MjAzMTI1ZS03IDAgNjQgNjQiIGZpbGw9Im5vbmUiIHdpZHRoPSI2NCIgaGVpZ2h0PSI2NCI+CjxwYXRoIGQ9Ik02MS43Mzc0IDIzLjVDNjAuNDg3OCAyMy41IDU5LjQ3NDggMjQuNTEzIDU5LjQ3NDggMjUuNzYyNkM1OS40NzQ4IDQ0LjM4MTMgNDQuMzgxNCA1OS40NzQ4IDI1Ljc2MjYgNTkuNDc0OEMyNC41MTMgNTkuNDc0OCAyMy41IDYwLjQ4NzggMjMuNSA2MS43Mzc0QzIzLjUgNjIuOTg3IDI0LjUxMyA2NCAyNS43NjI2IDY0QzQ2Ljg4MDUgNjQgNjQgNDYuODgwNSA2NCAyNS43NjI2QzY0IDI0LjUxMyA2Mi45ODcgMjMuNSA2MS43Mzc0IDIzLjVaIiBmaWxsPSIjMDBBM0UwIi8+CjxwYXRoIGQ9Ik00OC4wODE0IDM4QzUwLjI1NzIgMzQuNDUwNSA1Mi4zNjE1IDI5LjcxNzggNTEuOTQ3NSAyMy4wOTIxQzUxLjA4OTkgOS4zNjcyNSAzOC42NTg5IC0xLjA0NDYzIDI2LjkyMDYgMC4wODM3MzI3QzIyLjMyNTMgMC41MjU0NjUgMTcuNjA2OCA0LjI3MTIgMTguMDI2IDEwLjk4MDVDMTguMjA4MiAxMy44OTYxIDE5LjYzNTIgMTUuNjE2OSAyMS45NTQ0IDE2LjkzOTlDMjQuMTYxOCAxOC4xOTkyIDI2Ljk5NzggMTguOTk2OSAzMC4yMTI4IDE5LjkwMTFDMzQuMDk2MiAyMC45OTM0IDM4LjYwMDkgMjIuMjIwMyA0Mi4wNjMxIDI0Ljc3MTdDNDYuMjEyNSAyNy44Mjk1IDQ5LjA0OTEgMzEuMzc0MyA0OC4wODE0IDM4WiIgZmlsbD0iI0I5RDlFQiIvPgo8cGF0aCBkPSJNMy45MTg2MSAxNEMxLjc0Mjc2IDE3LjU0OTUgLTAuMzYxNTA2IDIyLjI4MjIgMC4wNTI0OTMxIDI4LjkwNzlDMC45MTAwNzIgNDIuNjMyNyAxMy4zNDExIDUzLjA0NDYgMjUuMDc5NCA1MS45MTYzQzI5LjY3NDcgNTEuNDc0NSAzNC4zOTMyIDQ3LjcyODggMzMuOTc0IDQxLjAxOTVDMzMuNzkxOCAzOC4xMDM5IDMyLjM2NDcgMzYuMzgzMSAzMC4wNDU2IDM1LjA2MDFDMjcuODM4MiAzMy44MDA4IDI1LjAwMjIgMzMuMDAzMSAyMS43ODcyIDMyLjA5ODlDMTcuOTAzOCAzMS4wMDY2IDEzLjM5OTEgMjkuNzc5NyA5LjkzNjk1IDI3LjIyODNDNS43ODc0NyAyNC4xNzA0IDIuOTUwOTIgMjAuNjI1NyAzLjkxODYxIDE0WiIgZmlsbD0iIzAwQTNFMCIvPgo8L3N2Zz4=;container=1;fontFamily=Roboto;fontSource=https%3A%2F%2Ffonts.googleapis.com%2Fcss%3Ffamily%3DRoboto;" parent="to6_qT3kHKeevmy2Pyxd-1" vertex="1">
                    <mxGeometry x="503.5" y="555" width="75" height="75" as="geometry"/>
                </mxCell>
                <mxCell id="Ocx449QtYvaG5GexPVfG-1" value="" style="whiteSpace=wrap;html=1;aspect=fixed;labelBackgroundColor=#FFFFFF;labelBorderColor=none;fontFamily=Roboto;fontSource=https%3A%2F%2Ffonts.googleapis.com%2Fcss%3Ffamily%3DRoboto;fontSize=14;strokeColor=none;opacity=80;" parent="KL8XiQu-ZhEDjSY8oURb-0" vertex="1">
                    <mxGeometry x="-1.5" y="-1" width="76" height="76" as="geometry"/>
                </mxCell>
                <mxCell id="to6_qT3kHKeevmy2Pyxd-12" value="CloudWatch" style="shape=image;verticalLabelPosition=bottom;labelBackgroundColor=#FFFFFF;verticalAlign=top;aspect=fixed;imageAspect=0;image=data:image/svg+xml,PHN2ZyB4bWxucz0iaHR0cDovL3d3dy53My5vcmcvMjAwMC9zdmciIHhtbG5zOnhsaW5rPSJodHRwOi8vd3d3LnczLm9yZy8xOTk5L3hsaW5rIiB3aWR0aD0iNDAiIGhlaWdodD0iNDAiIHZpZXdCb3g9IjAgMCA0MCA0MCIgdmVyc2lvbj0iMS4xIj4KICAgIDwhLS0gR2VuZXJhdG9yOiBTa2V0Y2ggNjQgKDkzNTM3KSAtIGh0dHBzOi8vc2tldGNoLmNvbSAtLT4KICAgIDx0aXRsZT5JY29uLUFyY2hpdGVjdHVyZS8zMi9BcmNoX0FtYXpvbi1DbG91ZFdhdGNoXzMyPC90aXRsZT4KICAgIDxkZXNjPkNyZWF0ZWQgd2l0aCBTa2V0Y2guPC9kZXNjPgogICAgPGRlZnM+CiAgICAgICAgPGxpbmVhckdyYWRpZW50IHgxPSIwJSIgeTE9IjEwMCUiIHgyPSIxMDAlIiB5Mj0iMCUiIGlkPSJsaW5lYXJHcmFkaWVudC0xIj4KICAgICAgICAgICAgPHN0b3Agc3RvcC1jb2xvcj0iI0IwMDg0RCIgb2Zmc2V0PSIwJSIvPgogICAgICAgICAgICA8c3RvcCBzdG9wLWNvbG9yPSIjRkY0RjhCIiBvZmZzZXQ9IjEwMCUiLz4KICAgICAgICA8L2xpbmVhckdyYWRpZW50PgogICAgPC9kZWZzPgogICAgPGcgaWQ9Ikljb24tQXJjaGl0ZWN0dXJlLzMyL0FyY2hfQW1hem9uLUNsb3VkV2F0Y2hfMzIiIHN0cm9rZT0ibm9uZSIgc3Ryb2tlLXdpZHRoPSIxIiBmaWxsPSJub25lIiBmaWxsLXJ1bGU9ImV2ZW5vZGQiPgogICAgICAgIDxnIGlkPSJJY29uLUFyY2hpdGVjdHVyZS1CRy8zMi9NYW5hZ2VtZW50LUdvdmVybmFuY2UiIGZpbGw9InVybCgjbGluZWFyR3JhZGllbnQtMSkiPgogICAgICAgICAgICA8cmVjdCBpZD0iUmVjdGFuZ2xlIiB4PSIwIiB5PSIwIiB3aWR0aD0iNDAiIGhlaWdodD0iNDAiLz4KICAgICAgICA8L2c+CiAgICAgICAgPHBhdGggZD0iTTI3LjYyOTk4NDQsMjQuMTI0MzQxOSBDMjcuNjI5OTg0NCwyMi4yMjA3OTQ4IDI2LjA0OTkwNDYsMjAuNjcyMzEzNSAyNC4xMDc1MTM0LDIwLjY3MjMxMzUgQzIyLjE2NTEyMjMsMjAuNjcyMzEzNSAyMC41ODUwNDI1LDIyLjIyMDc5NDggMjAuNTg1MDQyNSwyNC4xMjQzNDE5IEMyMC41ODUwNDI1LDI2LjAyNzg4OSAyMi4xNjUxMjIzLDI3LjU3NjM3MDMgMjQuMTA3NTEzNCwyNy41NzYzNzAzIEMyNi4wNDk5MDQ2LDI3LjU3NjM3MDMgMjcuNjI5OTg0NCwyNi4wMjc4ODkgMjcuNjI5OTg0NCwyNC4xMjQzNDE5IEwyNy42Mjk5ODQ0LDI0LjEyNDM0MTkgWiBNMjguNjM2NDA0NywyNC4xMjQzNDE5IEMyOC42MzY0MDQ3LDI2LjU3MTMzNjkgMjYuNjA0NDQyMSwyOC41NjI2NjQxIDI0LjEwNzUxMzQsMjguNTYyNjY0MSBDMjEuNjEwNTg0OCwyOC41NjI2NjQxIDE5LjU3ODYyMjIsMjYuNTcxMzM2OSAxOS41Nzg2MjIyLDI0LjEyNDM0MTkgQzE5LjU3ODYyMjIsMjEuNjc3MzQ2OSAyMS42MTA1ODQ4LDE5LjY4NjAxOTcgMjQuMTA3NTEzNCwxOS42ODYwMTk3IEMyNi42MDQ0NDIxLDE5LjY4NjAxOTcgMjguNjM2NDA0NywyMS42NzczNDY5IDI4LjYzNjQwNDcsMjQuMTI0MzQxOSBMMjguNjM2NDA0NywyNC4xMjQzNDE5IFogTTMyLjkxMTY3NzksMzAuNzAyOTIxNyBMMjkuNTI1MDczNywyNy43MTM0NjUxIEMyOS4yMzYyMzExLDI4LjEzMDY2NzQgMjguODk1MDU0NywyOC41MDY0NDUzIDI4LjUxNjY0MDYsMjguODQ1NzMwNCBMMzEuODg0MTIyOSwzMS44MjIzNjUyIEMzMi4yMDAxMzg4LDMyLjA5OTUxMzcgMzIuNjg2MjM5OCwzMi4wNzM4NzAxIDMyLjk2OTA0MzksMzEuNzY2MTQ2NCBDMzMuMjUwODQxNiwzMS40NTk0MDkgMzMuMjI1NjgxMSwzMC45ODEwNTY1IDMyLjkxMTY3NzksMzAuNzAyOTIxNyBMMzIuOTExNjc3OSwzMC43MDI5MjE3IFogTTI0LjEwNzUxMzQsMjkuNTQ4OTU3OSBDMjcuMTU4OTc5NywyOS41NDg5NTc5IDI5LjY0MjgyNDksMjcuMTE1NzcxMSAyOS42NDI4MjQ5LDI0LjEyNDM0MTkgQzI5LjY0MjgyNDksMjEuMTMyOTEyNyAyNy4xNTg5Nzk3LDE4LjY5OTcyNTkgMjQuMTA3NTEzNCwxOC42OTk3MjU5IEMyMS4wNTYwNDcyLDE4LjY5OTcyNTkgMTguNTcyMjAyLDIxLjEzMjkxMjcgMTguNTcyMjAyLDI0LjEyNDM0MTkgQzE4LjU3MjIwMiwyNy4xMTU3NzExIDIxLjA1NjA0NzIsMjkuNTQ4OTU3OSAyNC4xMDc1MTM0LDI5LjU0ODk1NzkgTDI0LjEwNzUxMzQsMjkuNTQ4OTU3OSBaIE0zMy41ODU5Nzk1LDI5Ljk3MTA5MTcgQzM0LjMxMDYwMjEsMzAuNjEzMTY4OSAzNC4zNjg5NzQ1LDMxLjcxMzg3MjkgMzMuNzE2ODE0MiwzMi40MjU5NzcgQzMzLjM2NTU3MzUsMzIuODA2Njg2NCAzMi44ODI0OTE4LDMzIDMyLjM5NjM5MDgsMzMgQzMxLjk3MjY4NzgsMzMgMzEuNTQ4OTg0OSwzMi44NTMwNDIyIDMxLjIxMDgyNzcsMzIuNTU1MTgxNSBMMjcuNzE2NTM2NSwyOS40NjYxMDkyIEMyNi42ODA5MzAxLDMwLjE0MDczNDIgMjUuNDQxMDIwMywzMC41MzUyNTE3IDI0LjEwNzUxMzQsMzAuNTM1MjUxNyBDMjAuNTAwNTAzMiwzMC41MzUyNTE3IDE3LjU2NTc4MTcsMjcuNjU5MjE4OSAxNy41NjU3ODE3LDI0LjEyNDM0MTkgQzE3LjU2NTc4MTcsMjAuNTg5NDY0OCAyMC41MDA1MDMyLDE3LjcxMzQzMiAyNC4xMDc1MTM0LDE3LjcxMzQzMiBDMjcuNzE0NTIzNywxNy43MTM0MzIgMzAuNjQ5MjQ1MiwyMC41ODk0NjQ4IDMwLjY0OTI0NTIsMjQuMTI0MzQxOSBDMzAuNjQ5MjQ1MiwyNS4wOTE4OTYxIDMwLjQyMjgwMDYsMjYuMDA3MTc2OCAzMC4wMjkyOTAzLDI2LjgzMDczMjEgTDMzLjU4NTk3OTUsMjkuOTcxMDkxNyBaIE0xMC41OTIyOTU3LDI0LjYxNzQ4ODggTDE1LjU1Mjk0MTIsMjQuNjE3NDg4OCBMMTUuNTUyOTQxMiwyNS42MDM3ODI2IEwxMC41ODYyNTcyLDI1LjYwMzc4MjYgQzEwLjAyODcwMDMsMjUuNTk3ODY0OSA5LjQyOTg4MDI3LDI1LjM5NzY0NzIgOC43OTk4NjExOCwyNS4wMDgwNjExIEM3Ljc1NjIwMzM3LDI0LjM3Mzg3NDIgNiwyMi44ODA2MjU0IDYsMjAuMDM1MTY3NyBDNiwxNi41OTMwMDIyIDguNDEwMzc2NTQsMTUuMzI4NTczNiA5LjgxMjMxOTk3LDE0Ljg4NDc0MTMgQzkuODAxMjQ5MzUsMTQuNzIyMDAyOSA5Ljc5NjIxNzI1LDE0LjU1NzI5MTggOS43OTYyMTcyNSwxNC4zOTI1ODA3IEM5Ljc5NjIxNzI1LDExLjU4ODU0NzQgMTEuNzM3NjAxOSw4LjY3ODk4MDYxIDE0LjMxMTAxODYsNy42Mjc1OTEzOSBDMTcuMzI0MjQwOCw2LjM5MDc3ODk0IDIwLjUxMzU4NjcsNy4wMDUyMzk5OSAyMi44NDI0NDMyLDkuMjY1ODI1NDQgQzIzLjU3MTA5MTQsOS45NzI5OTgxMSAyNC4xNjk5MTE1LDEwLjgzMjA2IDI0LjYyNzgzMjcsMTEuODI5MjAzMSBDMjUuMjQxNzQ5MSwxMS4zMjIyNDgxIDI2LjAwMjYwMjgsMTEuMDQyMTQwNiAyNi44MDQ3MTk4LDExLjA0MjE0MDYgQzI4LjM2NTY3NzYsMTEuMDQyMTQwNiAzMC4xMjM4OTM4LDEyLjIwNjk1MzYgMzAuNDMwODUyLDE0Ljc1NDU1MDYgQzMxLjg4NzE0MjEsMTUuMDgxMDEzOCAzNSwxNi4yMzAwNDYxIDM1LDIwLjA3NTYwNTcgQzM1LDIxLjcyNzY0NzkgMzQuNDMzMzg1NCwyMy4wNjUwNjIzIDMzLjMxMzIzOTYsMjQuMDQ3NDExIEwzMi42NDA5NTA5LDIzLjMxMzYwODQgQzMzLjUzODY3NzgsMjIuNTI1NTU5NiAzMy45OTM1Nzk3LDIxLjQzNTcwNDkgMzMuOTkzNTc5NywyMC4wNzU2MDU3IEMzMy45OTM1Nzk3LDE2LjY5MzYwNDIgMzEuMTA2MTYsMTUuODUzMjgxOSAyOS44NjQyMzc0LDE1LjY0OTExOTEgQzI5LjcyOTM3NzEsMTUuNjI3NDIwNiAyOS42MTA2MTk1LDE1LjU1MjQ2MjMgMjkuNTMzMTI1MSwxNS40NDE5OTc0IEMyOS40NTQ2MjQzLDE1LjMzMTUzMjQgMjkuNDI3NDUxLDE1LjE5NTQyMzkgMjkuNDUzNjE3OSwxNS4wNjQyNDY4IEMyOS4zMDY2ODA1LDEyLjk5MDA3MDkgMjguMDE2NDQ5OCwxMi4wMjg0MzQ0IDI2LjgwNDcxOTgsMTIuMDI4NDM0NCBDMjYuMDQ3ODkxNywxMi4wMjg0MzQ0IDI1LjMzODM2NTQsMTIuMzg5NDE4IDI0Ljg1NzI5NjUsMTMuMDE4NjczNCBDMjQuNzQ3NTk2NywxMy4xNjQ2NDQ5IDI0LjU2MjQxNTQsMTMuMjM1NjU4MSAyNC4zODAyNTMzLDEzLjIxMTk4NyBDMjQuMTk4MDkxMywxMy4xODUzNTcxIDI0LjA0NDEwOSwxMy4wNjIwNzA0IDIzLjk4MTcxMDksMTIuODkxNDQxNSBDMjMuNTQ4OTUwMiwxMS43MTk3MjQ1IDIyLjkyNzk4ODksMTAuNzM2Mzg5NSAyMi4xMzQ5Mjk3LDkuOTY3MDgwMzQgQzIwLjEwMjk2NzIsNy45OTQ0OTI3IDE3LjMyMzIzNDQsNy40NTg5MzUxNSAxNC42OTg0OTA0LDguNTM3OTQwNTkgQzEyLjUxMzU1Miw5LjQzMDUzNjUgMTAuODAyNjM3NSwxMi4wMDE4MDQ1IDEwLjgwMjYzNzUsMTQuMzkyNTgwNyBDMTAuODAyNjM3NSwxNC42NjA4NTI2IDEwLjgxODc0MDIsMTQuOTI5MTI0NiAxMC44NTA5NDU3LDE1LjE4NjU0NzMgQzEwLjg2OTA2MTMsMTUuMzI2NjAxIDEwLjgyNDc3ODgsMTUuNDY3NjQxIDEwLjcyOTE2ODgsMTUuNTc0MTYwNyBDMTAuNjUyNjgwOSwxNS42NTg5ODIgMTAuNTUwMDI2LDE1LjcxNDIxNDUgMTAuNDM4MzEzNCwxNS43MzM5NDAzIEM5LjE0MjA0NDA3LDE2LjA2MTM4OTkgNy4wMDY0MjAyNywxNy4wNTM2MDE1IDcuMDA2NDIwMjcsMjAuMDM1MTY3NyBDNy4wMDY0MjAyNywyMi4yODQ5MDM5IDguMjcyNDk2OTYsMjMuNTI2NjQ3OCA5LjMzMzI2MzkzLDI0LjE3MjY3MDMgQzkuODA2MjgxNDUsMjQuNDY0NjEzMyAxMC4yMjg5NzgsMjQuNjEzNTQzNiAxMC41OTIyOTU3LDI0LjYxNzQ4ODggTDEwLjU5MjI5NTcsMjQuNjE3NDg4OCBaIiBpZD0iQW1hem9uLUNsb3VkV2F0Y2hfSWNvbl8zMl9TcXVpZCIgZmlsbD0iI0ZGRkZGRiIvPgogICAgPC9nPgo8L3N2Zz4=;fontFamily=Roboto;fontSource=https%3A%2F%2Ffonts.googleapis.com%2Fcss%3Ffamily%3DRoboto;" parent="to6_qT3kHKeevmy2Pyxd-1" vertex="1">
                    <mxGeometry x="710" y="162" width="77" height="77" as="geometry"/>
                </mxCell>
                <mxCell id="Ocx449QtYvaG5GexPVfG-0" value="" style="whiteSpace=wrap;html=1;aspect=fixed;labelBackgroundColor=#FFFFFF;labelBorderColor=none;fontFamily=Roboto;fontSource=https%3A%2F%2Ffonts.googleapis.com%2Fcss%3Ffamily%3DRoboto;fontSize=14;strokeColor=none;opacity=80;" parent="to6_qT3kHKeevmy2Pyxd-1" vertex="1">
                    <mxGeometry x="501" y="435" width="79" height="79" as="geometry"/>
                </mxCell>
                <mxCell id="Ocx449QtYvaG5GexPVfG-2" value="" style="whiteSpace=wrap;html=1;aspect=fixed;labelBackgroundColor=#FFFFFF;labelBorderColor=none;fontFamily=Roboto;fontSource=https%3A%2F%2Ffonts.googleapis.com%2Fcss%3Ffamily%3DRoboto;fontSize=14;strokeColor=none;opacity=80;" parent="to6_qT3kHKeevmy2Pyxd-1" vertex="1">
                    <mxGeometry x="336" y="198" width="79" height="79" as="geometry"/>
                </mxCell>
                <mxCell id="Ocx449QtYvaG5GexPVfG-3" value="" style="whiteSpace=wrap;html=1;aspect=fixed;labelBackgroundColor=#FFFFFF;labelBorderColor=none;fontFamily=Roboto;fontSource=https%3A%2F%2Ffonts.googleapis.com%2Fcss%3Ffamily%3DRoboto;fontSize=14;strokeColor=none;opacity=80;" parent="to6_qT3kHKeevmy2Pyxd-1" vertex="1">
                    <mxGeometry x="189" y="198" width="79" height="79" as="geometry"/>
                </mxCell>
                <mxCell id="Ocx449QtYvaG5GexPVfG-4" value="" style="whiteSpace=wrap;html=1;aspect=fixed;labelBackgroundColor=#FFFFFF;labelBorderColor=none;fontFamily=Roboto;fontSource=https%3A%2F%2Ffonts.googleapis.com%2Fcss%3Ffamily%3DRoboto;fontSize=14;strokeColor=none;opacity=80;" parent="to6_qT3kHKeevmy2Pyxd-1" vertex="1">
                    <mxGeometry x="710" y="162" width="78" height="78" as="geometry"/>
                </mxCell>
            </root>
        </mxGraphModel>
    </diagram>
    <diagram id="gsMHDRsmVCzmyubLqFUO" name="Referential integrity">
        <mxGraphModel dx="1288" dy="861" grid="0" gridSize="10" guides="1" tooltips="1" connect="1" arrows="1" fold="1" page="1" pageScale="1" pageWidth="850" pageHeight="1100" math="0" shadow="0">
            <root>
                <mxCell id="5s9E8lW04ORULl4_QQNw-0"/>
                <mxCell id="5s9E8lW04ORULl4_QQNw-1" parent="5s9E8lW04ORULl4_QQNw-0"/>
                <mxCell id="5s9E8lW04ORULl4_QQNw-2" value="EducationOrganizationCategoryDescriptor" style="rounded=1;arcSize=10;whiteSpace=wrap;html=1;align=center;" parent="5s9E8lW04ORULl4_QQNw-1" vertex="1">
                    <mxGeometry x="19" y="65" width="250" height="40" as="geometry"/>
                </mxCell>
                <mxCell id="5s9E8lW04ORULl4_QQNw-3" value="SchoolCategoryDescriptor" style="rounded=1;arcSize=10;whiteSpace=wrap;html=1;align=center;" parent="5s9E8lW04ORULl4_QQNw-1" vertex="1">
                    <mxGeometry x="99" y="145" width="170" height="40" as="geometry"/>
                </mxCell>
                <mxCell id="5s9E8lW04ORULl4_QQNw-4" value="School" style="rounded=1;arcSize=10;whiteSpace=wrap;html=1;align=center;" parent="5s9E8lW04ORULl4_QQNw-1" vertex="1">
                    <mxGeometry x="350" y="100" width="90" height="40" as="geometry"/>
                </mxCell>
                <mxCell id="5s9E8lW04ORULl4_QQNw-8" style="rounded=0;orthogonalLoop=1;jettySize=auto;html=1;strokeWidth=1;" parent="5s9E8lW04ORULl4_QQNw-1" source="5s9E8lW04ORULl4_QQNw-5" target="5s9E8lW04ORULl4_QQNw-4" edge="1">
                    <mxGeometry relative="1" as="geometry"/>
                </mxCell>
                <mxCell id="MLwJjm-CX4ozU2iMBaIM-2" value="belongs to" style="edgeLabel;html=1;align=center;verticalAlign=middle;resizable=0;points=[];" parent="5s9E8lW04ORULl4_QQNw-8" vertex="1" connectable="0">
                    <mxGeometry x="-0.4667" y="-1" relative="1" as="geometry">
                        <mxPoint x="-16" as="offset"/>
                    </mxGeometry>
                </mxCell>
                <mxCell id="5s9E8lW04ORULl4_QQNw-5" value="Course" style="rounded=1;arcSize=10;whiteSpace=wrap;html=1;align=center;" parent="5s9E8lW04ORULl4_QQNw-1" vertex="1">
                    <mxGeometry x="532" y="98" width="90" height="40" as="geometry"/>
                </mxCell>
                <mxCell id="5s9E8lW04ORULl4_QQNw-9" value="described&lt;br&gt;by" style="endArrow=classic;html=1;rounded=0;strokeColor=default;strokeWidth=1;exitX=0;exitY=0.5;exitDx=0;exitDy=0;entryX=1;entryY=0.5;entryDx=0;entryDy=0;" parent="5s9E8lW04ORULl4_QQNw-1" source="5s9E8lW04ORULl4_QQNw-4" target="5s9E8lW04ORULl4_QQNw-3" edge="1">
                    <mxGeometry width="50" height="50" relative="1" as="geometry">
                        <mxPoint x="400" y="430" as="sourcePoint"/>
                        <mxPoint x="450" y="380" as="targetPoint"/>
                    </mxGeometry>
                </mxCell>
                <mxCell id="5s9E8lW04ORULl4_QQNw-10" value="described&lt;br&gt;by" style="endArrow=classic;html=1;rounded=0;strokeColor=default;strokeWidth=1;exitX=0;exitY=0.5;exitDx=0;exitDy=0;entryX=1;entryY=0.5;entryDx=0;entryDy=0;" parent="5s9E8lW04ORULl4_QQNw-1" source="5s9E8lW04ORULl4_QQNw-4" target="5s9E8lW04ORULl4_QQNw-2" edge="1">
                    <mxGeometry width="50" height="50" relative="1" as="geometry">
                        <mxPoint x="400" y="430" as="sourcePoint"/>
                        <mxPoint x="450" y="380" as="targetPoint"/>
                    </mxGeometry>
                </mxCell>
                <mxCell id="MLwJjm-CX4ozU2iMBaIM-0" value="EducationOrganization" style="rounded=1;arcSize=10;whiteSpace=wrap;html=1;align=center;" parent="5s9E8lW04ORULl4_QQNw-1" vertex="1">
                    <mxGeometry x="324.5" y="185" width="141" height="40" as="geometry"/>
                </mxCell>
                <mxCell id="MLwJjm-CX4ozU2iMBaIM-1" value="is a" style="endArrow=block;html=1;rounded=0;strokeColor=default;strokeWidth=1;exitX=0.5;exitY=1;exitDx=0;exitDy=0;entryX=0.5;entryY=0;entryDx=0;entryDy=0;endFill=0;" parent="5s9E8lW04ORULl4_QQNw-1" source="5s9E8lW04ORULl4_QQNw-4" target="MLwJjm-CX4ozU2iMBaIM-0" edge="1">
                    <mxGeometry width="50" height="50" relative="1" as="geometry">
                        <mxPoint x="399" y="433" as="sourcePoint"/>
                        <mxPoint x="449" y="383" as="targetPoint"/>
                    </mxGeometry>
                </mxCell>
            </root>
        </mxGraphModel>
    </diagram>
    <diagram id="Ot7AOJuSKL2eRLfjHtTu" name="generic-future">
        <mxGraphModel dx="1288" dy="861" grid="0" gridSize="10" guides="1" tooltips="1" connect="1" arrows="1" fold="0" page="0" pageScale="1" pageWidth="850" pageHeight="1100" math="0" shadow="0">
            <root>
                <mxCell id="CfrTAI6IJdZGCownLg8x-0"/>
                <mxCell id="CfrTAI6IJdZGCownLg8x-1" parent="CfrTAI6IJdZGCownLg8x-0"/>
                <mxCell id="t38WOWOIRVKCndKgf7DU-1" value="" style="rounded=0;whiteSpace=wrap;html=1;shadow=0;fillColor=none;strokeColor=#000000;fontFamily=Roboto;fontSource=https%3A%2F%2Ffonts.googleapis.com%2Fcss%3Ffamily%3DRoboto;" parent="CfrTAI6IJdZGCownLg8x-1" vertex="1">
                    <mxGeometry x="150" y="85" width="1052" height="703" as="geometry"/>
                </mxCell>
                <mxCell id="ywhm_qf11wEO3LLCmJEl-2" style="edgeStyle=orthogonalEdgeStyle;html=1;fontFamily=Roboto;fontSource=https%3A%2F%2Ffonts.googleapis.com%2Fcss%3Ffamily%3DRoboto;fontSize=14;fontColor=#FFFF66;rounded=0;" parent="CfrTAI6IJdZGCownLg8x-1" source="t38WOWOIRVKCndKgf7DU-7" target="t38WOWOIRVKCndKgf7DU-30" edge="1">
                    <mxGeometry relative="1" as="geometry"/>
                </mxCell>
                <mxCell id="ywhm_qf11wEO3LLCmJEl-12" style="edgeStyle=orthogonalEdgeStyle;rounded=0;html=1;entryX=0;entryY=0.5;entryDx=0;entryDy=0;fontFamily=Roboto;fontSource=https%3A%2F%2Ffonts.googleapis.com%2Fcss%3Ffamily%3DRoboto;fontSize=14;fontColor=#FFFF66;" parent="CfrTAI6IJdZGCownLg8x-1" source="t38WOWOIRVKCndKgf7DU-7" target="t38WOWOIRVKCndKgf7DU-31" edge="1">
                    <mxGeometry relative="1" as="geometry">
                        <Array as="points">
                            <mxPoint x="130" y="237"/>
                            <mxPoint x="130" y="477"/>
                        </Array>
                    </mxGeometry>
                </mxCell>
                <mxCell id="t38WOWOIRVKCndKgf7DU-7" value="" style="outlineConnect=0;fontColor=#232F3E;gradientColor=none;fillColor=#232F3E;strokeColor=none;dashed=0;verticalLabelPosition=bottom;verticalAlign=top;align=center;html=1;fontSize=12;fontStyle=0;aspect=fixed;pointerEvents=1;shape=mxgraph.aws4.users;fontFamily=Roboto;fontSource=https%3A%2F%2Ffonts.googleapis.com%2Fcss%3Ffamily%3DRoboto;" parent="CfrTAI6IJdZGCownLg8x-1" vertex="1">
                    <mxGeometry x="30" y="198" width="78" height="78" as="geometry"/>
                </mxCell>
                <mxCell id="ywhm_qf11wEO3LLCmJEl-8" style="edgeStyle=orthogonalEdgeStyle;rounded=0;html=1;fontFamily=Roboto;fontSource=https%3A%2F%2Ffonts.googleapis.com%2Fcss%3Ffamily%3DRoboto;fontSize=14;fontColor=#FFFF66;" parent="CfrTAI6IJdZGCownLg8x-1" source="t38WOWOIRVKCndKgf7DU-28" target="DxX6kWGsLIK-X17QB3a--2" edge="1">
                    <mxGeometry relative="1" as="geometry"/>
                </mxCell>
                <mxCell id="t38WOWOIRVKCndKgf7DU-28" value="" style="sketch=0;aspect=fixed;pointerEvents=1;shadow=0;dashed=0;html=1;strokeColor=none;labelPosition=center;verticalLabelPosition=bottom;verticalAlign=top;align=center;shape=mxgraph.mscae.enterprise.udf_function;fillColor=#0078D7;fontFamily=Roboto;fontSource=https%3A%2F%2Ffonts.googleapis.com%2Fcss%3Ffamily%3DRoboto;" parent="CfrTAI6IJdZGCownLg8x-1" vertex="1">
                    <mxGeometry x="809" y="460" width="57.08" height="60.72" as="geometry"/>
                </mxCell>
                <mxCell id="ywhm_qf11wEO3LLCmJEl-1" style="edgeStyle=orthogonalEdgeStyle;html=1;entryX=0.16;entryY=0.5;entryDx=0;entryDy=0;entryPerimeter=0;fontFamily=Roboto;fontSource=https%3A%2F%2Ffonts.googleapis.com%2Fcss%3Ffamily%3DRoboto;fontSize=14;fontColor=#FFFF66;rounded=0;" parent="CfrTAI6IJdZGCownLg8x-1" source="t38WOWOIRVKCndKgf7DU-30" target="t38WOWOIRVKCndKgf7DU-32" edge="1">
                    <mxGeometry relative="1" as="geometry"/>
                </mxCell>
                <mxCell id="t38WOWOIRVKCndKgf7DU-30" value="API Front End" style="sketch=0;outlineConnect=0;fontColor=#232F3E;gradientColor=none;fillColor=#4D27AA;strokeColor=none;dashed=0;verticalLabelPosition=bottom;verticalAlign=top;align=center;html=1;fontSize=14;fontStyle=1;aspect=fixed;pointerEvents=1;shape=mxgraph.aws4.gateway;fontFamily=Roboto;fontSource=https%3A%2F%2Ffonts.googleapis.com%2Fcss%3Ffamily%3DRoboto;" parent="CfrTAI6IJdZGCownLg8x-1" vertex="1">
                    <mxGeometry x="208" y="198" width="76" height="78" as="geometry"/>
                </mxCell>
                <mxCell id="t38WOWOIRVKCndKgf7DU-31" value="Identity / Authentication" style="shape=image;verticalLabelPosition=bottom;labelBackgroundColor=#ffffff;verticalAlign=top;aspect=fixed;imageAspect=0;image=https://oauth.net/images/oauth-2-sm.png;fontStyle=1;fontSize=14;fontFamily=Roboto;fontSource=https%3A%2F%2Ffonts.googleapis.com%2Fcss%3Ffamily%3DRoboto;" parent="CfrTAI6IJdZGCownLg8x-1" vertex="1">
                    <mxGeometry x="197.37" y="438.15999999999997" width="78.63" height="78" as="geometry"/>
                </mxCell>
                <mxCell id="ywhm_qf11wEO3LLCmJEl-3" style="edgeStyle=orthogonalEdgeStyle;html=1;fontFamily=Roboto;fontSource=https%3A%2F%2Ffonts.googleapis.com%2Fcss%3Ffamily%3DRoboto;fontSize=14;fontColor=#FFFF66;rounded=0;exitX=0.9;exitY=0.5;exitDx=0;exitDy=0;exitPerimeter=0;" parent="CfrTAI6IJdZGCownLg8x-1" source="t38WOWOIRVKCndKgf7DU-32" target="DxX6kWGsLIK-X17QB3a--1" edge="1">
                    <mxGeometry relative="1" as="geometry"/>
                </mxCell>
                <mxCell id="ywhm_qf11wEO3LLCmJEl-11" style="edgeStyle=orthogonalEdgeStyle;rounded=0;html=1;entryX=0.5;entryY=0;entryDx=0;entryDy=0;fontFamily=Roboto;fontSource=https%3A%2F%2Ffonts.googleapis.com%2Fcss%3Ffamily%3DRoboto;fontSize=14;fontColor=#FFFF66;" parent="CfrTAI6IJdZGCownLg8x-1" source="t38WOWOIRVKCndKgf7DU-32" target="DxX6kWGsLIK-X17QB3a--4" edge="1">
                    <mxGeometry relative="1" as="geometry"/>
                </mxCell>
                <mxCell id="ywhm_qf11wEO3LLCmJEl-13" style="edgeStyle=orthogonalEdgeStyle;html=1;entryX=1;entryY=0.5;entryDx=0;entryDy=0;fontFamily=Roboto;fontSource=https%3A%2F%2Ffonts.googleapis.com%2Fcss%3Ffamily%3DRoboto;fontSize=14;fontColor=#FFFF66;curved=1;exitX=0.18;exitY=1;exitDx=0;exitDy=0;exitPerimeter=0;dashed=1;dashPattern=1 1;" parent="CfrTAI6IJdZGCownLg8x-1" source="t38WOWOIRVKCndKgf7DU-32" target="t38WOWOIRVKCndKgf7DU-31" edge="1">
                    <mxGeometry relative="1" as="geometry"/>
                </mxCell>
                <mxCell id="ywhm_qf11wEO3LLCmJEl-4" style="edgeStyle=orthogonalEdgeStyle;html=1;entryX=-0.005;entryY=0.525;entryDx=0;entryDy=0;entryPerimeter=0;fontFamily=Roboto;fontSource=https%3A%2F%2Ffonts.googleapis.com%2Fcss%3Ffamily%3DRoboto;fontSize=14;fontColor=#FFFF66;rounded=0;" parent="CfrTAI6IJdZGCownLg8x-1" source="t38WOWOIRVKCndKgf7DU-32" target="-EAgs3cCDZlTqNCKtY48-1" edge="1">
                    <mxGeometry relative="1" as="geometry">
                        <Array as="points">
                            <mxPoint x="515" y="237"/>
                            <mxPoint x="515" y="612"/>
                        </Array>
                    </mxGeometry>
                </mxCell>
                <mxCell id="ywhm_qf11wEO3LLCmJEl-10" style="edgeStyle=orthogonalEdgeStyle;rounded=0;html=1;fontFamily=Roboto;fontSource=https%3A%2F%2Ffonts.googleapis.com%2Fcss%3Ffamily%3DRoboto;fontSize=14;fontColor=#FFFF66;" parent="CfrTAI6IJdZGCownLg8x-1" source="t38WOWOIRVKCndKgf7DU-33" target="-EAgs3cCDZlTqNCKtY48-1" edge="1">
                    <mxGeometry relative="1" as="geometry"/>
                </mxCell>
                <mxCell id="t38WOWOIRVKCndKgf7DU-33" value="" style="sketch=0;aspect=fixed;pointerEvents=1;shadow=0;dashed=0;html=1;strokeColor=none;labelPosition=center;verticalLabelPosition=bottom;verticalAlign=top;align=center;shape=mxgraph.mscae.enterprise.udf_function;fillColor=#0078D7;fontFamily=Roboto;fontSource=https%3A%2F%2Ffonts.googleapis.com%2Fcss%3Ffamily%3DRoboto;" parent="CfrTAI6IJdZGCownLg8x-1" vertex="1">
                    <mxGeometry x="558" y="460" width="52.79" height="56.16" as="geometry"/>
                </mxCell>
                <mxCell id="ywhm_qf11wEO3LLCmJEl-5" style="edgeStyle=orthogonalEdgeStyle;rounded=0;html=1;fontFamily=Roboto;fontSource=https%3A%2F%2Ffonts.googleapis.com%2Fcss%3Ffamily%3DRoboto;fontSize=14;fontColor=#FFFF66;" parent="CfrTAI6IJdZGCownLg8x-1" source="DxX6kWGsLIK-X17QB3a--1" target="J4FsH6nvaK422gFsXfy2-1" edge="1">
                    <mxGeometry relative="1" as="geometry"/>
                </mxCell>
                <mxCell id="ywhm_qf11wEO3LLCmJEl-9" style="edgeStyle=orthogonalEdgeStyle;rounded=0;html=1;fontFamily=Roboto;fontSource=https%3A%2F%2Ffonts.googleapis.com%2Fcss%3Ffamily%3DRoboto;fontSize=14;fontColor=#FFFF66;" parent="CfrTAI6IJdZGCownLg8x-1" source="DxX6kWGsLIK-X17QB3a--2" target="DxX6kWGsLIK-X17QB3a--3" edge="1">
                    <mxGeometry relative="1" as="geometry"/>
                </mxCell>
                <mxCell id="DxX6kWGsLIK-X17QB3a--2" value="&lt;b&gt;&lt;font style=&quot;font-size: 14px&quot;&gt;Data Lake Storage&lt;/font&gt;&lt;/b&gt;" style="sketch=0;outlineConnect=0;fontColor=#232F3E;gradientColor=none;fillColor=#4D27AA;strokeColor=none;dashed=0;verticalLabelPosition=bottom;verticalAlign=top;align=center;html=1;fontSize=12;fontStyle=0;aspect=fixed;pointerEvents=1;shape=mxgraph.aws4.data_lake_resource_icon;fontFamily=Roboto;fontSource=https%3A%2F%2Ffonts.googleapis.com%2Fcss%3Ffamily%3DRoboto;" parent="CfrTAI6IJdZGCownLg8x-1" vertex="1">
                    <mxGeometry x="798.54" y="571" width="78" height="78" as="geometry"/>
                </mxCell>
                <mxCell id="DxX6kWGsLIK-X17QB3a--3" value="Enterprise Warehouse / &#10;Business Intelligence" style="editableCssRules=.*;shape=image;verticalLabelPosition=bottom;labelBackgroundColor=#ffffff;verticalAlign=top;aspect=fixed;imageAspect=0;image=data:image/svg+xml,PHN2ZyB4bWxucz0iaHR0cDovL3d3dy53My5vcmcvMjAwMC9zdmciIHhtbG5zOnY9Imh0dHBzOi8vdmVjdGEuaW8vbmFubyIgd2lkdGg9IjIwLjAwMTA0NTIyNzA1MDc4IiBoZWlnaHQ9IjIwLjAwMTA0NTIyNzA1MDc4IiBmaWxsLXJ1bGU9ImV2ZW5vZGQiIHZpZXdCb3g9IjAgMCAyMC4wMDEwNDUyMjcwNTA3OCAyMC4wMDEwNDUyMjcwNTA3OCI+JiN4YTsJPHN0eWxlIHR5cGU9InRleHQvY3NzIj4mI3hhOwkuc3Qwe2ZpbGw6I2FlY2JmYTt9JiN4YTsJLnN0MXtmaWxsOiM2NjlkZjY7fSYjeGE7CS5zdDJ7ZmlsbDojNDI4NWY0O30mI3hhOwk8L3N0eWxlPiYjeGE7CTxwYXRoIGNsYXNzPSJzdDAiIGQ9Ik00LjczIDguODN2Mi42M2E0LjkxIDQuOTEgMCAwIDAgMS43MSAxLjc0VjguODN6Ii8+JiN4YTsJPHBhdGggY2xhc3M9InN0MSIgZD0iTTcuODkgNi40MXY3LjUzQTcuNjIgNy42MiAwIDAgMCA5IDE0YTggOCAwIDAgMCAxIDBWNi40MXoiLz4mI3hhOwk8cGF0aCBjbGFzcz0ic3QwIiBkPSJNMTEuNjQgOS44NnYzLjI5YTUgNSAwIDAgMCAxLjctMS44MlY5Ljg2eiIvPiYjeGE7CTxwYXRoIGNsYXNzPSJzdDIiIGQ9Ik0xNS43NCAxNC4zMmwtMS40MiAxLjQyYS40Mi40MiAwIDAgMCAwIC42bDMuNTQgMy41NGEuNDIuNDIgMCAwIDAgLjU5IDBsMS40My0xLjQzYS40Mi40MiAwIDAgMCAwLS41OWwtMy41NC0zLjU0YS40Mi40MiAwIDAgMC0uNiAwIi8+JiN4YTsJPHBhdGggY2xhc3M9InN0MSIgZD0iTTkgMGE5IDkgMCAxIDAgMCAxOEE5IDkgMCAxIDAgOSAwbTAgMTUuNjlhNi42OCA2LjY4IDAgMCAxIC4wMDctMTMuMzYgNi42OCA2LjY4IDAgMCAxIDQuNzI3IDExLjQwM0E2LjY4IDYuNjggMCAwIDEgOSAxNS42OSIvPiYjeGE7PC9zdmc+;fontStyle=1;fontSize=14;fontFamily=Roboto;fontSource=https%3A%2F%2Ffonts.googleapis.com%2Fcss%3Ffamily%3DRoboto;" parent="CfrTAI6IJdZGCownLg8x-1" vertex="1">
                    <mxGeometry x="1008" y="570" width="80" height="80" as="geometry"/>
                </mxCell>
                <mxCell id="DxX6kWGsLIK-X17QB3a--4" value="Memory Cache" style="editableCssRules=.*;shape=image;verticalLabelPosition=bottom;labelBackgroundColor=#ffffff;verticalAlign=top;aspect=fixed;imageAspect=0;image=data:image/svg+xml,PHN2ZyB4bWxucz0iaHR0cDovL3d3dy53My5vcmcvMjAwMC9zdmciIHhtbG5zOnY9Imh0dHBzOi8vdmVjdGEuaW8vbmFubyIgd2lkdGg9IjIwIiBoZWlnaHQ9IjIwIiB2aWV3Qm94PSIwIDAgMjAgMjAiPiYjeGE7CTxzdHlsZSB0eXBlPSJ0ZXh0L2NzcyI+JiN4YTsJLnN0MHtmaWxsOiM0Mjg1ZjQ7fSYjeGE7CS5zdDF7ZmlsbDojNjY5ZGY2O30mI3hhOwkuc3Qye2ZpbGw6I2FlY2JmYTt9JiN4YTsJPC9zdHlsZT4mI3hhOwk8cGF0aCBjbGFzcz0ic3QxIiBkPSJNMCAxLjk0aDMuMzN2Mi41OEgwem0wIDQuNTFoMy4zM3YyLjU4SDB6bTAgNC41MmgzLjMzdjIuNThIMHptMCA0LjUxaDMuMzN2Mi41OEgwek0xNi42NyAxLjk0SDIwdjIuNThoLTMuMzN6bTAgNC41MUgyMHYyLjU4aC0zLjMzem0wIDQuNTJIMjB2Mi41OGgtMy4zM3ptMCA0LjUxSDIwdjIuNThoLTMuMzN6Ii8+JiN4YTsJPHBhdGggY2xhc3M9InN0MCIgZD0iTTE2LjY3IDEuOTRsMi42NiAyLjU4aC0yLjY2em0wIDQuNTFsMi42NiAyLjU4aC0yLjY2em0wIDQuNTJsMi42NiAyLjU4aC0yLjY2em0wIDQuNTFsMi42NiAyLjU5aC0yLjY2eiIgZmlsbC1ydWxlPSJldmVub2RkIi8+JiN4YTsJPHBhdGggY2xhc3M9InN0MiIgZD0iTTMuMzMgMjBoMTMuMzRWMEgzLjMzem02LTlINmw0LjY3LTcuNzRWOUgxNGwtNC42NyA3Ljc0eiIgZmlsbC1ydWxlPSJldmVub2RkIi8+JiN4YTsJPHBhdGggY2xhc3M9InN0MSIgZD0iTTE0IDkuMDNoLTMuMzNWMGg2djIwSDkuMzN2LTMuMjN6IiBmaWxsLXJ1bGU9ImV2ZW5vZGQiLz4mI3hhOzwvc3ZnPg==;fontStyle=1;fontSize=14;fontFamily=Roboto;fontSource=https%3A%2F%2Ffonts.googleapis.com%2Fcss%3Ffamily%3DRoboto;" parent="CfrTAI6IJdZGCownLg8x-1" vertex="1">
                    <mxGeometry x="383.54" y="450.72" width="70" height="70" as="geometry"/>
                </mxCell>
                <mxCell id="J4FsH6nvaK422gFsXfy2-0" value="&lt;b&gt;&lt;font style=&quot;font-size: 14px&quot;&gt;Log Monitoring&lt;/font&gt;&lt;/b&gt;" style="aspect=fixed;html=1;points=[];align=center;image;fontSize=12;image=img/lib/azure2/management_governance/Monitor.svg;labelBackgroundColor=#FFFFFF;fontFamily=Roboto;fontSource=https%3A%2F%2Ffonts.googleapis.com%2Fcss%3Ffamily%3DRoboto;" parent="CfrTAI6IJdZGCownLg8x-1" vertex="1">
                    <mxGeometry x="1052.5" y="308.75" width="64" height="64" as="geometry"/>
                </mxCell>
                <mxCell id="ywhm_qf11wEO3LLCmJEl-6" style="edgeStyle=orthogonalEdgeStyle;rounded=0;html=1;fontFamily=Roboto;fontSource=https%3A%2F%2Ffonts.googleapis.com%2Fcss%3Ffamily%3DRoboto;fontSize=14;fontColor=#FFFF66;" parent="CfrTAI6IJdZGCownLg8x-1" source="J4FsH6nvaK422gFsXfy2-1" target="t38WOWOIRVKCndKgf7DU-33" edge="1">
                    <mxGeometry relative="1" as="geometry">
                        <mxPoint x="590" y="459" as="targetPoint"/>
                    </mxGeometry>
                </mxCell>
                <mxCell id="ywhm_qf11wEO3LLCmJEl-7" style="edgeStyle=orthogonalEdgeStyle;rounded=0;html=1;entryX=0.5;entryY=0;entryDx=0;entryDy=0;entryPerimeter=0;fontFamily=Roboto;fontSource=https%3A%2F%2Ffonts.googleapis.com%2Fcss%3Ffamily%3DRoboto;fontSize=14;fontColor=#FFFF66;" parent="CfrTAI6IJdZGCownLg8x-1" source="J4FsH6nvaK422gFsXfy2-1" target="t38WOWOIRVKCndKgf7DU-28" edge="1">
                    <mxGeometry relative="1" as="geometry"/>
                </mxCell>
                <mxCell id="ywhm_qf11wEO3LLCmJEl-25" style="edgeStyle=orthogonalEdgeStyle;html=1;entryX=1;entryY=0.5;entryDx=0;entryDy=0;dashed=1;dashPattern=1 1;labelBackgroundColor=none;fontFamily=Roboto;fontSource=https%3A%2F%2Ffonts.googleapis.com%2Fcss%3Ffamily%3DRoboto;fontSize=14;fontColor=#000000;curved=1;exitX=0;exitY=0.5;exitDx=0;exitDy=0;exitPerimeter=0;" parent="CfrTAI6IJdZGCownLg8x-1" source="J4FsH6nvaK422gFsXfy2-1" target="DxX6kWGsLIK-X17QB3a--4" edge="1">
                    <mxGeometry relative="1" as="geometry">
                        <Array as="points">
                            <mxPoint x="667" y="378"/>
                            <mxPoint x="503" y="378"/>
                            <mxPoint x="503" y="486"/>
                        </Array>
                    </mxGeometry>
                </mxCell>
                <mxCell id="J4FsH6nvaK422gFsXfy2-1" value="&lt;b&gt;&lt;font style=&quot;font-size: 14px&quot;&gt;Event Stream&lt;/font&gt;&lt;/b&gt;" style="sketch=0;points=[[0,0,0],[0.25,0,0],[0.5,0,0],[0.75,0,0],[1,0,0],[0,1,0],[0.25,1,0],[0.5,1,0],[0.75,1,0],[1,1,0],[0,0.25,0],[0,0.5,0],[0,0.75,0],[1,0.25,0],[1,0.5,0],[1,0.75,0]];outlineConnect=0;fontColor=#232F3E;gradientColor=#945DF2;gradientDirection=north;fillColor=#5A30B5;strokeColor=#ffffff;dashed=0;verticalLabelPosition=bottom;verticalAlign=top;align=center;html=1;fontSize=12;fontStyle=0;aspect=fixed;shape=mxgraph.aws4.resourceIcon;resIcon=mxgraph.aws4.managed_streaming_for_kafka;labelBackgroundColor=#FFFFFF;fontFamily=Roboto;fontSource=https%3A%2F%2Ffonts.googleapis.com%2Fcss%3Ffamily%3DRoboto;" parent="CfrTAI6IJdZGCownLg8x-1" vertex="1">
                    <mxGeometry x="666.98" y="358.5" width="78" height="78" as="geometry"/>
                </mxCell>
                <mxCell id="J4FsH6nvaK422gFsXfy2-2" value="&lt;div style=&quot;margin-top: 0pt ; margin-bottom: 0pt ; margin-left: 0.19in ; text-indent: -0.19in ; direction: ltr ; unicode-bidi: embed ; word-break: normal ; font-size: 14px&quot;&gt;&lt;span style=&quot;color: black&quot;&gt;&lt;font style=&quot;font-size: 14px&quot;&gt;NGiNX, HAProxy, etc.&lt;/font&gt;&lt;/span&gt;&lt;/div&gt;&lt;div style=&quot;margin-top: 0pt ; margin-bottom: 0pt ; margin-left: 0.19in ; text-indent: -0.19in ; direction: ltr ; unicode-bidi: embed ; word-break: normal ; font-size: 14px&quot;&gt;&lt;font style=&quot;font-size: 14px&quot;&gt;&lt;span style=&quot;color: black&quot;&gt;Azure&amp;nbsp;API &lt;/span&gt;&lt;span style=&quot;color: black&quot;&gt;Mgmt&lt;/span&gt;&lt;/font&gt;&lt;/div&gt;&lt;div style=&quot;margin-top: 0pt ; margin-bottom: 0pt ; margin-left: 0.19in ; text-indent: -0.19in ; direction: ltr ; unicode-bidi: embed ; word-break: normal ; font-size: 14px&quot;&gt;&lt;span style=&quot;color: black&quot;&gt;&lt;font style=&quot;font-size: 14px&quot;&gt;AWS API Gateway&lt;/font&gt;&lt;/span&gt;&lt;/div&gt;&lt;div style=&quot;margin-top: 0pt ; margin-bottom: 0pt ; margin-left: 0.19in ; text-indent: -0.19in ; direction: ltr ; unicode-bidi: embed ; word-break: normal ; font-size: 14px&quot;&gt;&lt;span style=&quot;color: black&quot;&gt;&lt;font style=&quot;font-size: 14px&quot;&gt;GCP API Gateway&lt;/font&gt;&lt;/span&gt;&lt;/div&gt;" style="text;whiteSpace=wrap;html=1;fontFamily=Roboto;fontSource=https%3A%2F%2Ffonts.googleapis.com%2Fcss%3Ffamily%3DRoboto;labelBackgroundColor=none;spacingTop=0;spacing=3;fillColor=#f5f5f5;fontColor=#333333;strokeColor=none;align=center;" parent="CfrTAI6IJdZGCownLg8x-1" vertex="1">
                    <mxGeometry x="174" y="302" width="144" height="78" as="geometry"/>
                </mxCell>
                <mxCell id="-EAgs3cCDZlTqNCKtY48-1" value="&lt;b&gt;&lt;font style=&quot;font-size: 14px&quot;&gt;Search&lt;/font&gt;&lt;/b&gt;" style="sketch=0;aspect=fixed;html=1;points=[];align=center;image;fontSize=12;image=img/lib/mscae/Search.svg;labelBackgroundColor=#FFFFFF;fontFamily=Roboto;fontSource=https%3A%2F%2Ffonts.googleapis.com%2Fcss%3Ffamily%3DRoboto;" parent="CfrTAI6IJdZGCownLg8x-1" vertex="1">
                    <mxGeometry x="544.39" y="570" width="80" height="80" as="geometry"/>
                </mxCell>
                <mxCell id="ywhm_qf11wEO3LLCmJEl-0" value="&lt;span style=&quot;background-color: rgb(255 , 255 , 204)&quot;&gt;anywhere&lt;/span&gt;" style="rounded=0;whiteSpace=wrap;html=1;labelBackgroundColor=#FFFFFF;fontSize=14;fontStyle=1;fontFamily=Roboto;fontSource=https%3A%2F%2Ffonts.googleapis.com%2Fcss%3Ffamily%3DRoboto;fillColor=#FFFFCC;strokeColor=none;labelBorderColor=none;" parent="CfrTAI6IJdZGCownLg8x-1" vertex="1">
                    <mxGeometry x="151" y="86" width="90" height="50" as="geometry"/>
                </mxCell>
                <mxCell id="ywhm_qf11wEO3LLCmJEl-14" value="&lt;div style=&quot;margin-top: 0pt; margin-bottom: 0pt; margin-left: 0.19in; text-indent: -0.19in; direction: ltr; unicode-bidi: embed; word-break: normal; font-size: 14px;&quot;&gt;&lt;font color=&quot;#000000&quot; style=&quot;font-size: 14px&quot;&gt;AWS Cognito&lt;/font&gt;&lt;/div&gt;&lt;div style=&quot;margin-top: 0pt; margin-bottom: 0pt; margin-left: 0.19in; text-indent: -0.19in; direction: ltr; unicode-bidi: embed; word-break: normal; font-size: 14px;&quot;&gt;&lt;font style=&quot;font-size: 14px&quot;&gt;GCP Identity Platform&lt;/font&gt;&lt;/div&gt;&lt;div style=&quot;margin-top: 0pt; margin-bottom: 0pt; margin-left: 0.19in; text-indent: -0.19in; direction: ltr; unicode-bidi: embed; word-break: normal; font-size: 14px;&quot;&gt;&lt;font style=&quot;font-size: 14px&quot;&gt;Keycloak, Gluu, etc.&lt;/font&gt;&lt;/div&gt;&lt;div style=&quot;margin-top: 0pt; margin-bottom: 0pt; margin-left: 0.19in; text-indent: -0.19in; direction: ltr; unicode-bidi: embed; word-break: normal; font-size: 14px;&quot;&gt;&lt;font style=&quot;font-size: 14px&quot;&gt;Azure Active Directory&lt;/font&gt;&lt;/div&gt;&lt;div style=&quot;margin-top: 0pt; margin-bottom: 0pt; margin-left: 0.19in; text-indent: -0.19in; direction: ltr; unicode-bidi: embed; word-break: normal; font-size: 14px;&quot;&gt;&lt;font style=&quot;font-size: 14px&quot;&gt;Okta, Auth0, etc.&lt;/font&gt;&lt;/div&gt;" style="text;whiteSpace=wrap;html=1;fontFamily=Roboto;fontSource=https%3A%2F%2Ffonts.googleapis.com%2Fcss%3Ffamily%3DRoboto;labelBackgroundColor=none;spacingTop=0;spacing=3;fillColor=#f5f5f5;fontColor=#333333;strokeColor=none;align=center;" parent="CfrTAI6IJdZGCownLg8x-1" vertex="1">
                    <mxGeometry x="161.68" y="550" width="150" height="90" as="geometry"/>
                </mxCell>
                <mxCell id="ywhm_qf11wEO3LLCmJEl-15" value="&lt;div style=&quot;margin-top: 0pt ; margin-bottom: 0pt ; margin-left: 0.19in ; text-indent: -0.19in ; direction: ltr ; unicode-bidi: embed ; word-break: normal ; font-size: 14px&quot;&gt;&lt;font color=&quot;#000000&quot;&gt;AWS Lambda&lt;/font&gt;&lt;/div&gt;&lt;div style=&quot;margin-top: 0pt ; margin-bottom: 0pt ; margin-left: 0.19in ; text-indent: -0.19in ; direction: ltr ; unicode-bidi: embed ; word-break: normal ; font-size: 14px&quot;&gt;&lt;font color=&quot;#000000&quot;&gt;Azure Functions&lt;/font&gt;&lt;/div&gt;&lt;div style=&quot;margin-top: 0pt ; margin-bottom: 0pt ; margin-left: 0.19in ; text-indent: -0.19in ; direction: ltr ; unicode-bidi: embed ; word-break: normal ; font-size: 14px&quot;&gt;&lt;font color=&quot;#000000&quot;&gt;Google Cloud Functions&lt;/font&gt;&lt;/div&gt;&lt;div style=&quot;margin-top: 0pt ; margin-bottom: 0pt ; margin-left: 0.19in ; text-indent: -0.19in ; direction: ltr ; unicode-bidi: embed ; word-break: normal ; font-size: 14px&quot;&gt;&lt;font color=&quot;#000000&quot;&gt;OpenWhisk, OpenFAAS, etc.&lt;/font&gt;&lt;/div&gt;&lt;div style=&quot;margin-top: 0pt ; margin-bottom: 0pt ; margin-left: 0.19in ; text-indent: -0.19in ; direction: ltr ; unicode-bidi: embed ; word-break: normal ; font-size: 14px&quot;&gt;&lt;font color=&quot;#000000&quot;&gt;Express (NodeJs)&lt;/font&gt;&lt;/div&gt;" style="text;whiteSpace=wrap;html=1;fontFamily=Roboto;fontSource=https%3A%2F%2Ffonts.googleapis.com%2Fcss%3Ffamily%3DRoboto;labelBackgroundColor=none;spacingTop=0;spacing=3;fillColor=#f5f5f5;fontColor=#333333;strokeColor=none;align=center;" parent="CfrTAI6IJdZGCownLg8x-1" vertex="1">
                    <mxGeometry x="423" y="111" width="192.08" height="93" as="geometry"/>
                </mxCell>
                <mxCell id="ywhm_qf11wEO3LLCmJEl-16" value="&lt;div style=&quot;margin-top: 0pt ; margin-bottom: 0pt ; margin-left: 0.19in ; text-indent: -0.19in ; direction: ltr ; unicode-bidi: embed ; word-break: normal ; font-size: 14px&quot;&gt;&lt;font color=&quot;#000000&quot;&gt;MongoDB&lt;/font&gt;&lt;/div&gt;&lt;div style=&quot;margin-top: 0pt ; margin-bottom: 0pt ; margin-left: 0.19in ; text-indent: -0.19in ; direction: ltr ; unicode-bidi: embed ; word-break: normal ; font-size: 14px&quot;&gt;&lt;font color=&quot;#000000&quot;&gt;AWS DocumentDB&lt;/font&gt;&lt;/div&gt;&lt;div style=&quot;margin-top: 0pt ; margin-bottom: 0pt ; margin-left: 0.19in ; text-indent: -0.19in ; direction: ltr ; unicode-bidi: embed ; word-break: normal ; font-size: 14px&quot;&gt;&lt;font color=&quot;#000000&quot;&gt;AWS DynamoDB&lt;/font&gt;&lt;/div&gt;&lt;div style=&quot;margin-top: 0pt ; margin-bottom: 0pt ; margin-left: 0.19in ; text-indent: -0.19in ; direction: ltr ; unicode-bidi: embed ; word-break: normal ; font-size: 14px&quot;&gt;&lt;font color=&quot;#000000&quot;&gt;Azure CosmosDB&lt;/font&gt;&lt;/div&gt;&lt;div style=&quot;margin-top: 0pt ; margin-bottom: 0pt ; margin-left: 0.19in ; text-indent: -0.19in ; direction: ltr ; unicode-bidi: embed ; word-break: normal ; font-size: 14px&quot;&gt;&lt;font color=&quot;#000000&quot;&gt;GCP Firestore&lt;/font&gt;&lt;/div&gt;" style="text;whiteSpace=wrap;html=1;fontFamily=Roboto;fontSource=https%3A%2F%2Ffonts.googleapis.com%2Fcss%3Ffamily%3DRoboto;labelBackgroundColor=none;spacingTop=0;spacing=3;fillColor=#f5f5f5;fontColor=#333333;strokeColor=none;align=center;" parent="CfrTAI6IJdZGCownLg8x-1" vertex="1">
                    <mxGeometry x="762.0799999999999" y="177" width="140.46" height="93" as="geometry"/>
                </mxCell>
                <mxCell id="t38WOWOIRVKCndKgf7DU-32" value="&lt;b&gt;&lt;font style=&quot;font-size: 14px ; background-color: rgb(255 , 255 , 255)&quot;&gt;Ed-Fi API Function&lt;/font&gt;&lt;/b&gt;" style="sketch=0;aspect=fixed;pointerEvents=1;shadow=0;dashed=0;html=1;strokeColor=none;labelPosition=center;verticalLabelPosition=bottom;verticalAlign=top;align=center;shape=mxgraph.mscae.enterprise.udf_function;fillColor=#0078D7;fontFamily=Roboto;fontSource=https%3A%2F%2Ffonts.googleapis.com%2Fcss%3Ffamily%3DRoboto;" parent="CfrTAI6IJdZGCownLg8x-1" vertex="1">
                    <mxGeometry x="396" y="196" width="77.08" height="82" as="geometry"/>
                </mxCell>
                <mxCell id="DxX6kWGsLIK-X17QB3a--1" value="Document Data Store&#10;and Reference Validation" style="shape=image;verticalLabelPosition=bottom;labelBackgroundColor=#ffffff;verticalAlign=top;aspect=fixed;imageAspect=0;image=data:image/png,iVBORw0KGgoAAAANSUhEUgAAAKAAAACgCAYAAACLz2ctAAAgAElEQVR4Ae1dh1tU1/Z9/8tPkJjkpZiXF5O8KMWusT1NNPElRqMpT9OLKT6NCXWoInbE3jB27AIKWLChIgIqNiwgKnYFXb9v7XvvcB3OUILDDHDu981375yZ2/ZZd5+99917nb9BL1oCXpTA37x4bn1qLQFoAGoQeFUCGoBeFb8+uQagxoBXJaAB6FXx65O3eQA+xmPcfXAb5bcu49zV0zh5pQAFpXnIO5+LAyU52HMyAznFO5BVtA07T2xGxolNSD+ehvSCjfJ9V9FWZBdtl//x/0fO78eJi0fkOBeunUHF7TLcfXAHjx8/1mhTSKDNALDidjmKLuVjz8lMrD+0HAuykjBtezjC1/+IX1I/xbgFQzFydl+8Nz0YgxLeQJ/YjgiJ6IDOoe3QJdwPgZF+CIryQ1C0P4Jj/GUd5PBDYJSf/N75j3boGvks+sa+gn9PeVOO83Fyf3y1eDh+Xfk5Itb/iKTtYVi8ewbS8lKx+2Q6Tlw8iopbZYpuaTtNrRKAlXev4/DZvVhzcDHiN/+G8ctH45OUQRg2LRh9Yl4RUAXH+iMkvj24FkA5/AVMBBo/XSIMYHUJawd+Oluf0HayP4HpbON/wg2gcj/rGAJYh3F85/li/NE51A99Yzvi3amBGDN3oFxf9KYJWLZ3DnYXp6Ps5qU2g8AWD8BHj6px814ljpzLxaKcGRi/fAyGz+iG/gmviQYjGNj51FwEhIAr3K8GRHZANce2gNUEqaVRY/0RSG0a5o8+MR1Fe1Ijx2+ehK3H1qL02jnce3i3VYKyRQKw+lE1Lt44j5yiHYjdPBHvTe+KHo7n0SXU6NggajNTi4mWag5gNfUcNmA6h/awdgiJeAa9Yzpi7IKhmLMzDvtLclqVhmxRALxx5xr2nd4lttTQpEBjmOSQyeFShkxzWGwqGHxkfxn+aX9yWOf98aEKa4ePZvfBzIwosSOv3rrSojVjiwBg2c3LWLlvHn5cPgpBYe0RHO0vgHPaYI0BjGXLmbadOBiW3cYh0WEO16azQftQPrQV3X2s/1jOCYd7Hieqxq6025TO6+a1NPLaCUAxK8SWbCdOzqKc6Si6nN8igejTAKy8ewNLds/EmJQBYuQTCARMQzvN0iDiGFha0rbmcd6OfRUfzOwpQ9wvqZ8hcv1PSNz6B2ZnxIAd++f+BVh3aKl4rpuOrMK2Y2uxo2ADtuevw+ajq6V9/aGlWLV/oVzrnMw4JG0PhyPtF0xcNQ5fL/6PeNeDE98Um1SAaLsGp3ZjW7ih4Rpzf5ZtS++dHj3DQC1p8UkAVj+qwvb89Rid3B+BEYZGopdZX8eIdogwtBjDI9Q0wRHPoFfMixiaFIQfl3+MqdtCsXL/PIndUWucqziNy5WlYJjm9v2beFB1H3RsmrI8evwID6oe4M6D27h+uwJllZdQev0sTpcV4uDZPdh05E/My0pE+Pof8Nm8Iegf/0+xYYPC28uDZnjP5rDbEC0Z1s7QuA4/DEzshNB13+HklRNNuYVm29fnAHjx+jlEpI1H18gO4rXWq/E4JEX5yTDJoalX9Et4f0YIvln6IWakRyHjeJqAzAmux4+aTbj1najqUZV4twRp4aWjSMtbgbgtE0UbD5sWhJ6OF53DrcQb6wOjKQvKYUD8awLy63cq6rsMr/7uUwDcX5KNj5P7ydNcH/CoEa343cCETjLUcejMPLFZtJlXpfoUTk6tnFGwUTT2t0tH4J2pncUJCY5tL6CsczQw7UQ6LV8tGY4j53x3WPYZAG7LX4eBU15HoIOBWvfDLYFJJyQwrD2+WzoC87OmyiszDp2tdeGQnl96CKn7UvD72q8xMOF1iWvWqxU5NEf7Y3DSv7Ax70+fFI9PAJDB1t4xL4PxLyX46LGanmrv6JcQs2kC9pzKBMMybW2pqn6Igot5SM1NwdgF74qdKzHPOpwzeuS9417Cin0p4LtvX1q8DsCDZ3ZjUOIbMuyqwCfAi/JD7+iXEbNxgoQbHlY/9CUZeu1art0uR1bhVny/9CN5D03nxZ3pQm3ZLepZeT3ptQtWnNirACy/eRnjFg5FkBnTcgWgxLsi2+P7ZSNx9Nx+0DvWS20J3H94D9lFO/DlovcRFBEgTpmrLPmdIORIs+/UrtoH8VKL1wD46HE1Fu2eYWg+hXfHd6Nvx/8Di3KmSUjDS/JpUae99/Aelu6Zg8FJb6nNGTNcMyZ5IJiw4QuL1wB46cZ5DJnaWenR8UkdkvQWMgrSfEFGLe4amJgxKvlt0XiMjdq1IU2a4KgASdzwhRvzGgA35q00wOciIL4Z6Bf/Knbka/A1BSDnrpVgTMpApYwZRfh83ju44QMxQq8AkAFYhhP4ND7xdHKIiPLH9B2RTZG93teUwPHSwxiQ0KmWnPmQ9415BXtPZnpdVl4BIFPUmX1MQdgBSC9u+IzuOHv1lNcF01ouYFZmTE3ihhlftRIaUnPnef02vQJAvhYbEN+pFgCZbTJ+xRivC6U1XcCxCwclhcvVFmQ2OBMuvL14BYA3791A35iOtRyQkLj2mPDnf70tk1Z1/lNXThhZNi7JHASgL5g63gNgbG0A8rXR5/OGtMk3HJ5CPTNvxNZ2cfY0ABUAZBS/W+SzkmfnqQ5pS8e9da8Sn6YMrmXq0O7WAFQAkILhe0tWsF2oKGlLWHnq98rXlQlbJivtPw1A2oBuAGiA0A8/rRgNvqrTS+MlQCcvcdsfCIpoXysEQ/lqANYDQHpszIz5avH7kvnR+C5ou3uQ2YGF8JLE4RLmssCnAVgPAEVQTKeP9sfQaYFYfWChfh9czzN158EtrNiXLNngNGPqK2HQNmAdQ7D9SeV74a6ODpJyxIzph1UP6umKtvUzQ1obj6wUuzk4MsBtcoddploDNkQD2rKiZTiJ9EM3x/P4NfVz4XdhLlxbXciScKb8JJbvnYMPZ/ZCcNQzRuJBHUmpGoA2tEgguoEa0Ck4Kyua1W6h/ydkQqxuY6r6/ap7tqO3zk2m5TOovC1/LcLWfy8kSMyX5OtMd0molJ3rGxBLnnoIdgNACpOCtQSlWsu7TJNXpX/8a5i4+gss3zcXB8/skVLI1gJBxvEOnd2LlbnzBXTvTQsR2TBgL6BzCS4/ISsWJplOCDlnnvhNxwHVYRgK7P3pXTEmeYB4wXU92ZZAuQ+r42grDozvhHGLhklR+KoDC3HswiHh5mspgLx2+ypo5y7fmyxF5qz5GJTwulTDhZDAiA9mXaAzNR6r4fjfb5Z8gKV7Zku6vqsm1BpQoQFDYttj0qpxEv+LShuPbpHPCRCtJ9kCnWotWpFMWKTHcPhJQTrLNT+c1Qs/LBuFaTsikJa3Enw5X37zCm7fvwWmspPoqDnII5kB/rD6gTwQzEY+U14safQESFTaz1IL/N6MEPSLe1VYsqjl5MEy+WBU92xvo9fLh5D28pCpb2HJnlm4cfcaLl4/j+DwZ2p5xRqAKgDGEYBfiMJi/UdOcTq+WfIheka/YJQh1jM0OzvkCaapGs0RHB6A7lHPCwXasGkhUktM4kgWsDOVndQbZERlHW3x5ePCZEDW1PMVJSi9dhal18+BmdyXblzApevnhaGL7WRCZQpZSVmRMKNS8+49tVPoO/7MnS+sVtEbJ+Dn1E8xak4/9I/7J3pFv2hqJmM4NdgQTFYvOhP1aDrrXgk4ApUAJPvD9PRIXKg441T6ZGMICg/QAHRKBIA7J4TZMP/7c6z9r2Dy6tZjazB+xWj0jetocP2xfLOBHSQdZSMisgK01Kr88LvyI9RoHcTYZx0uWU/fTeoiVHDkH3xvWleQoWvwlH8Jo2rf2H/Ie2xqYuXxzPM9cV5ywTBLpTH3wuiAJO6S97C9gHjswqGYtysRZJVwXei4aAC6SKUxALR25VBJrub4LZPwwazuMtxIwJWGNjuwsZ1ohXmsfc21AMgOWILEBlILQLXAK2AyyIWsYzivyzqHdc7Grs3r4TmlKD/SDx/M7CH10aypvnXvpiWmWmsNwFoiaZwGVOwu9tPmo2sQuWE8Bk15wwCIFZIwwxIEgTVMtag1wUa6X5uGtqICtGcTtk5GekGaxAFVsnFt0wB0lUgjh2DF7s4mOhG0v8hSz5fvo+f2Ry/HiwiOCJD4F41yakl2oGixvzLcNVZbNfT/dqCRAJ18gg4jpkfaETK+Dk78F35a8QmW7ZmNo+cP4ErlxUbXRmsAOuFSs/FXhuCavdVbDNSy1oR0axyWSMNGbj7aa7Thejj+LhqRHS1Ek+ItuyGQbCiI3P3PNoTLkE3tbPFBk8ySBENRRmyOThHLE+gBfz5/CKI2/CychEcvHETl3WtCF6e+44a1agAq5OQJACpOI00M5uaX5mHL0dViqLOD6dCQc3nk7D7COsXQBxNhOWwTKAQIwxR0ivjhdyc7qsWG6mRLrfmf/J/M+/RKI9qBfH89HC8I/x8Z8UfN6eectoFe8YLsJGw+ukpYHxgD9MSiAaiQanMCUHF6aaLhznBFfulhI2RyfL3wpnCqBDJuMTQzZevviN00QWxNkj7+sfZbTF7zNSav+Uq2STDJGB7JkhK2/oap2/7ArIxoLMyZjlX7FwgRJSe32V+ShYKLR3Dp+oUmazR39+OuXQNQIRlfAKDisups4hDPYHLVo4dgtjHjlM0RwK7zohrwowagQkgtEYCK22gRTRqAim7SAFQIxUNNGoAKwWoAKoTioSYNQIVgNQAVQvFQkwagQrAagAqheKhJA1AhWA1AhVA81KQBqBCsBqBCKB5q0gBUCLapAGTta/oJzlpe88koTJNsGXfM+ZwRfVfhFmS47Gc/htttc5+z5S2PNk4D8CkDkNMMxG2ZhJCEAATH1Uwg2DUxQBIRDp3ZozgjkFm4CV1C26HrlICa12rO12k1x3G+crP9FhJvZCen7JyiPLYvN2oAKnqnKRqQAGR6PbNb7DmAfIfL5FDyI6uW7OJt6BPzslFX4S6JwE27pEeF+mFxzkzVoX26TQNQ0T0agAqheKhJA1AhWA1AhVA81KQBqBCsBqBCKB5q0gBUCLapANROiEKobpo0ABWCqQuAnGW8vkWHYeqTUM3vLMsMNCfCttfG6LpgRV0wQyC/pH5WIz291WQJcFZ4Mky4FmlpACoASDaAUcn9wKCxXp6OBFbmptQKWVETagAqAMgntVv0s1KU83TE37aPwio61g+zMMo+/GoA1sEPyNLE96YHy7zAbRs+Tbt7FmOR5kRqisM0AJ+QpjsnxHpKWTr58dz+wrPyxI76S4MkUFZ5yQk+dwxjeghWDMEWALlm3ezw6d2QXbStQULXfwJYOJV7OhufzRtsMGXVwZiqAVgPAPmeN9Dhj57RL2J2ZgzKbl7SGKtDAucqSoQdoqfjBYMJwmVqLvvDzW0NwPoAaCYGCEdKpB9GzumDDYeXayC6gPDEpaOYt2uKcAJaFCSuYFN91wBsIABFeCZjAb25sQvfxfJ9yW16Stc7D25jZ+EWxG2aiMFT3zK4E12yg1Sgs7dpALoDYF1UZuTFizbIhkbM7omotJ+kI+7cv+WiF1rfVxbDM9dxZnoUxi0cJpQfDNyLl+smjYyAE/5Bxe8agO4ASKGZFGv2J9a+zai+sElF+aFXzEtCwxu98RfsLNyMspuXm53+4mnDnYwLZP6nN0tqj7jNkzA6ub9wzNCrFepeRWzvCRmZZO/kp+kSqsMwT/SRuzAMn+aPZvfBzys+k+ApQWZPOrULWLZNJnj+j09618gO0knfL/sIKbsSJUWf1LkVt8vAuTV8caHnypjd5RulQgu84/gGmcf36yX/kXvpFmWQJjE+KjZefbyH5sNJoJIdbPHumQiJMI5hl5/WgAoNSHap39d8g6rqKjGsh04PchJ124Wn2qZWpNCFDs3GaNo75iV8Ou/fILkQ2ai25a9D7uksnLh4RDifSRjO4c2TC0FGUvQrlZeEd/rw2X3IKtomZEjM7iZ39IezeiIoLMDQ/jY6X96T63tc1f2zTUYFh58wyKbsmoK7D+8IAZOm6HXpXXcakAC0c0QXlOYhZtP/8HbcP6SOwzUN311HSLudo88kgOTQJezz4QFC/jg6eYAw6BP0HOY4hT3Z5Tk3XVpeKqiNsoq2Y++pTOw/nYWDZ3aD4Dlyfj/yzu3DobN7pJ2/ZxfvQPrxNGHEWnNwMciyNXdnvIRGwtZ9j59TPxFKOE5D0cvxkgDNuh6WE/DBIdhE49en5SybzrxHITiP9scHs3pgZroDp8uKnBLX6VhOUdRsNBSA1h6cWmFGeqTMA8JhSDqLHdbQjrI6zFyLphRQ+hmAjPF3cgESoIbh7oeuER3QO+ZlvB37D/SL+ycGxL8mlMBkLiU1MKeBYDt/5/+6RT0Hsptyf2oj4QsUfkGjqIltMow20mN94kGza3pz1gDOJ7Iyd55QF1sys9YagJYkbOvGApC70jDnlAkr98/HZ/MHo7vjedEWYhtxfow6ov5PdKALGGv9Jh1sDOcSg+RwaE784lxTY7m2WcO+kJU3gTRdcX01D4wxpQPtQjL2k7A9tyQbFXXMm6cBaAOetflXAGjty/W9h3dwrPSQzInBYXRQ4uvi6TmHtAZO7lILfIrO98Z/BHCk9DXZWAPD/TEw4TV8nNwPMRsniHN1/U6F8BXa5aLa1gBUSKWpALQfsrq6GvkXDmNRznQwm3pMygAZFkmRyyFQQhbmDEJ1etReAp9du1k1yZzbjcP8fxe8I4ysnE2JZghnWmrsogGokNjTBKDr4ctvXsK+U7skp5AUu2SZHzm7r9howv9sOiJij5lDqRV3FE/aCoQ3cW0diwCTodwiKicbPqfhijXWDB1xhiMGl8PWfYfknfHYmJcqrPj00Ju6aAAqJOhJALqejuEPTrWVdz4Xu4q2YvX+hZixI0o4nr9d8iFGzOotMx2FRHQwUtctW+5prMPaydRgZOkfMbs3vl0yAvSIZ2U4hEN6x/E0mZyQ04IxC/zx40eul9/k7xqAChE2JwAVp5cmBqbJI8OsYc41wuKd46VHkFuShYyCjUg7kipalHPIzctKxJzMWAlxkLx8+o4IzEp3IDkzTmKLi3fPwop9c53E5FmF23D47F5Jqi0pL5YHgOehRmvugLgGoAIBvgBAxWXV2UQvXD54LHl33G4JiwagopdaIgAVt9EimjQAFd2kAagQioeaNAAVgtUAVAjFQ00agArBagAqhOKhJg1AhWA1ABVC8VCTBqBCsBqACqF4qEkDUCFYDUCFUDzUpAGoEGxTAEiK3i3H1mDi6nH436qxkj/IHMKJa8bJi/qzV08qzggUXjoKzm7J//H/jflMXDUWE/8cJ0mkyoP7cKMGoKJzmgrA2M0ThWycaeVWzl23qQFgTaw7kvKMExvROfT/0C0xwLmPtW99664J7RES2x5zMxMUd+PbTRqAiv5pKgA1SblCqG6aNAAVgtEAVAjFQ00agArBagAqhOKhJg1AhWDdATDYpShJsSvohCRu+8NZoG5VwTG/rn/ca5KFotpvV9EW9Ih63llTa+3XkDWLfgLD/bAwe5rq0D7dxgKlLmH+tepndFmmoiyT2cvfLPkQVXWUSRKATNrsG/8K+sR2RJ8Y4/P2lFfw4cxeyL9wUAmIvacypI7i7YRXnPtY+9a37hvXEX1jXkHqvnnKY/ty475TOyUh1jUbXANQAUAW+gye+qaUPdbVqcypq7x3A5V3az7Uqizwrn5Urdy16lEV+B9+7Ps1aNvc50HVfeWxfbXx0aNqTF79lQagawe5G4L5lDJdfbIUp3u2WNz1mlrj9415K9E1ysj0di2u0hpQoQEpJNZQhDg6SJFRawRFc90Ti+T7Jbwq5aOu4ON3DUA3ABQQRvihR/TfQXoJT9NmNBcgmus8NBOW7J6JvvEdhSVVBT4NwDpIyi2BdYn0Q3BkAH5f+w0uXj/XXP3XYs9D/pnjFw7hpxVjEBIZ4FbzWfLVGrAODWgJySrQJmv+usNLce321RYLEE9dOImciq8UIHFbqHj3LD2l3CwZultrADYAgCI8UrCR6SC8Hb5cNAybj64WlilPdWhLOe7NuzeE5Yv0HOSlEeA1gnNGA7ChALQYC+ghm0/3uEXDsCB7KvJLD7UUvDy16yy4mCfMWz8u/1jIkBg7bYjGc9WEGoBuACiMAnUNIWaohqRE7yR1FuaDJbtn4VRZ4VPrZF86EOk4SAfH2uQflo/Cu9MCRds1BHgEplDaWQ+xba0BqAAgwdcr+iWhO7O0neuT6/xuEpdLR5hcKp/PHyJF49lF24Wq9/7Du2AwtqUsBNut+zdRfDkf6w4tE1JNMsYOSOgkTGC8Vxlq66GlI/D4gPaKfhFfLnofwRHP1GKa1QBUAJDvc5n4eaAkB6Pn9m8YTa8ZO2THELQMZneNfBZ9ojvis3lDELdpkjCRklySdL3kkL51v9Jr4R2+qbl9/yau3roijAk0I7bmrxXmBXqw70ztgp7RL0C4nSMIJJNTsJ55P/hgCi8hSdzD/YRTelfhVhReOgaDdqTdE46JBqACgEwM/W31l6Kwrt+5iuSdcXh/ZlcERRNc/k8I0KkJbcOKdIKdwNGF34XG+qjkfvg5dQxiN03AguxpQgREIvB9p3cJA1XxleM4W3EKF6+fF76WG3evCWA4NQJp4Rhne1D1QNb8znYCiv8rv3lZ9uP+xZcLcOz8AXEUOKXCxiMrsThnBuK3/IZfV36OT+YOwoD4TpIkIORIdlpeXrfFlupyf6r7JvCCSawZ2U4e3EXZ01B5xyA2OlNeDE3R6zIGunsVRwDaKXq5G4cjTk0wfEY3kxnfzOyoZxhydpTJcmXZlkIsSW3pMFhLhaXK4Scap1/cqxg6LVCIhMbMHYgvFg7Dd0s/Ejvz15WfYcLK/2LS6i/x2+qvZM3vbCcD1/fLRsr/P0kZJPsPmxYMHo/DH7Uzz8MhtBYrl52FqwFgs98XgSvAC/XDV4uHY/neZCE7t4tbp2PZpWFuNwaA1u4kD0rNTRGeZXaCAMnScA0Fo7sONrVmLRo1i0qNdGomWaRyHW1QrRFcdoAJlXAjNJkTXIrrdD5AvGeGpSL8hNUrbstEqVWpuFVmieqJtQbgE+IwvvwVAFqHuXa7XGzEhK2TQS3zxDQGPkxEWRe4VL8RcJKraNq2/M7Egn9PeROT13wpbP9k9arvVaUGoIUc27opALQOQ++WqVTMd5u6NRSfpgwSVtFukc85hzzRRhLErv/NgAoEzdZGDUwbkGAzySv5vYfjBbyb1Bn07pmEm128Xfig68qXtORjrTUALUnY1k8DgLbDySbp0k6VncCGwyvAqjnabiNm9ZKQDo30kLgaVlJ29NMcHhsEVMs5sphSzWGddi9DJt0in5UJB0nAznlDZuyIwPb89ThXcdr1Vhv1XQNQIS5PAND1NAQkWfX3nMzE6gOLQGJJ1gWTpZSsqIytBYcHGBrHtO+ofZ6w49yw4TvT+F2Z8vl/08GR49hsR9Fs4QFit42c01dmMaLHn7j1D5ADmmAj8frTft+tAeiKDECykvu6CcO4esGK3f9yE0FJVlTGA4+XHpYQSUbBJqw7tBSLdk+XKbIcab8IMfhPqWMEJGPnv4vRcweAoCHN7gczexifWT0xak5f0Ov9fN47+GLhe/hm8Qf4JfVToeFluIUT3yzdMwvrDy1FxolNcj5OvkPKYAKtPvvtL9+obUcNQJswrM3m0IDWuRqzZr0JY3x3H9yRYDXBSqen/NYVmaeYNLuXK0vlw21OJsjYHz3Qa3euCrhZFsCSgepHVY05tcf+qwGoEK2vAlBxqS2+SQNQ0YUagAqheKhJA1AhWA1AhVA81KQBqBCsBqBCKB5q0gBUCFYDUCEUDzVpACoEqwGoEIqHmjQAFYJtKgBPXilA+ok0pBfUfDIK02QWSYZOVAunwtpVuAUZLvvZj+F229znbPkp1aF9uk0DUNE9TQEgY3VxWyYhJCEAwebrNaY6dU0MQC/Hi24JKjMLN6FLaDshtpTUKKZHNfATEm9kw6TsnKK4G99u0gBU9E9TAagJKhVCddOkAagQjAagQigeatIAVAhWA1AhFA81aQAqBKsBqBCKh5o0ABWCFQDGdKzFX8LcuImrxin2qGnSTkiNLBqyVVJWhMCw9lIxZ89bbNNVcawiY0UY8+rsQqFXytLE+hYdhqlPQjW/H71wQEpVmdJvlzUByHQxby9/88YFMN1p5Oy+tQDIJM4PZvWUfDlvXFdrPOfszNhaDKlSbxLlJ7O8e/uevQJA0uX+vvbrWrQRIphIf8zd2fImhPF2R6rOTx6ZgVNeryVnjjy9o19GTvF21W7N2uYVAPIO0/JSDRvQZWhgueW/p76Jvad2NqsgWtvJzlWUYEzKQKWMWVrKumd3pZzNKQuvAZCkk0MS36rliNBO4VD8n1ndceBMTnPKotWci2RGQm3CMlWXB7xzmB+CItuDQ7MvLF4D4KPH1VKHQbC5TiFggNBgzF93eLkvyKlFXMO9h/ewbG8yBie9JZV2dqfD2g50+GP49O4oq7zsE/fkNQDy7q/euoxxC4ciKEbN+8IKs26O56TI5+zVppUn+oS0PXQR5KvJKU4Xeo6giACpzLMAZ1/TvGFx+9Zjaz10JY0/rFcByMslExYNZdGEKkoKFmxH+knN7ILsJJANQC+GBFgwlVW4FT8sHQkW5NdFaWfReczh0Pv4sc+I0OsApCT4RJK5igXa9ifWuW0xB0T6Yei0IMzJjBPSxuYoa/SZnjIvhKwI9G4Nnpx3xXzhA1oXSyp/p+c7ZevvUrHnS/fkEwC0QDhgSifQRnECz1UjEoiRBn0Fp9eavPZrrDm4CAxMt+ZFGPBLD2Nl7nyZNWDQlDeMufJUToaLzPhQd49+Hsm74nH/4T2fE5PPAJCSyT2dhY+T+8lwXNcTTYCSO4VvTki7MXxGV/y04lPMz5qKQ2f2+qSgG9vzrD/OKNiIpO1h+Dth4xMAAARTSURBVHbpCJnnjg9fcGx7ZeTA9aE1uGb8hV+RrAu+uvgUACkkhmciNvyIkMhn6rRpLIEbdLRGwijb+sX/UyYtJHffopwZ2F+SJQXkfPvia0M22VJJI1x597owmTI2Grd5olDQDZsWhJ6OF2XoZNyODlmtkIqLtuP9C21IFJ2NZxG2/gdhgfBV8PG6fA6AvCjOfbE9f53QzAZGGNx71HQW6Nyt+R/aO3RoxC4K9UN3x/Myqya5liet+kLiXxsOLUNuSZYM3XRqym5ewvU7FcJ2+qD6ATjkNWXh/mRYIHvq9dsV8gCUXj8LchySKnjTkT8xP3sqItb/KLQe/eNfQ6/oF4SrhvdAZ4JDJ8HUENAJ8Kgdo/3RI+bvGLfwPWQX7wDfOPn64pMAtIRG+jVOOzUmZYAMtdQE9Q3NTnAKG5VJe2bS33JYsn8Cw9sLWRDBSTLviavGwrHxFyRtDxdHh5S6qw4sxPrDy+TNDeco2XZsLXYc3yAPCL9Ta204vAyr9i+Ua6WDxP3JMcPMnq8X/0feew9OfNPgana9Bvu1kdXeNXCs0HL2e6RmpCnSJ/ZlfLd0hICb4G8pi08D0BIiOVhW7J2L75d9hKCw9gYtrTUpS2M6jJ3J/xOcdoCaLFfkoab2FJYsG7NVg2pH7AxbFstWlDF0ijYm8CyAmdegCsA7waUCnnXtJC8nGTmDyjO7Ce90VtE2VFW3HOBZfdsiAGhdbOXda0ImTsN8aFKgoc3MEINoNg7TjQWkqqN9pc3+kJiak2AemNAJf6z7FhvyUnG6vMgST4tctygAWhKm8X7xxnlwPpCYTRMwLCkY3aOeR5cwI2jttAEtLekrgKrnOmj/Gd6raccSdGH+Yse+P70rIjaMl+Gf9G53H96xxNGi1y0SgHaJkwaN86blnduHRbtnYPzyMcKo3z/hNbG5qDE4hMqwahJONtiOrAcwdQ6XdewrQ7FFyUu2fpNBn2ZBT8cL8tZn1Jy3MWn1F5Kzd+LiEdy+f0ucM/u9t4btFg9AVScwrHH47F6ZoCZ+828Yv3y0EEmS1LxPzCviTbPTmRVsdb5oTRsjqjGkG06BOAaW3WYHltXmtCkNJ0dCITQNTLZUeqdyvjjjfNR0PaL+DjomBBqdh9C13yE5M06YUkvKi3yGX1Al36fZ1ioBqBLQ1dtlEmvjS3tOgzVvVyKmbgtF2Lof8POKTzBuwVDQGyZIByW8Ia8GOcMQtRw1FjUpQyNCtWtpVIZKLGZ+Fr1HdpD9aKMNTQoSVtVxC4fJA8B5jxO2/Ib5WYlCGcwg85Hzubh04zxoUrTVpc0A0F0Hs8jpzv1bMoUXOaX5Wo80unnncyVRYs/JDKH84LRXnFGJVLvpx0kJslG+cxYk2qL834GSbNmP9L/Fl49LaQEpQVgD4yuMqe7k4K32Ng9Abwlen9eQgAagRoJXJaAB6FXx65NrAGoMeFUCGoBeFb8+uQagxoBXJfD/r7bROdahOygAAAAASUVORK5CYII=;fontStyle=1;fontSize=14;fontFamily=Roboto;fontSource=https%3A%2F%2Ffonts.googleapis.com%2Fcss%3Ffamily%3DRoboto;" parent="CfrTAI6IJdZGCownLg8x-1" vertex="1">
                    <mxGeometry x="664.0799999999999" y="195" width="84" height="84" as="geometry"/>
                </mxCell>
                <mxCell id="ywhm_qf11wEO3LLCmJEl-17" value="&lt;div style=&quot;margin-top: 0pt ; margin-bottom: 0pt ; margin-left: 0.19in ; text-indent: -0.19in ; direction: ltr ; unicode-bidi: embed ; word-break: normal ; font-size: 14px&quot;&gt;&lt;font color=&quot;#000000&quot;&gt;OpenSearch&lt;/font&gt;&lt;/div&gt;&lt;div style=&quot;margin-top: 0pt ; margin-bottom: 0pt ; margin-left: 0.19in ; text-indent: -0.19in ; direction: ltr ; unicode-bidi: embed ; word-break: normal ; font-size: 14px&quot;&gt;&lt;font color=&quot;#000000&quot;&gt;Azure Monitor&lt;/font&gt;&lt;/div&gt;&lt;div style=&quot;margin-top: 0pt ; margin-bottom: 0pt ; margin-left: 0.19in ; text-indent: -0.19in ; direction: ltr ; unicode-bidi: embed ; word-break: normal ; font-size: 14px&quot;&gt;&lt;font color=&quot;#000000&quot;&gt;AWS CloudWatch&lt;/font&gt;&lt;/div&gt;&lt;div style=&quot;margin-top: 0pt ; margin-bottom: 0pt ; margin-left: 0.19in ; text-indent: -0.19in ; direction: ltr ; unicode-bidi: embed ; word-break: normal ; font-size: 14px&quot;&gt;&lt;font color=&quot;#000000&quot;&gt;Google Cloud Monitoring&lt;/font&gt;&lt;/div&gt;&lt;div style=&quot;margin-top: 0pt ; margin-bottom: 0pt ; margin-left: 0.19in ; text-indent: -0.19in ; direction: ltr ; unicode-bidi: embed ; word-break: normal ; font-size: 14px&quot;&gt;&lt;font color=&quot;#000000&quot;&gt;ElasticSearch&lt;/font&gt;&lt;/div&gt;" style="text;whiteSpace=wrap;html=1;fontFamily=Roboto;fontSource=https%3A%2F%2Ffonts.googleapis.com%2Fcss%3Ffamily%3DRoboto;labelBackgroundColor=none;spacingTop=0;spacing=3;fillColor=#f5f5f5;fontColor=#333333;strokeColor=none;align=center;" parent="CfrTAI6IJdZGCownLg8x-1" vertex="1">
                    <mxGeometry x="999.77" y="402.75" width="169.46" height="93" as="geometry"/>
                </mxCell>
                <mxCell id="ywhm_qf11wEO3LLCmJEl-18" value="&lt;div style=&quot;margin-top: 0pt ; margin-bottom: 0pt ; margin-left: 0.19in ; text-indent: -0.19in ; direction: ltr ; unicode-bidi: embed ; word-break: normal ; font-size: 14px&quot;&gt;&lt;font color=&quot;#000000&quot;&gt;Redis&lt;/font&gt;&lt;/div&gt;&lt;div style=&quot;margin-top: 0pt ; margin-bottom: 0pt ; margin-left: 0.19in ; text-indent: -0.19in ; direction: ltr ; unicode-bidi: embed ; word-break: normal ; font-size: 14px&quot;&gt;&lt;font color=&quot;#000000&quot;&gt;AWS ElastiCache&lt;/font&gt;&lt;/div&gt;&lt;div style=&quot;margin-top: 0pt ; margin-bottom: 0pt ; margin-left: 0.19in ; text-indent: -0.19in ; direction: ltr ; unicode-bidi: embed ; word-break: normal ; font-size: 14px&quot;&gt;&lt;font color=&quot;#000000&quot;&gt;Memcached&lt;/font&gt;&lt;/div&gt;&lt;div style=&quot;margin-top: 0pt ; margin-bottom: 0pt ; margin-left: 0.19in ; text-indent: -0.19in ; direction: ltr ; unicode-bidi: embed ; word-break: normal ; font-size: 14px&quot;&gt;&lt;font color=&quot;#000000&quot;&gt;Azure Cache for Redis&lt;/font&gt;&lt;/div&gt;&lt;div style=&quot;margin-top: 0pt ; margin-bottom: 0pt ; margin-left: 0.19in ; text-indent: -0.19in ; direction: ltr ; unicode-bidi: embed ; word-break: normal ; font-size: 14px&quot;&gt;&lt;font color=&quot;#000000&quot;&gt;GCP MemoryStore&lt;/font&gt;&lt;/div&gt;" style="text;whiteSpace=wrap;html=1;fontFamily=Roboto;fontSource=https%3A%2F%2Ffonts.googleapis.com%2Fcss%3Ffamily%3DRoboto;labelBackgroundColor=none;spacingTop=0;spacing=3;fillColor=#f5f5f5;fontColor=#333333;strokeColor=none;align=center;" parent="CfrTAI6IJdZGCownLg8x-1" vertex="1">
                    <mxGeometry x="342" y="547" width="149.5" height="93" as="geometry"/>
                </mxCell>
                <mxCell id="ywhm_qf11wEO3LLCmJEl-19" value="&lt;div style=&quot;margin-top: 0pt ; margin-bottom: 0pt ; margin-left: 0.19in ; text-indent: -0.19in ; direction: ltr ; unicode-bidi: embed ; word-break: normal ; font-size: 14px&quot;&gt;&lt;font color=&quot;#000000&quot;&gt;OpenSearch&lt;/font&gt;&lt;/div&gt;&lt;div style=&quot;margin-top: 0pt ; margin-bottom: 0pt ; margin-left: 0.19in ; text-indent: -0.19in ; direction: ltr ; unicode-bidi: embed ; word-break: normal ; font-size: 14px&quot;&gt;&lt;font color=&quot;#000000&quot;&gt;ElastiSearch&lt;/font&gt;&lt;/div&gt;&lt;div style=&quot;margin-top: 0pt ; margin-bottom: 0pt ; margin-left: 0.19in ; text-indent: -0.19in ; direction: ltr ; unicode-bidi: embed ; word-break: normal ; font-size: 14px&quot;&gt;&lt;font color=&quot;#000000&quot;&gt;Apache Solr&lt;/font&gt;&lt;/div&gt;&lt;div style=&quot;margin-top: 0pt ; margin-bottom: 0pt ; margin-left: 0.19in ; text-indent: -0.19in ; direction: ltr ; unicode-bidi: embed ; word-break: normal ; font-size: 14px&quot;&gt;&lt;font color=&quot;#000000&quot;&gt;ArangoDB, etc.&lt;/font&gt;&lt;/div&gt;" style="text;whiteSpace=wrap;html=1;fontFamily=Roboto;fontSource=https%3A%2F%2Ffonts.googleapis.com%2Fcss%3Ffamily%3DRoboto;labelBackgroundColor=none;spacingTop=0;spacing=3;fillColor=#f5f5f5;fontColor=#333333;strokeColor=none;align=center;" parent="CfrTAI6IJdZGCownLg8x-1" vertex="1">
                    <mxGeometry x="525.64" y="677" width="117.5" height="83" as="geometry"/>
                </mxCell>
                <mxCell id="ywhm_qf11wEO3LLCmJEl-20" value="&lt;div style=&quot;margin-top: 0pt ; margin-bottom: 0pt ; margin-left: 0.19in ; text-indent: -0.19in ; direction: ltr ; unicode-bidi: embed ; word-break: normal ; font-size: 14px&quot;&gt;&lt;font color=&quot;#000000&quot;&gt;Kafka&lt;/font&gt;&lt;/div&gt;&lt;div style=&quot;margin-top: 0pt ; margin-bottom: 0pt ; margin-left: 0.19in ; text-indent: -0.19in ; direction: ltr ; unicode-bidi: embed ; word-break: normal ; font-size: 14px&quot;&gt;&lt;font color=&quot;#000000&quot;&gt;AWS Kinesis&lt;/font&gt;&lt;/div&gt;&lt;div style=&quot;margin-top: 0pt ; margin-bottom: 0pt ; margin-left: 0.19in ; text-indent: -0.19in ; direction: ltr ; unicode-bidi: embed ; word-break: normal ; font-size: 14px&quot;&gt;&lt;font color=&quot;#000000&quot;&gt;Azure Event Hub&lt;/font&gt;&lt;/div&gt;&lt;div style=&quot;margin-top: 0pt ; margin-bottom: 0pt ; margin-left: 0.19in ; text-indent: -0.19in ; direction: ltr ; unicode-bidi: embed ; word-break: normal ; font-size: 14px&quot;&gt;&lt;font color=&quot;#000000&quot;&gt;GCP Pub/Sub&lt;/font&gt;&lt;/div&gt;&lt;div style=&quot;margin-top: 0pt ; margin-bottom: 0pt ; margin-left: 0.19in ; text-indent: -0.19in ; direction: ltr ; unicode-bidi: embed ; word-break: normal ; font-size: 14px&quot;&gt;&lt;font color=&quot;#000000&quot;&gt;&lt;br&gt;&lt;/font&gt;&lt;/div&gt;" style="text;whiteSpace=wrap;html=1;fontFamily=Roboto;fontSource=https%3A%2F%2Ffonts.googleapis.com%2Fcss%3Ffamily%3DRoboto;labelBackgroundColor=none;spacingTop=0;spacing=3;fillColor=#f5f5f5;fontColor=#333333;strokeColor=none;align=center;" parent="CfrTAI6IJdZGCownLg8x-1" vertex="1">
                    <mxGeometry x="649" y="467" width="117.5" height="83" as="geometry"/>
                </mxCell>
                <mxCell id="ywhm_qf11wEO3LLCmJEl-21" value="&lt;div style=&quot;margin-top: 0pt ; margin-bottom: 0pt ; margin-left: 0.19in ; text-indent: -0.19in ; direction: ltr ; unicode-bidi: embed ; word-break: normal ; font-size: 14px&quot;&gt;&lt;font color=&quot;#000000&quot;&gt;AWS S3&lt;/font&gt;&lt;/div&gt;&lt;div style=&quot;margin-top: 0pt ; margin-bottom: 0pt ; margin-left: 0.19in ; text-indent: -0.19in ; direction: ltr ; unicode-bidi: embed ; word-break: normal ; font-size: 14px&quot;&gt;&lt;font color=&quot;#000000&quot;&gt;GCP Cloud Storage&lt;/font&gt;&lt;/div&gt;&lt;div style=&quot;margin-top: 0pt ; margin-bottom: 0pt ; margin-left: 0.19in ; text-indent: -0.19in ; direction: ltr ; unicode-bidi: embed ; word-break: normal ; font-size: 14px&quot;&gt;&lt;font color=&quot;#000000&quot;&gt;Azure Blob Storage&lt;/font&gt;&lt;/div&gt;&lt;div style=&quot;margin-top: 0pt ; margin-bottom: 0pt ; margin-left: 0.19in ; text-indent: -0.19in ; direction: ltr ; unicode-bidi: embed ; word-break: normal ; font-size: 14px&quot;&gt;&lt;font color=&quot;#000000&quot;&gt;Local SAN&lt;/font&gt;&lt;/div&gt;" style="text;whiteSpace=wrap;html=1;fontFamily=Roboto;fontSource=https%3A%2F%2Ffonts.googleapis.com%2Fcss%3Ffamily%3DRoboto;labelBackgroundColor=none;spacingTop=0;spacing=3;fillColor=#f5f5f5;fontColor=#333333;strokeColor=none;align=center;" parent="CfrTAI6IJdZGCownLg8x-1" vertex="1">
                    <mxGeometry x="773.54" y="673" width="128" height="83" as="geometry"/>
                </mxCell>
                <mxCell id="ywhm_qf11wEO3LLCmJEl-22" value="&lt;div style=&quot;margin-top: 0pt ; margin-bottom: 0pt ; margin-left: 0.19in ; text-indent: -0.19in ; direction: ltr ; unicode-bidi: embed ; word-break: normal ; font-size: 14px&quot;&gt;&lt;font color=&quot;#000000&quot;&gt;AWS RedShift&lt;/font&gt;&lt;/div&gt;&lt;div style=&quot;margin-top: 0pt ; margin-bottom: 0pt ; margin-left: 0.19in ; text-indent: -0.19in ; direction: ltr ; unicode-bidi: embed ; word-break: normal ; font-size: 14px&quot;&gt;&lt;font color=&quot;#000000&quot;&gt;GCP BigQuery&lt;/font&gt;&lt;/div&gt;&lt;div style=&quot;margin-top: 0pt ; margin-bottom: 0pt ; margin-left: 0.19in ; text-indent: -0.19in ; direction: ltr ; unicode-bidi: embed ; word-break: normal ; font-size: 14px&quot;&gt;&lt;font color=&quot;#000000&quot;&gt;Azure Synapse, etc.&lt;/font&gt;&lt;/div&gt;&lt;div style=&quot;margin-top: 0pt ; margin-bottom: 0pt ; margin-left: 0.19in ; text-indent: -0.19in ; direction: ltr ; unicode-bidi: embed ; word-break: normal ; font-size: 14px&quot;&gt;&lt;font color=&quot;#000000&quot;&gt;Looker, SSAS, Qlik, etc.&lt;/font&gt;&lt;/div&gt;" style="text;whiteSpace=wrap;html=1;fontFamily=Roboto;fontSource=https%3A%2F%2Ffonts.googleapis.com%2Fcss%3Ffamily%3DRoboto;labelBackgroundColor=none;spacingTop=0;spacing=3;fillColor=#f5f5f5;fontColor=#333333;strokeColor=none;align=center;" parent="CfrTAI6IJdZGCownLg8x-1" vertex="1">
                    <mxGeometry x="966" y="692" width="153" height="83" as="geometry"/>
                </mxCell>
                <mxCell id="ywhm_qf11wEO3LLCmJEl-23" value="" style="shape=mxgraph.pid.fittings.funnel;html=1;pointerEvents=1;align=center;verticalLabelPosition=bottom;verticalAlign=top;dashed=0;labelBackgroundColor=#FFFFFF;labelBorderColor=none;fontFamily=Roboto;fontSource=https%3A%2F%2Ffonts.googleapis.com%2Fcss%3Ffamily%3DRoboto;fontSize=14;fontColor=#FFFF66;fillColor=#FFFFCC;rotation=-90;" parent="CfrTAI6IJdZGCownLg8x-1" vertex="1">
                    <mxGeometry x="955" y="299.25" width="106" height="83" as="geometry"/>
                </mxCell>
                <mxCell id="ywhm_qf11wEO3LLCmJEl-24" value="&lt;font color=&quot;#000000&quot;&gt;materialized&amp;nbsp;&lt;br&gt;views via functions&lt;/font&gt;" style="edgeStyle=orthogonalEdgeStyle;html=1;entryX=1;entryY=0.75;entryDx=0;entryDy=0;fontFamily=Roboto;fontSource=https%3A%2F%2Ffonts.googleapis.com%2Fcss%3Ffamily%3DRoboto;fontSize=14;fontColor=#FFFF66;curved=1;exitX=1;exitY=0.5;exitDx=0;exitDy=0;exitPerimeter=0;dashed=1;dashPattern=1 1;" parent="CfrTAI6IJdZGCownLg8x-1" source="J4FsH6nvaK422gFsXfy2-1" target="DxX6kWGsLIK-X17QB3a--1" edge="1">
                    <mxGeometry x="-0.1211" relative="1" as="geometry">
                        <mxPoint x="419.8743999999999" y="288" as="sourcePoint"/>
                        <mxPoint x="286" y="487.15999999999985" as="targetPoint"/>
                        <Array as="points">
                            <mxPoint x="825" y="398"/>
                            <mxPoint x="825" y="258"/>
                        </Array>
                        <mxPoint as="offset"/>
                    </mxGeometry>
                </mxCell>
            </root>
        </mxGraphModel>
    </diagram>
    <diagram id="LyAIPhCz9biKnZ-YyT4u" name="distributed-db">
        <mxGraphModel dx="1288" dy="861" grid="0" gridSize="10" guides="1" tooltips="1" connect="1" arrows="1" fold="1" page="1" pageScale="1" pageWidth="850" pageHeight="1100" math="0" shadow="0">
            <root>
                <mxCell id="D60lc3ob_WJgCQMV0304-0"/>
                <mxCell id="D60lc3ob_WJgCQMV0304-1" parent="D60lc3ob_WJgCQMV0304-0"/>
                <mxCell id="D60lc3ob_WJgCQMV0304-8" style="edgeStyle=orthogonalEdgeStyle;curved=1;html=1;entryX=0.5;entryY=0;entryDx=0;entryDy=0;" parent="D60lc3ob_WJgCQMV0304-1" source="D60lc3ob_WJgCQMV0304-2" target="D60lc3ob_WJgCQMV0304-3" edge="1">
                    <mxGeometry relative="1" as="geometry"/>
                </mxCell>
                <mxCell id="D60lc3ob_WJgCQMV0304-2" value="" style="aspect=fixed;perimeter=ellipsePerimeter;html=1;align=center;shadow=0;dashed=0;spacingTop=3;image;image=img/lib/active_directory/database.svg;" parent="D60lc3ob_WJgCQMV0304-1" vertex="1">
                    <mxGeometry x="297" y="126" width="50" height="37" as="geometry"/>
                </mxCell>
                <mxCell id="D60lc3ob_WJgCQMV0304-9" style="edgeStyle=orthogonalEdgeStyle;curved=1;html=1;entryX=1;entryY=0.5;entryDx=0;entryDy=0;exitX=1;exitY=0.5;exitDx=0;exitDy=0;" parent="D60lc3ob_WJgCQMV0304-1" source="D60lc3ob_WJgCQMV0304-3" target="D60lc3ob_WJgCQMV0304-4" edge="1">
                    <mxGeometry relative="1" as="geometry"/>
                </mxCell>
                <mxCell id="D60lc3ob_WJgCQMV0304-3" value="" style="aspect=fixed;perimeter=ellipsePerimeter;html=1;align=center;shadow=0;dashed=0;spacingTop=3;image;image=img/lib/active_directory/database.svg;" parent="D60lc3ob_WJgCQMV0304-1" vertex="1">
                    <mxGeometry x="362" y="166" width="50" height="37" as="geometry"/>
                </mxCell>
                <mxCell id="D60lc3ob_WJgCQMV0304-10" style="edgeStyle=orthogonalEdgeStyle;curved=1;html=1;exitX=0.5;exitY=1;exitDx=0;exitDy=0;entryX=0.5;entryY=1;entryDx=0;entryDy=0;" parent="D60lc3ob_WJgCQMV0304-1" source="D60lc3ob_WJgCQMV0304-4" target="D60lc3ob_WJgCQMV0304-5" edge="1">
                    <mxGeometry relative="1" as="geometry">
                        <Array as="points">
                            <mxPoint x="357" y="286"/>
                            <mxPoint x="277" y="286"/>
                        </Array>
                    </mxGeometry>
                </mxCell>
                <mxCell id="D60lc3ob_WJgCQMV0304-4" value="" style="aspect=fixed;perimeter=ellipsePerimeter;html=1;align=center;shadow=0;dashed=0;spacingTop=3;image;image=img/lib/active_directory/database.svg;" parent="D60lc3ob_WJgCQMV0304-1" vertex="1">
                    <mxGeometry x="332" y="226" width="50" height="37" as="geometry"/>
                </mxCell>
                <mxCell id="D60lc3ob_WJgCQMV0304-11" style="edgeStyle=orthogonalEdgeStyle;curved=1;html=1;entryX=0;entryY=0.5;entryDx=0;entryDy=0;exitX=0;exitY=0.5;exitDx=0;exitDy=0;" parent="D60lc3ob_WJgCQMV0304-1" source="D60lc3ob_WJgCQMV0304-5" target="D60lc3ob_WJgCQMV0304-6" edge="1">
                    <mxGeometry relative="1" as="geometry">
                        <Array as="points">
                            <mxPoint x="212" y="245"/>
                            <mxPoint x="212" y="185"/>
                        </Array>
                    </mxGeometry>
                </mxCell>
                <mxCell id="D60lc3ob_WJgCQMV0304-5" value="" style="aspect=fixed;perimeter=ellipsePerimeter;html=1;align=center;shadow=0;dashed=0;spacingTop=3;image;image=img/lib/active_directory/database.svg;" parent="D60lc3ob_WJgCQMV0304-1" vertex="1">
                    <mxGeometry x="252" y="226" width="50" height="37" as="geometry"/>
                </mxCell>
                <mxCell id="D60lc3ob_WJgCQMV0304-7" style="edgeStyle=orthogonalEdgeStyle;html=1;entryX=0;entryY=0.5;entryDx=0;entryDy=0;curved=1;exitX=0.5;exitY=0;exitDx=0;exitDy=0;" parent="D60lc3ob_WJgCQMV0304-1" source="D60lc3ob_WJgCQMV0304-6" target="D60lc3ob_WJgCQMV0304-2" edge="1">
                    <mxGeometry relative="1" as="geometry"/>
                </mxCell>
                <mxCell id="D60lc3ob_WJgCQMV0304-6" value="" style="aspect=fixed;perimeter=ellipsePerimeter;html=1;align=center;shadow=0;dashed=0;spacingTop=3;image;image=img/lib/active_directory/database.svg;" parent="D60lc3ob_WJgCQMV0304-1" vertex="1">
                    <mxGeometry x="232" y="166" width="50" height="37" as="geometry"/>
                </mxCell>
                <mxCell id="nN-GH3vx9P133VRcQgwC-1" value="WRITE" style="edgeStyle=orthogonalEdgeStyle;curved=1;html=1;entryX=0;entryY=1;entryDx=0;entryDy=0;fillColor=#d5e8d4;strokeColor=#82b366;" parent="D60lc3ob_WJgCQMV0304-1" source="nN-GH3vx9P133VRcQgwC-0" target="D60lc3ob_WJgCQMV0304-5" edge="1">
                    <mxGeometry relative="1" as="geometry"/>
                </mxCell>
                <mxCell id="nN-GH3vx9P133VRcQgwC-0" value="" style="outlineConnect=0;fontColor=#232F3E;gradientColor=none;fillColor=#232F3E;strokeColor=none;dashed=0;verticalLabelPosition=bottom;verticalAlign=top;align=center;html=1;fontSize=12;fontStyle=0;aspect=fixed;pointerEvents=1;shape=mxgraph.aws4.users;fontFamily=Roboto;fontSource=https%3A%2F%2Ffonts.googleapis.com%2Fcss%3Ffamily%3DRoboto;" parent="D60lc3ob_WJgCQMV0304-1" vertex="1">
                    <mxGeometry x="141" y="263" width="53" height="53" as="geometry"/>
                </mxCell>
                <mxCell id="nN-GH3vx9P133VRcQgwC-3" value="READ" style="edgeStyle=orthogonalEdgeStyle;curved=1;html=1;entryX=1;entryY=0;entryDx=0;entryDy=0;fillColor=#d5e8d4;strokeColor=#82b366;" parent="D60lc3ob_WJgCQMV0304-1" source="nN-GH3vx9P133VRcQgwC-2" target="D60lc3ob_WJgCQMV0304-3" edge="1">
                    <mxGeometry x="-0.1356" relative="1" as="geometry">
                        <mxPoint as="offset"/>
                    </mxGeometry>
                </mxCell>
                <mxCell id="nN-GH3vx9P133VRcQgwC-2" value="" style="outlineConnect=0;fontColor=#232F3E;gradientColor=none;fillColor=#232F3E;strokeColor=none;dashed=0;verticalLabelPosition=bottom;verticalAlign=top;align=center;html=1;fontSize=12;fontStyle=0;aspect=fixed;pointerEvents=1;shape=mxgraph.aws4.users;fontFamily=Roboto;fontSource=https%3A%2F%2Ffonts.googleapis.com%2Fcss%3Ffamily%3DRoboto;" parent="D60lc3ob_WJgCQMV0304-1" vertex="1">
                    <mxGeometry x="478" y="114" width="49" height="49" as="geometry"/>
                </mxCell>
                <mxCell id="nN-GH3vx9P133VRcQgwC-4" style="edgeStyle=orthogonalEdgeStyle;curved=1;html=1;exitX=0.5;exitY=1;exitDx=0;exitDy=0;entryX=0.5;entryY=1;entryDx=0;entryDy=0;" parent="D60lc3ob_WJgCQMV0304-1" edge="1">
                    <mxGeometry relative="1" as="geometry">
                        <mxPoint x="357" y="263" as="sourcePoint"/>
                        <mxPoint x="277" y="263" as="targetPoint"/>
                        <Array as="points">
                            <mxPoint x="357" y="286"/>
                            <mxPoint x="277" y="286"/>
                        </Array>
                    </mxGeometry>
                </mxCell>
                <mxCell id="nN-GH3vx9P133VRcQgwC-5" style="edgeStyle=orthogonalEdgeStyle;curved=1;html=1;entryX=0;entryY=0.5;entryDx=0;entryDy=0;exitX=0;exitY=0.5;exitDx=0;exitDy=0;" parent="D60lc3ob_WJgCQMV0304-1" edge="1">
                    <mxGeometry relative="1" as="geometry">
                        <mxPoint x="252" y="244.5" as="sourcePoint"/>
                        <mxPoint x="232" y="184.5" as="targetPoint"/>
                        <Array as="points">
                            <mxPoint x="212" y="245"/>
                            <mxPoint x="212" y="185"/>
                        </Array>
                    </mxGeometry>
                </mxCell>
                <mxCell id="nN-GH3vx9P133VRcQgwC-6" style="edgeStyle=orthogonalEdgeStyle;curved=1;html=1;exitX=0.5;exitY=1;exitDx=0;exitDy=0;entryX=0.5;entryY=1;entryDx=0;entryDy=0;dashed=1;dashPattern=1 1;strokeColor=default;fillColor=#dae8fc;fontColor=#6600CC;" parent="D60lc3ob_WJgCQMV0304-1" edge="1">
                    <mxGeometry relative="1" as="geometry">
                        <mxPoint x="357" y="263" as="sourcePoint"/>
                        <mxPoint x="277" y="263" as="targetPoint"/>
                        <Array as="points">
                            <mxPoint x="357" y="286"/>
                            <mxPoint x="277" y="286"/>
                        </Array>
                    </mxGeometry>
                </mxCell>
                <mxCell id="nN-GH3vx9P133VRcQgwC-7" style="edgeStyle=orthogonalEdgeStyle;curved=1;html=1;entryX=0;entryY=0.5;entryDx=0;entryDy=0;exitX=0;exitY=0.5;exitDx=0;exitDy=0;" parent="D60lc3ob_WJgCQMV0304-1" edge="1">
                    <mxGeometry relative="1" as="geometry">
                        <mxPoint x="252" y="244.5" as="sourcePoint"/>
                        <mxPoint x="232" y="184.5" as="targetPoint"/>
                        <Array as="points">
                            <mxPoint x="212" y="245"/>
                            <mxPoint x="212" y="185"/>
                        </Array>
                    </mxGeometry>
                </mxCell>
            </root>
        </mxGraphModel>
    </diagram>
    <diagram id="MWrzkAFjvzAEi7KD8_iT" name="0.2.0">
        <mxGraphModel grid="0" gridSize="10" guides="1" tooltips="1" connect="1" arrows="1" page="1" fold="1" pageScale="1" pageWidth="850" pageHeight="1100" math="0" shadow="0">
            <root>
                <mxCell id="WxQEnVzAwdVusixksZRT-0"/>
                <mxCell id="WxQEnVzAwdVusixksZRT-1" parent="WxQEnVzAwdVusixksZRT-0"/>
                <mxCell id="_dSBJicLTxyUlJN42qrm-0" value="" style="rounded=0;whiteSpace=wrap;html=1;shadow=0;fillColor=none;strokeColor=#000000;fontFamily=Roboto;fontSource=https%3A%2F%2Ffonts.googleapis.com%2Fcss%3Ffamily%3DRoboto;" parent="WxQEnVzAwdVusixksZRT-1" vertex="1">
                    <mxGeometry x="150" y="85" width="676" height="677" as="geometry"/>
                </mxCell>
                <mxCell id="_dSBJicLTxyUlJN42qrm-1" style="edgeStyle=orthogonalEdgeStyle;html=1;fontFamily=Roboto;fontSource=https%3A%2F%2Ffonts.googleapis.com%2Fcss%3Ffamily%3DRoboto;fontSize=14;fontColor=#FFFF66;rounded=0;" parent="WxQEnVzAwdVusixksZRT-1" source="_dSBJicLTxyUlJN42qrm-3" target="_dSBJicLTxyUlJN42qrm-7" edge="1">
                    <mxGeometry relative="1" as="geometry"/>
                </mxCell>
                <mxCell id="_dSBJicLTxyUlJN42qrm-2" style="edgeStyle=orthogonalEdgeStyle;rounded=0;html=1;entryX=0;entryY=0.5;entryDx=0;entryDy=0;fontFamily=Roboto;fontSource=https%3A%2F%2Ffonts.googleapis.com%2Fcss%3Ffamily%3DRoboto;fontSize=14;fontColor=#FFFF66;" parent="WxQEnVzAwdVusixksZRT-1" source="_dSBJicLTxyUlJN42qrm-3" target="_dSBJicLTxyUlJN42qrm-8" edge="1">
                    <mxGeometry relative="1" as="geometry">
                        <Array as="points">
                            <mxPoint x="130" y="237"/>
                            <mxPoint x="130" y="412"/>
                        </Array>
                    </mxGeometry>
                </mxCell>
                <mxCell id="_dSBJicLTxyUlJN42qrm-3" value="" style="outlineConnect=0;fontColor=#232F3E;gradientColor=none;fillColor=#232F3E;strokeColor=none;dashed=0;verticalLabelPosition=bottom;verticalAlign=top;align=center;html=1;fontSize=12;fontStyle=0;aspect=fixed;pointerEvents=1;shape=mxgraph.aws4.users;fontFamily=Roboto;fontSource=https%3A%2F%2Ffonts.googleapis.com%2Fcss%3Ffamily%3DRoboto;" parent="WxQEnVzAwdVusixksZRT-1" vertex="1">
                    <mxGeometry x="30" y="198" width="78" height="78" as="geometry"/>
                </mxCell>
                <mxCell id="_dSBJicLTxyUlJN42qrm-6" style="edgeStyle=orthogonalEdgeStyle;html=1;entryX=0.16;entryY=0.5;entryDx=0;entryDy=0;entryPerimeter=0;fontFamily=Roboto;fontSource=https%3A%2F%2Ffonts.googleapis.com%2Fcss%3Ffamily%3DRoboto;fontSize=14;fontColor=#FFFF66;rounded=0;" parent="WxQEnVzAwdVusixksZRT-1" source="_dSBJicLTxyUlJN42qrm-7" target="_dSBJicLTxyUlJN42qrm-31" edge="1">
                    <mxGeometry relative="1" as="geometry"/>
                </mxCell>
                <mxCell id="_dSBJicLTxyUlJN42qrm-7" value="API Front End" style="sketch=0;outlineConnect=0;fontColor=#232F3E;gradientColor=none;fillColor=#4D27AA;strokeColor=none;dashed=0;verticalLabelPosition=bottom;verticalAlign=top;align=center;html=1;fontSize=14;fontStyle=1;aspect=fixed;pointerEvents=1;shape=mxgraph.aws4.gateway;fontFamily=Roboto;fontSource=https%3A%2F%2Ffonts.googleapis.com%2Fcss%3Ffamily%3DRoboto;" parent="WxQEnVzAwdVusixksZRT-1" vertex="1">
                    <mxGeometry x="208" y="198" width="76" height="78" as="geometry"/>
                </mxCell>
                <mxCell id="_dSBJicLTxyUlJN42qrm-8" value="Identity / Authentication" style="shape=image;verticalLabelPosition=bottom;labelBackgroundColor=#ffffff;verticalAlign=top;aspect=fixed;imageAspect=0;image=https://oauth.net/images/oauth-2-sm.png;fontStyle=1;fontSize=14;fontFamily=Roboto;fontSource=https%3A%2F%2Ffonts.googleapis.com%2Fcss%3Ffamily%3DRoboto;" parent="WxQEnVzAwdVusixksZRT-1" vertex="1">
                    <mxGeometry x="209.69" y="372.75" width="78.63" height="78" as="geometry"/>
                </mxCell>
                <mxCell id="_dSBJicLTxyUlJN42qrm-9" style="edgeStyle=orthogonalEdgeStyle;html=1;fontFamily=Roboto;fontSource=https%3A%2F%2Ffonts.googleapis.com%2Fcss%3Ffamily%3DRoboto;fontSize=14;fontColor=#FFFF66;rounded=0;exitX=0.9;exitY=0.5;exitDx=0;exitDy=0;exitPerimeter=0;" parent="WxQEnVzAwdVusixksZRT-1" source="_dSBJicLTxyUlJN42qrm-31" target="_dSBJicLTxyUlJN42qrm-32" edge="1">
                    <mxGeometry relative="1" as="geometry"/>
                </mxCell>
                <mxCell id="_dSBJicLTxyUlJN42qrm-12" style="edgeStyle=orthogonalEdgeStyle;html=1;entryX=-0.005;entryY=0.525;entryDx=0;entryDy=0;entryPerimeter=0;fontFamily=Roboto;fontSource=https%3A%2F%2Ffonts.googleapis.com%2Fcss%3Ffamily%3DRoboto;fontSize=14;fontColor=#FFFF66;rounded=0;" parent="WxQEnVzAwdVusixksZRT-1" source="_dSBJicLTxyUlJN42qrm-31" target="_dSBJicLTxyUlJN42qrm-26" edge="1">
                    <mxGeometry relative="1" as="geometry">
                        <Array as="points">
                            <mxPoint x="508" y="237"/>
                            <mxPoint x="508" y="412"/>
                        </Array>
                    </mxGeometry>
                </mxCell>
                <mxCell id="_dSBJicLTxyUlJN42qrm-13" style="edgeStyle=orthogonalEdgeStyle;rounded=0;html=1;fontFamily=Roboto;fontSource=https%3A%2F%2Ffonts.googleapis.com%2Fcss%3Ffamily%3DRoboto;fontSize=14;fontColor=#FFFF66;exitX=0.9;exitY=0.5;exitDx=0;exitDy=0;exitPerimeter=0;" parent="WxQEnVzAwdVusixksZRT-1" source="_dSBJicLTxyUlJN42qrm-31" target="_dSBJicLTxyUlJN42qrm-26" edge="1">
                    <mxGeometry relative="1" as="geometry">
                        <mxPoint x="584.395" y="516.1600000000001" as="sourcePoint"/>
                    </mxGeometry>
                </mxCell>
                <mxCell id="_dSBJicLTxyUlJN42qrm-41" value="Temporary &lt;br&gt;Data Out" style="edgeLabel;html=1;align=center;verticalAlign=middle;resizable=0;points=[];" parent="_dSBJicLTxyUlJN42qrm-13" vertex="1" connectable="0">
                    <mxGeometry x="-0.1592" y="5" relative="1" as="geometry">
                        <mxPoint as="offset"/>
                    </mxGeometry>
                </mxCell>
                <mxCell id="_dSBJicLTxyUlJN42qrm-15" style="edgeStyle=orthogonalEdgeStyle;rounded=0;html=1;fontFamily=Roboto;fontSource=https%3A%2F%2Ffonts.googleapis.com%2Fcss%3Ffamily%3DRoboto;fontSize=14;fontColor=#FFFF66;" parent="WxQEnVzAwdVusixksZRT-1" source="_dSBJicLTxyUlJN42qrm-32" target="_dSBJicLTxyUlJN42qrm-24" edge="1">
                    <mxGeometry relative="1" as="geometry"/>
                </mxCell>
                <mxCell id="_dSBJicLTxyUlJN42qrm-20" value="&lt;b&gt;&lt;font style=&quot;font-size: 14px&quot;&gt;Log Monitoring&lt;/font&gt;&lt;/b&gt;" style="aspect=fixed;html=1;points=[];align=center;image;fontSize=12;image=img/lib/azure2/management_governance/Monitor.svg;labelBackgroundColor=#FFFFFF;fontFamily=Roboto;fontSource=https%3A%2F%2Ffonts.googleapis.com%2Fcss%3Ffamily%3DRoboto;" parent="WxQEnVzAwdVusixksZRT-1" vertex="1">
                    <mxGeometry x="388.73" y="607" width="64" height="64" as="geometry"/>
                </mxCell>
                <mxCell id="_dSBJicLTxyUlJN42qrm-24" value="&lt;b&gt;&lt;font style=&quot;font-size: 14px&quot;&gt;Event Stream&lt;/font&gt;&lt;/b&gt;" style="sketch=0;points=[[0,0,0],[0.25,0,0],[0.5,0,0],[0.75,0,0],[1,0,0],[0,1,0],[0.25,1,0],[0.5,1,0],[0.75,1,0],[1,1,0],[0,0.25,0],[0,0.5,0],[0,0.75,0],[1,0.25,0],[1,0.5,0],[1,0.75,0]];outlineConnect=0;fontColor=#232F3E;gradientColor=#945DF2;gradientDirection=north;fillColor=#5A30B5;strokeColor=#ffffff;dashed=0;verticalLabelPosition=bottom;verticalAlign=top;align=center;html=1;fontSize=12;fontStyle=0;aspect=fixed;shape=mxgraph.aws4.resourceIcon;resIcon=mxgraph.aws4.managed_streaming_for_kafka;labelBackgroundColor=#FFFFFF;fontFamily=Roboto;fontSource=https%3A%2F%2Ffonts.googleapis.com%2Fcss%3Ffamily%3DRoboto;" parent="WxQEnVzAwdVusixksZRT-1" vertex="1">
                    <mxGeometry x="666.98" y="358.5" width="78" height="78" as="geometry"/>
                </mxCell>
                <mxCell id="_dSBJicLTxyUlJN42qrm-25" value="&lt;div style=&quot;margin-top: 0pt ; margin-bottom: 0pt ; margin-left: 0.19in ; text-indent: -0.19in ; direction: ltr ; unicode-bidi: embed ; word-break: normal ; font-size: 14px&quot;&gt;&lt;font color=&quot;#000000&quot;&gt;NGiNX or nothing&lt;/font&gt;&lt;/div&gt;" style="text;whiteSpace=wrap;html=1;fontFamily=Roboto;fontSource=https%3A%2F%2Ffonts.googleapis.com%2Fcss%3Ffamily%3DRoboto;labelBackgroundColor=none;spacingTop=0;spacing=3;fillColor=#f5f5f5;fontColor=#333333;strokeColor=none;align=center;" parent="WxQEnVzAwdVusixksZRT-1" vertex="1">
                    <mxGeometry x="174" y="302" width="144" height="33" as="geometry"/>
                </mxCell>
                <mxCell id="_dSBJicLTxyUlJN42qrm-26" value="&lt;b&gt;&lt;font style=&quot;font-size: 14px&quot;&gt;Search&lt;/font&gt;&lt;/b&gt;" style="sketch=0;aspect=fixed;html=1;points=[];align=center;image;fontSize=12;image=img/lib/mscae/Search.svg;labelBackgroundColor=#FFFFFF;fontFamily=Roboto;fontSource=https%3A%2F%2Ffonts.googleapis.com%2Fcss%3Ffamily%3DRoboto;" parent="WxQEnVzAwdVusixksZRT-1" vertex="1">
                    <mxGeometry x="529.75" y="370" width="80" height="80" as="geometry"/>
                </mxCell>
                <mxCell id="_dSBJicLTxyUlJN42qrm-27" value="&lt;span style=&quot;background-color: rgb(255 , 255 , 204)&quot;&gt;Localhost or VM&lt;/span&gt;" style="rounded=0;whiteSpace=wrap;html=1;labelBackgroundColor=#FFFFFF;fontSize=14;fontStyle=1;fontFamily=Roboto;fontSource=https%3A%2F%2Ffonts.googleapis.com%2Fcss%3Ffamily%3DRoboto;fillColor=#FFFFCC;strokeColor=none;labelBorderColor=none;" parent="WxQEnVzAwdVusixksZRT-1" vertex="1">
                    <mxGeometry x="151" y="86" width="160" height="50" as="geometry"/>
                </mxCell>
                <mxCell id="_dSBJicLTxyUlJN42qrm-28" value="&lt;div style=&quot;margin-top: 0pt ; margin-bottom: 0pt ; margin-left: 0.19in ; text-indent: -0.19in ; direction: ltr ; unicode-bidi: embed ; word-break: normal ; font-size: 14px&quot;&gt;&lt;font color=&quot;#000000&quot;&gt;Half-baked OAuth client credentials with two hard-coded client credentials&lt;/font&gt;&lt;/div&gt;" style="text;whiteSpace=wrap;html=1;fontFamily=Roboto;fontSource=https%3A%2F%2Ffonts.googleapis.com%2Fcss%3Ffamily%3DRoboto;labelBackgroundColor=none;spacingTop=0;spacing=3;fillColor=#f5f5f5;fontColor=#333333;strokeColor=none;align=center;" parent="WxQEnVzAwdVusixksZRT-1" vertex="1">
                    <mxGeometry x="174" y="484.59000000000003" width="150" height="88" as="geometry"/>
                </mxCell>
                <mxCell id="_dSBJicLTxyUlJN42qrm-29" value="&lt;div style=&quot;margin-top: 0pt ; margin-bottom: 0pt ; margin-left: 0.19in ; text-indent: -0.19in ; direction: ltr ; unicode-bidi: embed ; word-break: normal ; font-size: 14px&quot;&gt;&lt;font color=&quot;#000000&quot;&gt;Fastify (Node.js)&lt;/font&gt;&lt;/div&gt;" style="text;whiteSpace=wrap;html=1;fontFamily=Roboto;fontSource=https%3A%2F%2Ffonts.googleapis.com%2Fcss%3Ffamily%3DRoboto;labelBackgroundColor=none;spacingTop=0;spacing=3;fillColor=#f5f5f5;fontColor=#333333;strokeColor=none;align=center;" parent="WxQEnVzAwdVusixksZRT-1" vertex="1">
                    <mxGeometry x="364" y="157" width="192.08" height="33" as="geometry"/>
                </mxCell>
                <mxCell id="_dSBJicLTxyUlJN42qrm-30" value="&lt;div style=&quot;margin-top: 0pt ; margin-bottom: 0pt ; margin-left: 0.19in ; text-indent: -0.19in ; direction: ltr ; unicode-bidi: embed ; word-break: normal ; font-size: 14px&quot;&gt;&lt;font color=&quot;#000000&quot;&gt;MongoDB&lt;/font&gt;&lt;/div&gt;&lt;div style=&quot;margin-top: 0pt ; margin-bottom: 0pt ; margin-left: 0.19in ; text-indent: -0.19in ; direction: ltr ; unicode-bidi: embed ; word-break: normal ; font-size: 14px&quot;&gt;&lt;font color=&quot;#000000&quot;&gt;PostgreSQL&lt;/font&gt;&lt;/div&gt;" style="text;whiteSpace=wrap;html=1;fontFamily=Roboto;fontSource=https%3A%2F%2Ffonts.googleapis.com%2Fcss%3Ffamily%3DRoboto;labelBackgroundColor=none;spacingTop=0;spacing=3;fillColor=#f5f5f5;fontColor=#333333;strokeColor=none;align=center;" parent="WxQEnVzAwdVusixksZRT-1" vertex="1">
                    <mxGeometry x="670" y="143" width="140.46" height="47" as="geometry"/>
                </mxCell>
                <mxCell id="_dSBJicLTxyUlJN42qrm-31" value="&lt;b&gt;&lt;font style=&quot;font-size: 14px ; background-color: rgb(255 , 255 , 255)&quot;&gt;Ed-Fi API App / Function&lt;/font&gt;&lt;/b&gt;" style="sketch=0;aspect=fixed;pointerEvents=1;shadow=0;dashed=0;html=1;strokeColor=none;labelPosition=center;verticalLabelPosition=bottom;verticalAlign=top;align=center;shape=mxgraph.mscae.enterprise.udf_function;fillColor=#0078D7;fontFamily=Roboto;fontSource=https%3A%2F%2Ffonts.googleapis.com%2Fcss%3Ffamily%3DRoboto;" parent="WxQEnVzAwdVusixksZRT-1" vertex="1">
                    <mxGeometry x="396" y="196" width="77.08" height="82" as="geometry"/>
                </mxCell>
                <mxCell id="_dSBJicLTxyUlJN42qrm-32" value="Document Data Store&#10;and Reference Validation" style="shape=image;verticalLabelPosition=bottom;labelBackgroundColor=#ffffff;verticalAlign=top;aspect=fixed;imageAspect=0;image=data:image/png,iVBORw0KGgoAAAANSUhEUgAAAKAAAACgCAYAAACLz2ctAAAgAElEQVR4Ae1dh1tU1/Z9/8tPkJjkpZiXF5O8KMWusT1NNPElRqMpT9OLKT6NCXWoInbE3jB27AIKWLChIgIqNiwgKnYFXb9v7XvvcB3OUILDDHDu981375yZ2/ZZd5+99917nb9BL1oCXpTA37x4bn1qLQFoAGoQeFUCGoBeFb8+uQagxoBXJaAB6FXx65O3eQA+xmPcfXAb5bcu49zV0zh5pQAFpXnIO5+LAyU52HMyAznFO5BVtA07T2xGxolNSD+ehvSCjfJ9V9FWZBdtl//x/0fO78eJi0fkOBeunUHF7TLcfXAHjx8/1mhTSKDNALDidjmKLuVjz8lMrD+0HAuykjBtezjC1/+IX1I/xbgFQzFydl+8Nz0YgxLeQJ/YjgiJ6IDOoe3QJdwPgZF+CIryQ1C0P4Jj/GUd5PBDYJSf/N75j3boGvks+sa+gn9PeVOO83Fyf3y1eDh+Xfk5Itb/iKTtYVi8ewbS8lKx+2Q6Tlw8iopbZYpuaTtNrRKAlXev4/DZvVhzcDHiN/+G8ctH45OUQRg2LRh9Yl4RUAXH+iMkvj24FkA5/AVMBBo/XSIMYHUJawd+Oluf0HayP4HpbON/wg2gcj/rGAJYh3F85/li/NE51A99Yzvi3amBGDN3oFxf9KYJWLZ3DnYXp6Ps5qU2g8AWD8BHj6px814ljpzLxaKcGRi/fAyGz+iG/gmviQYjGNj51FwEhIAr3K8GRHZANce2gNUEqaVRY/0RSG0a5o8+MR1Fe1Ijx2+ehK3H1qL02jnce3i3VYKyRQKw+lE1Lt44j5yiHYjdPBHvTe+KHo7n0SXU6NggajNTi4mWag5gNfUcNmA6h/awdgiJeAa9Yzpi7IKhmLMzDvtLclqVhmxRALxx5xr2nd4lttTQpEBjmOSQyeFShkxzWGwqGHxkfxn+aX9yWOf98aEKa4ePZvfBzIwosSOv3rrSojVjiwBg2c3LWLlvHn5cPgpBYe0RHO0vgHPaYI0BjGXLmbadOBiW3cYh0WEO16azQftQPrQV3X2s/1jOCYd7Hieqxq6025TO6+a1NPLaCUAxK8SWbCdOzqKc6Si6nN8igejTAKy8ewNLds/EmJQBYuQTCARMQzvN0iDiGFha0rbmcd6OfRUfzOwpQ9wvqZ8hcv1PSNz6B2ZnxIAd++f+BVh3aKl4rpuOrMK2Y2uxo2ADtuevw+ajq6V9/aGlWLV/oVzrnMw4JG0PhyPtF0xcNQ5fL/6PeNeDE98Um1SAaLsGp3ZjW7ih4Rpzf5ZtS++dHj3DQC1p8UkAVj+qwvb89Rid3B+BEYZGopdZX8eIdogwtBjDI9Q0wRHPoFfMixiaFIQfl3+MqdtCsXL/PIndUWucqziNy5WlYJjm9v2beFB1H3RsmrI8evwID6oe4M6D27h+uwJllZdQev0sTpcV4uDZPdh05E/My0pE+Pof8Nm8Iegf/0+xYYPC28uDZnjP5rDbEC0Z1s7QuA4/DEzshNB13+HklRNNuYVm29fnAHjx+jlEpI1H18gO4rXWq/E4JEX5yTDJoalX9Et4f0YIvln6IWakRyHjeJqAzAmux4+aTbj1najqUZV4twRp4aWjSMtbgbgtE0UbD5sWhJ6OF53DrcQb6wOjKQvKYUD8awLy63cq6rsMr/7uUwDcX5KNj5P7ydNcH/CoEa343cCETjLUcejMPLFZtJlXpfoUTk6tnFGwUTT2t0tH4J2pncUJCY5tL6CsczQw7UQ6LV8tGY4j53x3WPYZAG7LX4eBU15HoIOBWvfDLYFJJyQwrD2+WzoC87OmyiszDp2tdeGQnl96CKn7UvD72q8xMOF1iWvWqxU5NEf7Y3DSv7Ax70+fFI9PAJDB1t4xL4PxLyX46LGanmrv6JcQs2kC9pzKBMMybW2pqn6Igot5SM1NwdgF74qdKzHPOpwzeuS9417Cin0p4LtvX1q8DsCDZ3ZjUOIbMuyqwCfAi/JD7+iXEbNxgoQbHlY/9CUZeu1art0uR1bhVny/9CN5D03nxZ3pQm3ZLepZeT3ptQtWnNirACy/eRnjFg5FkBnTcgWgxLsi2+P7ZSNx9Nx+0DvWS20J3H94D9lFO/DlovcRFBEgTpmrLPmdIORIs+/UrtoH8VKL1wD46HE1Fu2eYWg+hXfHd6Nvx/8Di3KmSUjDS/JpUae99/Aelu6Zg8FJb6nNGTNcMyZ5IJiw4QuL1wB46cZ5DJnaWenR8UkdkvQWMgrSfEFGLe4amJgxKvlt0XiMjdq1IU2a4KgASdzwhRvzGgA35q00wOciIL4Z6Bf/Knbka/A1BSDnrpVgTMpApYwZRfh83ju44QMxQq8AkAFYhhP4ND7xdHKIiPLH9B2RTZG93teUwPHSwxiQ0KmWnPmQ9415BXtPZnpdVl4BIFPUmX1MQdgBSC9u+IzuOHv1lNcF01ouYFZmTE3ihhlftRIaUnPnef02vQJAvhYbEN+pFgCZbTJ+xRivC6U1XcCxCwclhcvVFmQ2OBMuvL14BYA3791A35iOtRyQkLj2mPDnf70tk1Z1/lNXThhZNi7JHASgL5g63gNgbG0A8rXR5/OGtMk3HJ5CPTNvxNZ2cfY0ABUAZBS/W+SzkmfnqQ5pS8e9da8Sn6YMrmXq0O7WAFQAkILhe0tWsF2oKGlLWHnq98rXlQlbJivtPw1A2oBuAGiA0A8/rRgNvqrTS+MlQCcvcdsfCIpoXysEQ/lqANYDQHpszIz5avH7kvnR+C5ou3uQ2YGF8JLE4RLmssCnAVgPAEVQTKeP9sfQaYFYfWChfh9czzN158EtrNiXLNngNGPqK2HQNmAdQ7D9SeV74a6ODpJyxIzph1UP6umKtvUzQ1obj6wUuzk4MsBtcoddploDNkQD2rKiZTiJ9EM3x/P4NfVz4XdhLlxbXciScKb8JJbvnYMPZ/ZCcNQzRuJBHUmpGoA2tEgguoEa0Ck4Kyua1W6h/ydkQqxuY6r6/ap7tqO3zk2m5TOovC1/LcLWfy8kSMyX5OtMd0molJ3rGxBLnnoIdgNACpOCtQSlWsu7TJNXpX/8a5i4+gss3zcXB8/skVLI1gJBxvEOnd2LlbnzBXTvTQsR2TBgL6BzCS4/ISsWJplOCDlnnvhNxwHVYRgK7P3pXTEmeYB4wXU92ZZAuQ+r42grDozvhHGLhklR+KoDC3HswiHh5mspgLx2+ypo5y7fmyxF5qz5GJTwulTDhZDAiA9mXaAzNR6r4fjfb5Z8gKV7Zku6vqsm1BpQoQFDYttj0qpxEv+LShuPbpHPCRCtJ9kCnWotWpFMWKTHcPhJQTrLNT+c1Qs/LBuFaTsikJa3Enw5X37zCm7fvwWmspPoqDnII5kB/rD6gTwQzEY+U14safQESFTaz1IL/N6MEPSLe1VYsqjl5MEy+WBU92xvo9fLh5D28pCpb2HJnlm4cfcaLl4/j+DwZ2p5xRqAKgDGEYBfiMJi/UdOcTq+WfIheka/YJQh1jM0OzvkCaapGs0RHB6A7lHPCwXasGkhUktM4kgWsDOVndQbZERlHW3x5ePCZEDW1PMVJSi9dhal18+BmdyXblzApevnhaGL7WRCZQpZSVmRMKNS8+49tVPoO/7MnS+sVtEbJ+Dn1E8xak4/9I/7J3pFv2hqJmM4NdgQTFYvOhP1aDrrXgk4ApUAJPvD9PRIXKg441T6ZGMICg/QAHRKBIA7J4TZMP/7c6z9r2Dy6tZjazB+xWj0jetocP2xfLOBHSQdZSMisgK01Kr88LvyI9RoHcTYZx0uWU/fTeoiVHDkH3xvWleQoWvwlH8Jo2rf2H/Ie2xqYuXxzPM9cV5ywTBLpTH3wuiAJO6S97C9gHjswqGYtysRZJVwXei4aAC6SKUxALR25VBJrub4LZPwwazuMtxIwJWGNjuwsZ1ohXmsfc21AMgOWILEBlILQLXAK2AyyIWsYzivyzqHdc7Grs3r4TmlKD/SDx/M7CH10aypvnXvpiWmWmsNwFoiaZwGVOwu9tPmo2sQuWE8Bk15wwCIFZIwwxIEgTVMtag1wUa6X5uGtqICtGcTtk5GekGaxAFVsnFt0wB0lUgjh2DF7s4mOhG0v8hSz5fvo+f2Ry/HiwiOCJD4F41yakl2oGixvzLcNVZbNfT/dqCRAJ18gg4jpkfaETK+Dk78F35a8QmW7ZmNo+cP4ErlxUbXRmsAOuFSs/FXhuCavdVbDNSy1oR0axyWSMNGbj7aa7Thejj+LhqRHS1Ek+ItuyGQbCiI3P3PNoTLkE3tbPFBk8ySBENRRmyOThHLE+gBfz5/CKI2/CychEcvHETl3WtCF6e+44a1agAq5OQJACpOI00M5uaX5mHL0dViqLOD6dCQc3nk7D7COsXQBxNhOWwTKAQIwxR0ivjhdyc7qsWG6mRLrfmf/J/M+/RKI9qBfH89HC8I/x8Z8UfN6eectoFe8YLsJGw+ukpYHxgD9MSiAaiQanMCUHF6aaLhznBFfulhI2RyfL3wpnCqBDJuMTQzZevviN00QWxNkj7+sfZbTF7zNSav+Uq2STDJGB7JkhK2/oap2/7ArIxoLMyZjlX7FwgRJSe32V+ShYKLR3Dp+oUmazR39+OuXQNQIRlfAKDisups4hDPYHLVo4dgtjHjlM0RwK7zohrwowagQkgtEYCK22gRTRqAim7SAFQIxUNNGoAKwWoAKoTioSYNQIVgNQAVQvFQkwagQrAagAqheKhJA1AhWA1AhVA81KQBqBCsBqBCKB5q0gBUCLapAGTta/oJzlpe88koTJNsGXfM+ZwRfVfhFmS47Gc/htttc5+z5S2PNk4D8CkDkNMMxG2ZhJCEAATH1Uwg2DUxQBIRDp3ZozgjkFm4CV1C26HrlICa12rO12k1x3G+crP9FhJvZCen7JyiPLYvN2oAKnqnKRqQAGR6PbNb7DmAfIfL5FDyI6uW7OJt6BPzslFX4S6JwE27pEeF+mFxzkzVoX26TQNQ0T0agAqheKhJA1AhWA1AhVA81KQBqBCsBqBCKB5q0gBUCLapANROiEKobpo0ABWCqQuAnGW8vkWHYeqTUM3vLMsMNCfCttfG6LpgRV0wQyC/pH5WIz291WQJcFZ4Mky4FmlpACoASDaAUcn9wKCxXp6OBFbmptQKWVETagAqAMgntVv0s1KU83TE37aPwio61g+zMMo+/GoA1sEPyNLE96YHy7zAbRs+Tbt7FmOR5kRqisM0AJ+QpjsnxHpKWTr58dz+wrPyxI76S4MkUFZ5yQk+dwxjeghWDMEWALlm3ezw6d2QXbStQULXfwJYOJV7OhufzRtsMGXVwZiqAVgPAPmeN9Dhj57RL2J2ZgzKbl7SGKtDAucqSoQdoqfjBYMJwmVqLvvDzW0NwPoAaCYGCEdKpB9GzumDDYeXayC6gPDEpaOYt2uKcAJaFCSuYFN91wBsIABFeCZjAb25sQvfxfJ9yW16Stc7D25jZ+EWxG2aiMFT3zK4E12yg1Sgs7dpALoDYF1UZuTFizbIhkbM7omotJ+kI+7cv+WiF1rfVxbDM9dxZnoUxi0cJpQfDNyLl+smjYyAE/5Bxe8agO4ASKGZFGv2J9a+zai+sElF+aFXzEtCwxu98RfsLNyMspuXm53+4mnDnYwLZP6nN0tqj7jNkzA6ub9wzNCrFepeRWzvCRmZZO/kp+kSqsMwT/SRuzAMn+aPZvfBzys+k+ApQWZPOrULWLZNJnj+j09618gO0knfL/sIKbsSJUWf1LkVt8vAuTV8caHnypjd5RulQgu84/gGmcf36yX/kXvpFmWQJjE+KjZefbyH5sNJoJIdbPHumQiJMI5hl5/WgAoNSHap39d8g6rqKjGsh04PchJ124Wn2qZWpNCFDs3GaNo75iV8Ou/fILkQ2ai25a9D7uksnLh4RDifSRjO4c2TC0FGUvQrlZeEd/rw2X3IKtomZEjM7iZ39IezeiIoLMDQ/jY6X96T63tc1f2zTUYFh58wyKbsmoK7D+8IAZOm6HXpXXcakAC0c0QXlOYhZtP/8HbcP6SOwzUN311HSLudo88kgOTQJezz4QFC/jg6eYAw6BP0HOY4hT3Z5Tk3XVpeKqiNsoq2Y++pTOw/nYWDZ3aD4Dlyfj/yzu3DobN7pJ2/ZxfvQPrxNGHEWnNwMciyNXdnvIRGwtZ9j59TPxFKOE5D0cvxkgDNuh6WE/DBIdhE49en5SybzrxHITiP9scHs3pgZroDp8uKnBLX6VhOUdRsNBSA1h6cWmFGeqTMA8JhSDqLHdbQjrI6zFyLphRQ+hmAjPF3cgESoIbh7oeuER3QO+ZlvB37D/SL+ycGxL8mlMBkLiU1MKeBYDt/5/+6RT0Hsptyf2oj4QsUfkGjqIltMow20mN94kGza3pz1gDOJ7Iyd55QF1sys9YagJYkbOvGApC70jDnlAkr98/HZ/MHo7vjedEWYhtxfow6ov5PdKALGGv9Jh1sDOcSg+RwaE784lxTY7m2WcO+kJU3gTRdcX01D4wxpQPtQjL2k7A9tyQbFXXMm6cBaAOetflXAGjty/W9h3dwrPSQzInBYXRQ4uvi6TmHtAZO7lILfIrO98Z/BHCk9DXZWAPD/TEw4TV8nNwPMRsniHN1/U6F8BXa5aLa1gBUSKWpALQfsrq6GvkXDmNRznQwm3pMygAZFkmRyyFQQhbmDEJ1etReAp9du1k1yZzbjcP8fxe8I4ysnE2JZghnWmrsogGokNjTBKDr4ctvXsK+U7skp5AUu2SZHzm7r9howv9sOiJij5lDqRV3FE/aCoQ3cW0diwCTodwiKicbPqfhijXWDB1xhiMGl8PWfYfknfHYmJcqrPj00Ju6aAAqJOhJALqejuEPTrWVdz4Xu4q2YvX+hZixI0o4nr9d8iFGzOotMx2FRHQwUtctW+5prMPaydRgZOkfMbs3vl0yAvSIZ2U4hEN6x/E0mZyQ04IxC/zx40eul9/k7xqAChE2JwAVp5cmBqbJI8OsYc41wuKd46VHkFuShYyCjUg7kipalHPIzctKxJzMWAlxkLx8+o4IzEp3IDkzTmKLi3fPwop9c53E5FmF23D47F5Jqi0pL5YHgOehRmvugLgGoAIBvgBAxWXV2UQvXD54LHl33G4JiwagopdaIgAVt9EimjQAFd2kAagQioeaNAAVgtUAVAjFQ00agArBagAqhOKhJg1AhWA1ABVC8VCTBqBCsBqACqF4qEkDUCFYDUCFUDzUpAGoEGxTAEiK3i3H1mDi6nH436qxkj/IHMKJa8bJi/qzV08qzggUXjoKzm7J//H/jflMXDUWE/8cJ0mkyoP7cKMGoKJzmgrA2M0ThWycaeVWzl23qQFgTaw7kvKMExvROfT/0C0xwLmPtW99664J7RES2x5zMxMUd+PbTRqAiv5pKgA1SblCqG6aNAAVgtEAVAjFQ00agArBagAqhOKhJg1AhWDdATDYpShJsSvohCRu+8NZoG5VwTG/rn/ca5KFotpvV9EW9Ih63llTa+3XkDWLfgLD/bAwe5rq0D7dxgKlLmH+tepndFmmoiyT2cvfLPkQVXWUSRKATNrsG/8K+sR2RJ8Y4/P2lFfw4cxeyL9wUAmIvacypI7i7YRXnPtY+9a37hvXEX1jXkHqvnnKY/ty475TOyUh1jUbXANQAUAW+gye+qaUPdbVqcypq7x3A5V3az7Uqizwrn5Urdy16lEV+B9+7Ps1aNvc50HVfeWxfbXx0aNqTF79lQagawe5G4L5lDJdfbIUp3u2WNz1mlrj9415K9E1ysj0di2u0hpQoQEpJNZQhDg6SJFRawRFc90Ti+T7Jbwq5aOu4ON3DUA3ABQQRvihR/TfQXoJT9NmNBcgmus8NBOW7J6JvvEdhSVVBT4NwDpIyi2BdYn0Q3BkAH5f+w0uXj/XXP3XYs9D/pnjFw7hpxVjEBIZ4FbzWfLVGrAODWgJySrQJmv+usNLce321RYLEE9dOImciq8UIHFbqHj3LD2l3CwZultrADYAgCI8UrCR6SC8Hb5cNAybj64WlilPdWhLOe7NuzeE5Yv0HOSlEeA1gnNGA7ChALQYC+ghm0/3uEXDsCB7KvJLD7UUvDy16yy4mCfMWz8u/1jIkBg7bYjGc9WEGoBuACiMAnUNIWaohqRE7yR1FuaDJbtn4VRZ4VPrZF86EOk4SAfH2uQflo/Cu9MCRds1BHgEplDaWQ+xba0BqAAgwdcr+iWhO7O0neuT6/xuEpdLR5hcKp/PHyJF49lF24Wq9/7Du2AwtqUsBNut+zdRfDkf6w4tE1JNMsYOSOgkTGC8Vxlq66GlI/D4gPaKfhFfLnofwRHP1GKa1QBUAJDvc5n4eaAkB6Pn9m8YTa8ZO2THELQMZneNfBZ9ojvis3lDELdpkjCRklySdL3kkL51v9Jr4R2+qbl9/yau3roijAk0I7bmrxXmBXqw70ztgp7RL0C4nSMIJJNTsJ55P/hgCi8hSdzD/YRTelfhVhReOgaDdqTdE46JBqACgEwM/W31l6Kwrt+5iuSdcXh/ZlcERRNc/k8I0KkJbcOKdIKdwNGF34XG+qjkfvg5dQxiN03AguxpQgREIvB9p3cJA1XxleM4W3EKF6+fF76WG3evCWA4NQJp4Rhne1D1QNb8znYCiv8rv3lZ9uP+xZcLcOz8AXEUOKXCxiMrsThnBuK3/IZfV36OT+YOwoD4TpIkIORIdlpeXrfFlupyf6r7JvCCSawZ2U4e3EXZ01B5xyA2OlNeDE3R6zIGunsVRwDaKXq5G4cjTk0wfEY3kxnfzOyoZxhydpTJcmXZlkIsSW3pMFhLhaXK4Scap1/cqxg6LVCIhMbMHYgvFg7Dd0s/Ejvz15WfYcLK/2LS6i/x2+qvZM3vbCcD1/fLRsr/P0kZJPsPmxYMHo/DH7Uzz8MhtBYrl52FqwFgs98XgSvAC/XDV4uHY/neZCE7t4tbp2PZpWFuNwaA1u4kD0rNTRGeZXaCAMnScA0Fo7sONrVmLRo1i0qNdGomWaRyHW1QrRFcdoAJlXAjNJkTXIrrdD5AvGeGpSL8hNUrbstEqVWpuFVmieqJtQbgE+IwvvwVAFqHuXa7XGzEhK2TQS3zxDQGPkxEWRe4VL8RcJKraNq2/M7Egn9PeROT13wpbP9k9arvVaUGoIUc27opALQOQ++WqVTMd5u6NRSfpgwSVtFukc85hzzRRhLErv/NgAoEzdZGDUwbkGAzySv5vYfjBbyb1Bn07pmEm128Xfig68qXtORjrTUALUnY1k8DgLbDySbp0k6VncCGwyvAqjnabiNm9ZKQDo30kLgaVlJ29NMcHhsEVMs5sphSzWGddi9DJt0in5UJB0nAznlDZuyIwPb89ThXcdr1Vhv1XQNQIS5PAND1NAQkWfX3nMzE6gOLQGJJ1gWTpZSsqIytBYcHGBrHtO+ofZ6w49yw4TvT+F2Z8vl/08GR49hsR9Fs4QFit42c01dmMaLHn7j1D5ADmmAj8frTft+tAeiKDECykvu6CcO4esGK3f9yE0FJVlTGA4+XHpYQSUbBJqw7tBSLdk+XKbIcab8IMfhPqWMEJGPnv4vRcweAoCHN7gczexifWT0xak5f0Ov9fN47+GLhe/hm8Qf4JfVToeFluIUT3yzdMwvrDy1FxolNcj5OvkPKYAKtPvvtL9+obUcNQJswrM3m0IDWuRqzZr0JY3x3H9yRYDXBSqen/NYVmaeYNLuXK0vlw21OJsjYHz3Qa3euCrhZFsCSgepHVY05tcf+qwGoEK2vAlBxqS2+SQNQ0YUagAqheKhJA1AhWA1AhVA81KQBqBCsBqBCKB5q0gBUCFYDUCEUDzVpACoEqwGoEIqHmjQAFYJtKgBPXilA+ok0pBfUfDIK02QWSYZOVAunwtpVuAUZLvvZj+F229znbPkp1aF9uk0DUNE9TQEgY3VxWyYhJCEAwebrNaY6dU0MQC/Hi24JKjMLN6FLaDshtpTUKKZHNfATEm9kw6TsnKK4G99u0gBU9E9TAagJKhVCddOkAagQjAagQigeatIAVAhWA1AhFA81aQAqBKsBqBCKh5o0ABWCFQDGdKzFX8LcuImrxin2qGnSTkiNLBqyVVJWhMCw9lIxZ89bbNNVcawiY0UY8+rsQqFXytLE+hYdhqlPQjW/H71wQEpVmdJvlzUByHQxby9/88YFMN1p5Oy+tQDIJM4PZvWUfDlvXFdrPOfszNhaDKlSbxLlJ7O8e/uevQJA0uX+vvbrWrQRIphIf8zd2fImhPF2R6rOTx6ZgVNeryVnjjy9o19GTvF21W7N2uYVAPIO0/JSDRvQZWhgueW/p76Jvad2NqsgWtvJzlWUYEzKQKWMWVrKumd3pZzNKQuvAZCkk0MS36rliNBO4VD8n1ndceBMTnPKotWci2RGQm3CMlWXB7xzmB+CItuDQ7MvLF4D4KPH1VKHQbC5TiFggNBgzF93eLkvyKlFXMO9h/ewbG8yBie9JZV2dqfD2g50+GP49O4oq7zsE/fkNQDy7q/euoxxC4ciKEbN+8IKs26O56TI5+zVppUn+oS0PXQR5KvJKU4Xeo6giACpzLMAZ1/TvGFx+9Zjaz10JY0/rFcByMslExYNZdGEKkoKFmxH+knN7ILsJJANQC+GBFgwlVW4FT8sHQkW5NdFaWfReczh0Pv4sc+I0OsApCT4RJK5igXa9ifWuW0xB0T6Yei0IMzJjBPSxuYoa/SZnjIvhKwI9G4Nnpx3xXzhA1oXSyp/p+c7ZevvUrHnS/fkEwC0QDhgSifQRnECz1UjEoiRBn0Fp9eavPZrrDm4CAxMt+ZFGPBLD2Nl7nyZNWDQlDeMufJUToaLzPhQd49+Hsm74nH/4T2fE5PPAJCSyT2dhY+T+8lwXNcTTYCSO4VvTki7MXxGV/y04lPMz5qKQ2f2+qSgG9vzrD/OKNiIpO1h+Dth4xMAAARTSURBVHbpCJnnjg9fcGx7ZeTA9aE1uGb8hV+RrAu+uvgUACkkhmciNvyIkMhn6rRpLIEbdLRGwijb+sX/UyYtJHffopwZ2F+SJQXkfPvia0M22VJJI1x597owmTI2Grd5olDQDZsWhJ6OF2XoZNyODlmtkIqLtuP9C21IFJ2NZxG2/gdhgfBV8PG6fA6AvCjOfbE9f53QzAZGGNx71HQW6Nyt+R/aO3RoxC4K9UN3x/Myqya5liet+kLiXxsOLUNuSZYM3XRqym5ewvU7FcJ2+qD6ATjkNWXh/mRYIHvq9dsV8gCUXj8LchySKnjTkT8xP3sqItb/KLQe/eNfQ6/oF4SrhvdAZ4JDJ8HUENAJ8Kgdo/3RI+bvGLfwPWQX7wDfOPn64pMAtIRG+jVOOzUmZYAMtdQE9Q3NTnAKG5VJe2bS33JYsn8Cw9sLWRDBSTLviavGwrHxFyRtDxdHh5S6qw4sxPrDy+TNDeco2XZsLXYc3yAPCL9Ta204vAyr9i+Ua6WDxP3JMcPMnq8X/0feew9OfNPgana9Bvu1kdXeNXCs0HL2e6RmpCnSJ/ZlfLd0hICb4G8pi08D0BIiOVhW7J2L75d9hKCw9gYtrTUpS2M6jJ3J/xOcdoCaLFfkoab2FJYsG7NVg2pH7AxbFstWlDF0ijYm8CyAmdegCsA7waUCnnXtJC8nGTmDyjO7Ce90VtE2VFW3HOBZfdsiAGhdbOXda0ImTsN8aFKgoc3MEINoNg7TjQWkqqN9pc3+kJiak2AemNAJf6z7FhvyUnG6vMgST4tctygAWhKm8X7xxnlwPpCYTRMwLCkY3aOeR5cwI2jttAEtLekrgKrnOmj/Gd6raccSdGH+Yse+P70rIjaMl+Gf9G53H96xxNGi1y0SgHaJkwaN86blnduHRbtnYPzyMcKo3z/hNbG5qDE4hMqwahJONtiOrAcwdQ6XdewrQ7FFyUu2fpNBn2ZBT8cL8tZn1Jy3MWn1F5Kzd+LiEdy+f0ucM/u9t4btFg9AVScwrHH47F6ZoCZ+828Yv3y0EEmS1LxPzCviTbPTmRVsdb5oTRsjqjGkG06BOAaW3WYHltXmtCkNJ0dCITQNTLZUeqdyvjjjfNR0PaL+DjomBBqdh9C13yE5M06YUkvKi3yGX1Al36fZ1ioBqBLQ1dtlEmvjS3tOgzVvVyKmbgtF2Lof8POKTzBuwVDQGyZIByW8Ia8GOcMQtRw1FjUpQyNCtWtpVIZKLGZ+Fr1HdpD9aKMNTQoSVtVxC4fJA8B5jxO2/Ib5WYlCGcwg85Hzubh04zxoUrTVpc0A0F0Hs8jpzv1bMoUXOaX5Wo80unnncyVRYs/JDKH84LRXnFGJVLvpx0kJslG+cxYk2qL834GSbNmP9L/Fl49LaQEpQVgD4yuMqe7k4K32Ng9Abwlen9eQgAagRoJXJaAB6FXx65NrAGoMeFUCGoBeFb8+uQagxoBXJfD/r7bROdahOygAAAAASUVORK5CYII=;fontStyle=1;fontSize=14;fontFamily=Roboto;fontSource=https%3A%2F%2Ffonts.googleapis.com%2Fcss%3Ffamily%3DRoboto;" parent="WxQEnVzAwdVusixksZRT-1" vertex="1">
                    <mxGeometry x="664.0799999999999" y="195" width="84" height="84" as="geometry"/>
                </mxCell>
                <mxCell id="_dSBJicLTxyUlJN42qrm-33" value="&lt;div style=&quot;margin-top: 0pt ; margin-bottom: 0pt ; margin-left: 0.19in ; text-indent: -0.19in ; direction: ltr ; unicode-bidi: embed ; word-break: normal ; font-size: 14px&quot;&gt;&lt;font color=&quot;#000000&quot;&gt;Console Logging,&amp;nbsp;&lt;/font&gt;&lt;span style=&quot;color: rgb(0 , 0 , 0) ; text-indent: -0.19in&quot;&gt;Docker Logs&lt;/span&gt;&lt;/div&gt;" style="text;whiteSpace=wrap;html=1;fontFamily=Roboto;fontSource=https%3A%2F%2Ffonts.googleapis.com%2Fcss%3Ffamily%3DRoboto;labelBackgroundColor=none;spacingTop=0;spacing=3;fillColor=#f5f5f5;fontColor=#333333;strokeColor=none;align=center;" parent="WxQEnVzAwdVusixksZRT-1" vertex="1">
                    <mxGeometry x="336" y="701" width="169.46" height="48.25" as="geometry"/>
                </mxCell>
                <mxCell id="_dSBJicLTxyUlJN42qrm-35" value="&lt;div style=&quot;margin-top: 0pt ; margin-bottom: 0pt ; margin-left: 0.19in ; text-indent: -0.19in ; direction: ltr ; unicode-bidi: embed ; word-break: normal ; font-size: 14px&quot;&gt;&lt;font color=&quot;#000000&quot;&gt;OpenSearch&lt;/font&gt;&lt;/div&gt;" style="text;whiteSpace=wrap;html=1;fontFamily=Roboto;fontSource=https%3A%2F%2Ffonts.googleapis.com%2Fcss%3Ffamily%3DRoboto;labelBackgroundColor=none;spacingTop=0;spacing=3;fillColor=#f5f5f5;fontColor=#333333;strokeColor=none;align=center;" parent="WxQEnVzAwdVusixksZRT-1" vertex="1">
                    <mxGeometry x="511" y="477" width="117.5" height="26" as="geometry"/>
                </mxCell>
                <mxCell id="_dSBJicLTxyUlJN42qrm-36" value="&lt;div style=&quot;margin-top: 0pt ; margin-bottom: 0pt ; margin-left: 0.19in ; text-indent: -0.19in ; direction: ltr ; unicode-bidi: embed ; word-break: normal ; font-size: 14px&quot;&gt;&lt;font color=&quot;#000000&quot;&gt;Kafka&lt;/font&gt;&lt;/div&gt;" style="text;whiteSpace=wrap;html=1;fontFamily=Roboto;fontSource=https%3A%2F%2Ffonts.googleapis.com%2Fcss%3Ffamily%3DRoboto;labelBackgroundColor=none;spacingTop=0;spacing=3;fillColor=#f5f5f5;fontColor=#333333;strokeColor=none;align=center;" parent="WxQEnVzAwdVusixksZRT-1" vertex="1">
                    <mxGeometry x="649" y="467" width="117.5" height="30" as="geometry"/>
                </mxCell>
                <mxCell id="_dSBJicLTxyUlJN42qrm-39" value="" style="shape=mxgraph.pid.fittings.funnel;html=1;pointerEvents=1;align=center;verticalLabelPosition=bottom;verticalAlign=top;dashed=0;labelBackgroundColor=#FFFFFF;labelBorderColor=none;fontFamily=Roboto;fontSource=https%3A%2F%2Ffonts.googleapis.com%2Fcss%3Ffamily%3DRoboto;fontSize=14;fontColor=#FFFF66;fillColor=#FFFFCC;rotation=30;" parent="WxQEnVzAwdVusixksZRT-1" vertex="1">
                    <mxGeometry x="380.09" y="514.19" width="143" height="92.25" as="geometry"/>
                </mxCell>
            </root>
        </mxGraphModel>
    </diagram>
    <diagram name="0.3.0" id="hO7qL_MEH-mccrim0x5v">
        <mxGraphModel dx="1288" dy="861" grid="0" gridSize="10" guides="1" tooltips="1" connect="1" arrows="1" fold="1" page="1" pageScale="1" pageWidth="850" pageHeight="1100" math="0" shadow="0">
            <root>
                <mxCell id="g6U7bq3GD-YRvO-RUGFt-0"/>
                <mxCell id="g6U7bq3GD-YRvO-RUGFt-1" parent="g6U7bq3GD-YRvO-RUGFt-0"/>
                <mxCell id="g6U7bq3GD-YRvO-RUGFt-2" value="" style="rounded=0;whiteSpace=wrap;html=1;shadow=0;fillColor=none;strokeColor=#000000;fontFamily=Roboto;fontSource=https%3A%2F%2Ffonts.googleapis.com%2Fcss%3Ffamily%3DRoboto;" parent="g6U7bq3GD-YRvO-RUGFt-1" vertex="1">
                    <mxGeometry x="150" y="85" width="676" height="677" as="geometry"/>
                </mxCell>
                <mxCell id="g6U7bq3GD-YRvO-RUGFt-3" style="edgeStyle=orthogonalEdgeStyle;html=1;fontFamily=Roboto;fontSource=https%3A%2F%2Ffonts.googleapis.com%2Fcss%3Ffamily%3DRoboto;fontSize=14;fontColor=#FFFF66;rounded=0;" parent="g6U7bq3GD-YRvO-RUGFt-1" source="g6U7bq3GD-YRvO-RUGFt-5" target="g6U7bq3GD-YRvO-RUGFt-7" edge="1">
                    <mxGeometry relative="1" as="geometry"/>
                </mxCell>
                <mxCell id="g6U7bq3GD-YRvO-RUGFt-4" style="edgeStyle=orthogonalEdgeStyle;rounded=0;html=1;entryX=0;entryY=0.5;entryDx=0;entryDy=0;fontFamily=Roboto;fontSource=https%3A%2F%2Ffonts.googleapis.com%2Fcss%3Ffamily%3DRoboto;fontSize=14;fontColor=#FFFF66;" parent="g6U7bq3GD-YRvO-RUGFt-1" source="g6U7bq3GD-YRvO-RUGFt-5" target="g6U7bq3GD-YRvO-RUGFt-8" edge="1">
                    <mxGeometry relative="1" as="geometry">
                        <Array as="points">
                            <mxPoint x="130" y="237"/>
                            <mxPoint x="130" y="412"/>
                        </Array>
                    </mxGeometry>
                </mxCell>
                <mxCell id="g6U7bq3GD-YRvO-RUGFt-5" value="" style="outlineConnect=0;fontColor=#232F3E;gradientColor=none;fillColor=#232F3E;strokeColor=none;dashed=0;verticalLabelPosition=bottom;verticalAlign=top;align=center;html=1;fontSize=12;fontStyle=0;aspect=fixed;pointerEvents=1;shape=mxgraph.aws4.users;fontFamily=Roboto;fontSource=https%3A%2F%2Ffonts.googleapis.com%2Fcss%3Ffamily%3DRoboto;" parent="g6U7bq3GD-YRvO-RUGFt-1" vertex="1">
                    <mxGeometry x="30" y="198" width="78" height="78" as="geometry"/>
                </mxCell>
                <mxCell id="g6U7bq3GD-YRvO-RUGFt-6" style="edgeStyle=orthogonalEdgeStyle;html=1;entryX=0.16;entryY=0.5;entryDx=0;entryDy=0;entryPerimeter=0;fontFamily=Roboto;fontSource=https%3A%2F%2Ffonts.googleapis.com%2Fcss%3Ffamily%3DRoboto;fontSize=14;fontColor=#FFFF66;rounded=0;" parent="g6U7bq3GD-YRvO-RUGFt-1" source="g6U7bq3GD-YRvO-RUGFt-7" target="g6U7bq3GD-YRvO-RUGFt-22" edge="1">
                    <mxGeometry relative="1" as="geometry"/>
                </mxCell>
                <mxCell id="g6U7bq3GD-YRvO-RUGFt-7" value="API Front End" style="sketch=0;outlineConnect=0;fontColor=#232F3E;gradientColor=none;fillColor=#4D27AA;strokeColor=none;dashed=0;verticalLabelPosition=bottom;verticalAlign=top;align=center;html=1;fontSize=14;fontStyle=1;aspect=fixed;pointerEvents=1;shape=mxgraph.aws4.gateway;fontFamily=Roboto;fontSource=https%3A%2F%2Ffonts.googleapis.com%2Fcss%3Ffamily%3DRoboto;" parent="g6U7bq3GD-YRvO-RUGFt-1" vertex="1">
                    <mxGeometry x="208" y="198" width="76" height="78" as="geometry"/>
                </mxCell>
                <mxCell id="g6U7bq3GD-YRvO-RUGFt-8" value="Identity / Authentication" style="shape=image;verticalLabelPosition=bottom;labelBackgroundColor=#ffffff;verticalAlign=top;aspect=fixed;imageAspect=0;image=https://oauth.net/images/oauth-2-sm.png;fontStyle=1;fontSize=14;fontFamily=Roboto;fontSource=https%3A%2F%2Ffonts.googleapis.com%2Fcss%3Ffamily%3DRoboto;" parent="g6U7bq3GD-YRvO-RUGFt-1" vertex="1">
                    <mxGeometry x="209.69" y="372.75" width="78.63" height="78" as="geometry"/>
                </mxCell>
                <mxCell id="g6U7bq3GD-YRvO-RUGFt-9" style="edgeStyle=orthogonalEdgeStyle;html=1;fontFamily=Roboto;fontSource=https%3A%2F%2Ffonts.googleapis.com%2Fcss%3Ffamily%3DRoboto;fontSize=14;fontColor=#FFFF66;rounded=0;exitX=0.9;exitY=0.5;exitDx=0;exitDy=0;exitPerimeter=0;" parent="g6U7bq3GD-YRvO-RUGFt-1" source="g6U7bq3GD-YRvO-RUGFt-22" target="g6U7bq3GD-YRvO-RUGFt-23" edge="1">
                    <mxGeometry relative="1" as="geometry"/>
                </mxCell>
                <mxCell id="g6U7bq3GD-YRvO-RUGFt-10" style="edgeStyle=orthogonalEdgeStyle;html=1;entryX=-0.005;entryY=0.525;entryDx=0;entryDy=0;entryPerimeter=0;fontFamily=Roboto;fontSource=https%3A%2F%2Ffonts.googleapis.com%2Fcss%3Ffamily%3DRoboto;fontSize=14;fontColor=#FFFF66;rounded=0;" parent="g6U7bq3GD-YRvO-RUGFt-1" source="g6U7bq3GD-YRvO-RUGFt-22" target="g6U7bq3GD-YRvO-RUGFt-17" edge="1">
                    <mxGeometry relative="1" as="geometry">
                        <Array as="points">
                            <mxPoint x="508" y="237"/>
                            <mxPoint x="508" y="412"/>
                        </Array>
                    </mxGeometry>
                </mxCell>
                <mxCell id="g6U7bq3GD-YRvO-RUGFt-11" style="edgeStyle=orthogonalEdgeStyle;rounded=0;html=1;fontFamily=Roboto;fontSource=https%3A%2F%2Ffonts.googleapis.com%2Fcss%3Ffamily%3DRoboto;fontSize=14;fontColor=#FFFF66;exitX=0.9;exitY=0.5;exitDx=0;exitDy=0;exitPerimeter=0;" parent="g6U7bq3GD-YRvO-RUGFt-1" source="g6U7bq3GD-YRvO-RUGFt-22" target="g6U7bq3GD-YRvO-RUGFt-17" edge="1">
                    <mxGeometry relative="1" as="geometry">
                        <mxPoint x="584.395" y="516.1600000000001" as="sourcePoint"/>
                    </mxGeometry>
                </mxCell>
                <mxCell id="g6U7bq3GD-YRvO-RUGFt-12" value="Temporary &lt;br&gt;Data Out" style="edgeLabel;html=1;align=center;verticalAlign=middle;resizable=0;points=[];" parent="g6U7bq3GD-YRvO-RUGFt-11" vertex="1" connectable="0">
                    <mxGeometry x="-0.1592" y="5" relative="1" as="geometry">
                        <mxPoint x="7" y="64" as="offset"/>
                    </mxGeometry>
                </mxCell>
                <mxCell id="g6U7bq3GD-YRvO-RUGFt-13" style="edgeStyle=orthogonalEdgeStyle;rounded=0;html=1;fontFamily=Roboto;fontSource=https%3A%2F%2Ffonts.googleapis.com%2Fcss%3Ffamily%3DRoboto;fontSize=14;fontColor=#FFFF66;" parent="g6U7bq3GD-YRvO-RUGFt-1" source="g6U7bq3GD-YRvO-RUGFt-23" target="g6U7bq3GD-YRvO-RUGFt-15" edge="1">
                    <mxGeometry relative="1" as="geometry"/>
                </mxCell>
                <mxCell id="g6U7bq3GD-YRvO-RUGFt-14" value="&lt;b&gt;&lt;font style=&quot;font-size: 14px&quot;&gt;Log Monitoring&lt;/font&gt;&lt;/b&gt;" style="aspect=fixed;html=1;points=[];align=center;image;fontSize=12;image=img/lib/azure2/management_governance/Monitor.svg;labelBackgroundColor=#FFFFFF;fontFamily=Roboto;fontSource=https%3A%2F%2Ffonts.googleapis.com%2Fcss%3Ffamily%3DRoboto;" parent="g6U7bq3GD-YRvO-RUGFt-1" vertex="1">
                    <mxGeometry x="388.73" y="607" width="64" height="64" as="geometry"/>
                </mxCell>
                <mxCell id="g6U7bq3GD-YRvO-RUGFt-15" value="&lt;b&gt;&lt;font style=&quot;font-size: 14px&quot;&gt;Event Stream&lt;/font&gt;&lt;/b&gt;" style="sketch=0;points=[[0,0,0],[0.25,0,0],[0.5,0,0],[0.75,0,0],[1,0,0],[0,1,0],[0.25,1,0],[0.5,1,0],[0.75,1,0],[1,1,0],[0,0.25,0],[0,0.5,0],[0,0.75,0],[1,0.25,0],[1,0.5,0],[1,0.75,0]];outlineConnect=0;fontColor=#232F3E;gradientColor=#945DF2;gradientDirection=north;fillColor=#5A30B5;strokeColor=#ffffff;dashed=0;verticalLabelPosition=bottom;verticalAlign=top;align=center;html=1;fontSize=12;fontStyle=0;aspect=fixed;shape=mxgraph.aws4.resourceIcon;resIcon=mxgraph.aws4.managed_streaming_for_kafka;labelBackgroundColor=#FFFFFF;fontFamily=Roboto;fontSource=https%3A%2F%2Ffonts.googleapis.com%2Fcss%3Ffamily%3DRoboto;" parent="g6U7bq3GD-YRvO-RUGFt-1" vertex="1">
                    <mxGeometry x="682.98" y="358.5" width="78" height="78" as="geometry"/>
                </mxCell>
                <mxCell id="g6U7bq3GD-YRvO-RUGFt-16" value="NGiNX or Azure API Management" style="text;fontFamily=Roboto;fontSource=https%3A%2F%2Ffonts.googleapis.com%2Fcss%3Ffamily%3DRoboto;labelBackgroundColor=none;spacingTop=0;spacing=3;fillColor=#f5f5f5;fontColor=#333333;strokeColor=none;align=center;labelPosition=center;verticalLabelPosition=middle;verticalAlign=middle;whiteSpace=wrap;fontSize=13;" parent="g6U7bq3GD-YRvO-RUGFt-1" vertex="1">
                    <mxGeometry x="174" y="302" width="144" height="46" as="geometry"/>
                </mxCell>
                <mxCell id="g6U7bq3GD-YRvO-RUGFt-17" value="&lt;b&gt;&lt;font style=&quot;font-size: 14px&quot;&gt;Search&lt;/font&gt;&lt;/b&gt;" style="sketch=0;aspect=fixed;html=1;points=[];align=center;image;fontSize=12;image=img/lib/mscae/Search.svg;labelBackgroundColor=#FFFFFF;fontFamily=Roboto;fontSource=https%3A%2F%2Ffonts.googleapis.com%2Fcss%3Ffamily%3DRoboto;" parent="g6U7bq3GD-YRvO-RUGFt-1" vertex="1">
                    <mxGeometry x="529.75" y="370" width="80" height="80" as="geometry"/>
                </mxCell>
                <mxCell id="g6U7bq3GD-YRvO-RUGFt-18" value="&lt;span style=&quot;background-color: rgb(255 , 255 , 204)&quot;&gt;Localhost, VM, or &lt;font color=&quot;#000099&quot;&gt;Azure &lt;/font&gt;Managed Services&lt;/span&gt;" style="rounded=0;whiteSpace=wrap;html=1;labelBackgroundColor=#FFFFFF;fontSize=14;fontStyle=1;fontFamily=Roboto;fontSource=https%3A%2F%2Ffonts.googleapis.com%2Fcss%3Ffamily%3DRoboto;fillColor=#FFFFCC;strokeColor=none;labelBorderColor=none;" parent="g6U7bq3GD-YRvO-RUGFt-1" vertex="1">
                    <mxGeometry x="151" y="86" width="321" height="50" as="geometry"/>
                </mxCell>
                <mxCell id="g6U7bq3GD-YRvO-RUGFt-19" value="Built-in OAuth 2.0 provider with key/secret management" style="text;whiteSpace=wrap;fontFamily=Roboto;fontSource=https%3A%2F%2Ffonts.googleapis.com%2Fcss%3Ffamily%3DRoboto;labelBackgroundColor=none;spacingTop=0;spacing=3;fillColor=#f5f5f5;fontColor=#333333;strokeColor=none;align=center;html=1;verticalAlign=middle;fontSize=13;" parent="g6U7bq3GD-YRvO-RUGFt-1" vertex="1">
                    <mxGeometry x="174" y="484.59" width="150" height="65.41" as="geometry"/>
                </mxCell>
                <mxCell id="g6U7bq3GD-YRvO-RUGFt-20" value="Fastify (Node.js)" style="text;whiteSpace=wrap;fontFamily=Roboto;fontSource=https%3A%2F%2Ffonts.googleapis.com%2Fcss%3Ffamily%3DRoboto;labelBackgroundColor=none;spacingTop=0;spacing=3;fillColor=#f5f5f5;fontColor=#333333;strokeColor=none;align=center;fontSize=13;" parent="g6U7bq3GD-YRvO-RUGFt-1" vertex="1">
                    <mxGeometry x="364" y="157" width="192.08" height="33" as="geometry"/>
                </mxCell>
                <mxCell id="g6U7bq3GD-YRvO-RUGFt-21" value="MongoDB&#10;PostgreSQL&#10;CosmosDB" style="text;whiteSpace=wrap;fontFamily=Roboto;fontSource=https%3A%2F%2Ffonts.googleapis.com%2Fcss%3Ffamily%3DRoboto;labelBackgroundColor=none;spacingTop=0;spacing=3;fillColor=#f5f5f5;fontColor=#333333;strokeColor=none;align=center;fontSize=13;fontStyle=0" parent="g6U7bq3GD-YRvO-RUGFt-1" vertex="1">
                    <mxGeometry x="670" y="130" width="140.46" height="60" as="geometry"/>
                </mxCell>
                <mxCell id="g6U7bq3GD-YRvO-RUGFt-22" value="&lt;b&gt;&lt;font style=&quot;font-size: 14px ; background-color: rgb(255 , 255 , 255)&quot;&gt;Ed-Fi API App / Function&lt;/font&gt;&lt;/b&gt;" style="sketch=0;aspect=fixed;pointerEvents=1;shadow=0;dashed=0;html=1;strokeColor=none;labelPosition=center;verticalLabelPosition=bottom;verticalAlign=top;align=center;shape=mxgraph.mscae.enterprise.udf_function;fillColor=#0078D7;fontFamily=Roboto;fontSource=https%3A%2F%2Ffonts.googleapis.com%2Fcss%3Ffamily%3DRoboto;" parent="g6U7bq3GD-YRvO-RUGFt-1" vertex="1">
                    <mxGeometry x="396" y="196" width="77.08" height="82" as="geometry"/>
                </mxCell>
                <mxCell id="g6U7bq3GD-YRvO-RUGFt-23" value="Document Data Store&#10;and Reference Validation" style="shape=image;verticalLabelPosition=bottom;labelBackgroundColor=#ffffff;verticalAlign=top;aspect=fixed;imageAspect=0;image=data:image/png,iVBORw0KGgoAAAANSUhEUgAAAKAAAACgCAYAAACLz2ctAAAgAElEQVR4Ae1dh1tU1/Z9/8tPkJjkpZiXF5O8KMWusT1NNPElRqMpT9OLKT6NCXWoInbE3jB27AIKWLChIgIqNiwgKnYFXb9v7XvvcB3OUILDDHDu981375yZ2/ZZd5+99917nb9BL1oCXpTA37x4bn1qLQFoAGoQeFUCGoBeFb8+uQagxoBXJaAB6FXx65O3eQA+xmPcfXAb5bcu49zV0zh5pQAFpXnIO5+LAyU52HMyAznFO5BVtA07T2xGxolNSD+ehvSCjfJ9V9FWZBdtl//x/0fO78eJi0fkOBeunUHF7TLcfXAHjx8/1mhTSKDNALDidjmKLuVjz8lMrD+0HAuykjBtezjC1/+IX1I/xbgFQzFydl+8Nz0YgxLeQJ/YjgiJ6IDOoe3QJdwPgZF+CIryQ1C0P4Jj/GUd5PBDYJSf/N75j3boGvks+sa+gn9PeVOO83Fyf3y1eDh+Xfk5Itb/iKTtYVi8ewbS8lKx+2Q6Tlw8iopbZYpuaTtNrRKAlXev4/DZvVhzcDHiN/+G8ctH45OUQRg2LRh9Yl4RUAXH+iMkvj24FkA5/AVMBBo/XSIMYHUJawd+Oluf0HayP4HpbON/wg2gcj/rGAJYh3F85/li/NE51A99Yzvi3amBGDN3oFxf9KYJWLZ3DnYXp6Ps5qU2g8AWD8BHj6px814ljpzLxaKcGRi/fAyGz+iG/gmviQYjGNj51FwEhIAr3K8GRHZANce2gNUEqaVRY/0RSG0a5o8+MR1Fe1Ijx2+ehK3H1qL02jnce3i3VYKyRQKw+lE1Lt44j5yiHYjdPBHvTe+KHo7n0SXU6NggajNTi4mWag5gNfUcNmA6h/awdgiJeAa9Yzpi7IKhmLMzDvtLclqVhmxRALxx5xr2nd4lttTQpEBjmOSQyeFShkxzWGwqGHxkfxn+aX9yWOf98aEKa4ePZvfBzIwosSOv3rrSojVjiwBg2c3LWLlvHn5cPgpBYe0RHO0vgHPaYI0BjGXLmbadOBiW3cYh0WEO16azQftQPrQV3X2s/1jOCYd7Hieqxq6025TO6+a1NPLaCUAxK8SWbCdOzqKc6Si6nN8igejTAKy8ewNLds/EmJQBYuQTCARMQzvN0iDiGFha0rbmcd6OfRUfzOwpQ9wvqZ8hcv1PSNz6B2ZnxIAd++f+BVh3aKl4rpuOrMK2Y2uxo2ADtuevw+ajq6V9/aGlWLV/oVzrnMw4JG0PhyPtF0xcNQ5fL/6PeNeDE98Um1SAaLsGp3ZjW7ih4Rpzf5ZtS++dHj3DQC1p8UkAVj+qwvb89Rid3B+BEYZGopdZX8eIdogwtBjDI9Q0wRHPoFfMixiaFIQfl3+MqdtCsXL/PIndUWucqziNy5WlYJjm9v2beFB1H3RsmrI8evwID6oe4M6D27h+uwJllZdQev0sTpcV4uDZPdh05E/My0pE+Pof8Nm8Iegf/0+xYYPC28uDZnjP5rDbEC0Z1s7QuA4/DEzshNB13+HklRNNuYVm29fnAHjx+jlEpI1H18gO4rXWq/E4JEX5yTDJoalX9Et4f0YIvln6IWakRyHjeJqAzAmux4+aTbj1najqUZV4twRp4aWjSMtbgbgtE0UbD5sWhJ6OF53DrcQb6wOjKQvKYUD8awLy63cq6rsMr/7uUwDcX5KNj5P7ydNcH/CoEa343cCETjLUcejMPLFZtJlXpfoUTk6tnFGwUTT2t0tH4J2pncUJCY5tL6CsczQw7UQ6LV8tGY4j53x3WPYZAG7LX4eBU15HoIOBWvfDLYFJJyQwrD2+WzoC87OmyiszDp2tdeGQnl96CKn7UvD72q8xMOF1iWvWqxU5NEf7Y3DSv7Ax70+fFI9PAJDB1t4xL4PxLyX46LGanmrv6JcQs2kC9pzKBMMybW2pqn6Igot5SM1NwdgF74qdKzHPOpwzeuS9417Cin0p4LtvX1q8DsCDZ3ZjUOIbMuyqwCfAi/JD7+iXEbNxgoQbHlY/9CUZeu1art0uR1bhVny/9CN5D03nxZ3pQm3ZLepZeT3ptQtWnNirACy/eRnjFg5FkBnTcgWgxLsi2+P7ZSNx9Nx+0DvWS20J3H94D9lFO/DlovcRFBEgTpmrLPmdIORIs+/UrtoH8VKL1wD46HE1Fu2eYWg+hXfHd6Nvx/8Di3KmSUjDS/JpUae99/Aelu6Zg8FJb6nNGTNcMyZ5IJiw4QuL1wB46cZ5DJnaWenR8UkdkvQWMgrSfEFGLe4amJgxKvlt0XiMjdq1IU2a4KgASdzwhRvzGgA35q00wOciIL4Z6Bf/Knbka/A1BSDnrpVgTMpApYwZRfh83ju44QMxQq8AkAFYhhP4ND7xdHKIiPLH9B2RTZG93teUwPHSwxiQ0KmWnPmQ9415BXtPZnpdVl4BIFPUmX1MQdgBSC9u+IzuOHv1lNcF01ouYFZmTE3ihhlftRIaUnPnef02vQJAvhYbEN+pFgCZbTJ+xRivC6U1XcCxCwclhcvVFmQ2OBMuvL14BYA3791A35iOtRyQkLj2mPDnf70tk1Z1/lNXThhZNi7JHASgL5g63gNgbG0A8rXR5/OGtMk3HJ5CPTNvxNZ2cfY0ABUAZBS/W+SzkmfnqQ5pS8e9da8Sn6YMrmXq0O7WAFQAkILhe0tWsF2oKGlLWHnq98rXlQlbJivtPw1A2oBuAGiA0A8/rRgNvqrTS+MlQCcvcdsfCIpoXysEQ/lqANYDQHpszIz5avH7kvnR+C5ou3uQ2YGF8JLE4RLmssCnAVgPAEVQTKeP9sfQaYFYfWChfh9czzN158EtrNiXLNngNGPqK2HQNmAdQ7D9SeV74a6ODpJyxIzph1UP6umKtvUzQ1obj6wUuzk4MsBtcoddploDNkQD2rKiZTiJ9EM3x/P4NfVz4XdhLlxbXciScKb8JJbvnYMPZ/ZCcNQzRuJBHUmpGoA2tEgguoEa0Ck4Kyua1W6h/ydkQqxuY6r6/ap7tqO3zk2m5TOovC1/LcLWfy8kSMyX5OtMd0molJ3rGxBLnnoIdgNACpOCtQSlWsu7TJNXpX/8a5i4+gss3zcXB8/skVLI1gJBxvEOnd2LlbnzBXTvTQsR2TBgL6BzCS4/ISsWJplOCDlnnvhNxwHVYRgK7P3pXTEmeYB4wXU92ZZAuQ+r42grDozvhHGLhklR+KoDC3HswiHh5mspgLx2+ypo5y7fmyxF5qz5GJTwulTDhZDAiA9mXaAzNR6r4fjfb5Z8gKV7Zku6vqsm1BpQoQFDYttj0qpxEv+LShuPbpHPCRCtJ9kCnWotWpFMWKTHcPhJQTrLNT+c1Qs/LBuFaTsikJa3Enw5X37zCm7fvwWmspPoqDnII5kB/rD6gTwQzEY+U14safQESFTaz1IL/N6MEPSLe1VYsqjl5MEy+WBU92xvo9fLh5D28pCpb2HJnlm4cfcaLl4/j+DwZ2p5xRqAKgDGEYBfiMJi/UdOcTq+WfIheka/YJQh1jM0OzvkCaapGs0RHB6A7lHPCwXasGkhUktM4kgWsDOVndQbZERlHW3x5ePCZEDW1PMVJSi9dhal18+BmdyXblzApevnhaGL7WRCZQpZSVmRMKNS8+49tVPoO/7MnS+sVtEbJ+Dn1E8xak4/9I/7J3pFv2hqJmM4NdgQTFYvOhP1aDrrXgk4ApUAJPvD9PRIXKg441T6ZGMICg/QAHRKBIA7J4TZMP/7c6z9r2Dy6tZjazB+xWj0jetocP2xfLOBHSQdZSMisgK01Kr88LvyI9RoHcTYZx0uWU/fTeoiVHDkH3xvWleQoWvwlH8Jo2rf2H/Ie2xqYuXxzPM9cV5ywTBLpTH3wuiAJO6S97C9gHjswqGYtysRZJVwXei4aAC6SKUxALR25VBJrub4LZPwwazuMtxIwJWGNjuwsZ1ohXmsfc21AMgOWILEBlILQLXAK2AyyIWsYzivyzqHdc7Grs3r4TmlKD/SDx/M7CH10aypvnXvpiWmWmsNwFoiaZwGVOwu9tPmo2sQuWE8Bk15wwCIFZIwwxIEgTVMtag1wUa6X5uGtqICtGcTtk5GekGaxAFVsnFt0wB0lUgjh2DF7s4mOhG0v8hSz5fvo+f2Ry/HiwiOCJD4F41yakl2oGixvzLcNVZbNfT/dqCRAJ18gg4jpkfaETK+Dk78F35a8QmW7ZmNo+cP4ErlxUbXRmsAOuFSs/FXhuCavdVbDNSy1oR0axyWSMNGbj7aa7Thejj+LhqRHS1Ek+ItuyGQbCiI3P3PNoTLkE3tbPFBk8ySBENRRmyOThHLE+gBfz5/CKI2/CychEcvHETl3WtCF6e+44a1agAq5OQJACpOI00M5uaX5mHL0dViqLOD6dCQc3nk7D7COsXQBxNhOWwTKAQIwxR0ivjhdyc7qsWG6mRLrfmf/J/M+/RKI9qBfH89HC8I/x8Z8UfN6eectoFe8YLsJGw+ukpYHxgD9MSiAaiQanMCUHF6aaLhznBFfulhI2RyfL3wpnCqBDJuMTQzZevviN00QWxNkj7+sfZbTF7zNSav+Uq2STDJGB7JkhK2/oap2/7ArIxoLMyZjlX7FwgRJSe32V+ShYKLR3Dp+oUmazR39+OuXQNQIRlfAKDisups4hDPYHLVo4dgtjHjlM0RwK7zohrwowagQkgtEYCK22gRTRqAim7SAFQIxUNNGoAKwWoAKoTioSYNQIVgNQAVQvFQkwagQrAagAqheKhJA1AhWA1AhVA81KQBqBCsBqBCKB5q0gBUCLapAGTta/oJzlpe88koTJNsGXfM+ZwRfVfhFmS47Gc/htttc5+z5S2PNk4D8CkDkNMMxG2ZhJCEAATH1Uwg2DUxQBIRDp3ZozgjkFm4CV1C26HrlICa12rO12k1x3G+crP9FhJvZCen7JyiPLYvN2oAKnqnKRqQAGR6PbNb7DmAfIfL5FDyI6uW7OJt6BPzslFX4S6JwE27pEeF+mFxzkzVoX26TQNQ0T0agAqheKhJA1AhWA1AhVA81KQBqBCsBqBCKB5q0gBUCLapANROiEKobpo0ABWCqQuAnGW8vkWHYeqTUM3vLMsMNCfCttfG6LpgRV0wQyC/pH5WIz291WQJcFZ4Mky4FmlpACoASDaAUcn9wKCxXp6OBFbmptQKWVETagAqAMgntVv0s1KU83TE37aPwio61g+zMMo+/GoA1sEPyNLE96YHy7zAbRs+Tbt7FmOR5kRqisM0AJ+QpjsnxHpKWTr58dz+wrPyxI76S4MkUFZ5yQk+dwxjeghWDMEWALlm3ezw6d2QXbStQULXfwJYOJV7OhufzRtsMGXVwZiqAVgPAPmeN9Dhj57RL2J2ZgzKbl7SGKtDAucqSoQdoqfjBYMJwmVqLvvDzW0NwPoAaCYGCEdKpB9GzumDDYeXayC6gPDEpaOYt2uKcAJaFCSuYFN91wBsIABFeCZjAb25sQvfxfJ9yW16Stc7D25jZ+EWxG2aiMFT3zK4E12yg1Sgs7dpALoDYF1UZuTFizbIhkbM7omotJ+kI+7cv+WiF1rfVxbDM9dxZnoUxi0cJpQfDNyLl+smjYyAE/5Bxe8agO4ASKGZFGv2J9a+zai+sElF+aFXzEtCwxu98RfsLNyMspuXm53+4mnDnYwLZP6nN0tqj7jNkzA6ub9wzNCrFepeRWzvCRmZZO/kp+kSqsMwT/SRuzAMn+aPZvfBzys+k+ApQWZPOrULWLZNJnj+j09618gO0knfL/sIKbsSJUWf1LkVt8vAuTV8caHnypjd5RulQgu84/gGmcf36yX/kXvpFmWQJjE+KjZefbyH5sNJoJIdbPHumQiJMI5hl5/WgAoNSHap39d8g6rqKjGsh04PchJ124Wn2qZWpNCFDs3GaNo75iV8Ou/fILkQ2ai25a9D7uksnLh4RDifSRjO4c2TC0FGUvQrlZeEd/rw2X3IKtomZEjM7iZ39IezeiIoLMDQ/jY6X96T63tc1f2zTUYFh58wyKbsmoK7D+8IAZOm6HXpXXcakAC0c0QXlOYhZtP/8HbcP6SOwzUN311HSLudo88kgOTQJezz4QFC/jg6eYAw6BP0HOY4hT3Z5Tk3XVpeKqiNsoq2Y++pTOw/nYWDZ3aD4Dlyfj/yzu3DobN7pJ2/ZxfvQPrxNGHEWnNwMciyNXdnvIRGwtZ9j59TPxFKOE5D0cvxkgDNuh6WE/DBIdhE49en5SybzrxHITiP9scHs3pgZroDp8uKnBLX6VhOUdRsNBSA1h6cWmFGeqTMA8JhSDqLHdbQjrI6zFyLphRQ+hmAjPF3cgESoIbh7oeuER3QO+ZlvB37D/SL+ycGxL8mlMBkLiU1MKeBYDt/5/+6RT0Hsptyf2oj4QsUfkGjqIltMow20mN94kGza3pz1gDOJ7Iyd55QF1sys9YagJYkbOvGApC70jDnlAkr98/HZ/MHo7vjedEWYhtxfow6ov5PdKALGGv9Jh1sDOcSg+RwaE784lxTY7m2WcO+kJU3gTRdcX01D4wxpQPtQjL2k7A9tyQbFXXMm6cBaAOetflXAGjty/W9h3dwrPSQzInBYXRQ4uvi6TmHtAZO7lILfIrO98Z/BHCk9DXZWAPD/TEw4TV8nNwPMRsniHN1/U6F8BXa5aLa1gBUSKWpALQfsrq6GvkXDmNRznQwm3pMygAZFkmRyyFQQhbmDEJ1etReAp9du1k1yZzbjcP8fxe8I4ysnE2JZghnWmrsogGokNjTBKDr4ctvXsK+U7skp5AUu2SZHzm7r9howv9sOiJij5lDqRV3FE/aCoQ3cW0diwCTodwiKicbPqfhijXWDB1xhiMGl8PWfYfknfHYmJcqrPj00Ju6aAAqJOhJALqejuEPTrWVdz4Xu4q2YvX+hZixI0o4nr9d8iFGzOotMx2FRHQwUtctW+5prMPaydRgZOkfMbs3vl0yAvSIZ2U4hEN6x/E0mZyQ04IxC/zx40eul9/k7xqAChE2JwAVp5cmBqbJI8OsYc41wuKd46VHkFuShYyCjUg7kipalHPIzctKxJzMWAlxkLx8+o4IzEp3IDkzTmKLi3fPwop9c53E5FmF23D47F5Jqi0pL5YHgOehRmvugLgGoAIBvgBAxWXV2UQvXD54LHl33G4JiwagopdaIgAVt9EimjQAFd2kAagQioeaNAAVgtUAVAjFQ00agArBagAqhOKhJg1AhWA1ABVC8VCTBqBCsBqACqF4qEkDUCFYDUCFUDzUpAGoEGxTAEiK3i3H1mDi6nH436qxkj/IHMKJa8bJi/qzV08qzggUXjoKzm7J//H/jflMXDUWE/8cJ0mkyoP7cKMGoKJzmgrA2M0ThWycaeVWzl23qQFgTaw7kvKMExvROfT/0C0xwLmPtW99664J7RES2x5zMxMUd+PbTRqAiv5pKgA1SblCqG6aNAAVgtEAVAjFQ00agArBagAqhOKhJg1AhWDdATDYpShJsSvohCRu+8NZoG5VwTG/rn/ca5KFotpvV9EW9Ih63llTa+3XkDWLfgLD/bAwe5rq0D7dxgKlLmH+tepndFmmoiyT2cvfLPkQVXWUSRKATNrsG/8K+sR2RJ8Y4/P2lFfw4cxeyL9wUAmIvacypI7i7YRXnPtY+9a37hvXEX1jXkHqvnnKY/ty475TOyUh1jUbXANQAUAW+gye+qaUPdbVqcypq7x3A5V3az7Uqizwrn5Urdy16lEV+B9+7Ps1aNvc50HVfeWxfbXx0aNqTF79lQagawe5G4L5lDJdfbIUp3u2WNz1mlrj9415K9E1ysj0di2u0hpQoQEpJNZQhDg6SJFRawRFc90Ti+T7Jbwq5aOu4ON3DUA3ABQQRvihR/TfQXoJT9NmNBcgmus8NBOW7J6JvvEdhSVVBT4NwDpIyi2BdYn0Q3BkAH5f+w0uXj/XXP3XYs9D/pnjFw7hpxVjEBIZ4FbzWfLVGrAODWgJySrQJmv+usNLce321RYLEE9dOImciq8UIHFbqHj3LD2l3CwZultrADYAgCI8UrCR6SC8Hb5cNAybj64WlilPdWhLOe7NuzeE5Yv0HOSlEeA1gnNGA7ChALQYC+ghm0/3uEXDsCB7KvJLD7UUvDy16yy4mCfMWz8u/1jIkBg7bYjGc9WEGoBuACiMAnUNIWaohqRE7yR1FuaDJbtn4VRZ4VPrZF86EOk4SAfH2uQflo/Cu9MCRds1BHgEplDaWQ+xba0BqAAgwdcr+iWhO7O0neuT6/xuEpdLR5hcKp/PHyJF49lF24Wq9/7Du2AwtqUsBNut+zdRfDkf6w4tE1JNMsYOSOgkTGC8Vxlq66GlI/D4gPaKfhFfLnofwRHP1GKa1QBUAJDvc5n4eaAkB6Pn9m8YTa8ZO2THELQMZneNfBZ9ojvis3lDELdpkjCRklySdL3kkL51v9Jr4R2+qbl9/yau3roijAk0I7bmrxXmBXqw70ztgp7RL0C4nSMIJJNTsJ55P/hgCi8hSdzD/YRTelfhVhReOgaDdqTdE46JBqACgEwM/W31l6Kwrt+5iuSdcXh/ZlcERRNc/k8I0KkJbcOKdIKdwNGF34XG+qjkfvg5dQxiN03AguxpQgREIvB9p3cJA1XxleM4W3EKF6+fF76WG3evCWA4NQJp4Rhne1D1QNb8znYCiv8rv3lZ9uP+xZcLcOz8AXEUOKXCxiMrsThnBuK3/IZfV36OT+YOwoD4TpIkIORIdlpeXrfFlupyf6r7JvCCSawZ2U4e3EXZ01B5xyA2OlNeDE3R6zIGunsVRwDaKXq5G4cjTk0wfEY3kxnfzOyoZxhydpTJcmXZlkIsSW3pMFhLhaXK4Scap1/cqxg6LVCIhMbMHYgvFg7Dd0s/Ejvz15WfYcLK/2LS6i/x2+qvZM3vbCcD1/fLRsr/P0kZJPsPmxYMHo/DH7Uzz8MhtBYrl52FqwFgs98XgSvAC/XDV4uHY/neZCE7t4tbp2PZpWFuNwaA1u4kD0rNTRGeZXaCAMnScA0Fo7sONrVmLRo1i0qNdGomWaRyHW1QrRFcdoAJlXAjNJkTXIrrdD5AvGeGpSL8hNUrbstEqVWpuFVmieqJtQbgE+IwvvwVAFqHuXa7XGzEhK2TQS3zxDQGPkxEWRe4VL8RcJKraNq2/M7Egn9PeROT13wpbP9k9arvVaUGoIUc27opALQOQ++WqVTMd5u6NRSfpgwSVtFukc85hzzRRhLErv/NgAoEzdZGDUwbkGAzySv5vYfjBbyb1Bn07pmEm128Xfig68qXtORjrTUALUnY1k8DgLbDySbp0k6VncCGwyvAqjnabiNm9ZKQDo30kLgaVlJ29NMcHhsEVMs5sphSzWGddi9DJt0in5UJB0nAznlDZuyIwPb89ThXcdr1Vhv1XQNQIS5PAND1NAQkWfX3nMzE6gOLQGJJ1gWTpZSsqIytBYcHGBrHtO+ofZ6w49yw4TvT+F2Z8vl/08GR49hsR9Fs4QFit42c01dmMaLHn7j1D5ADmmAj8frTft+tAeiKDECykvu6CcO4esGK3f9yE0FJVlTGA4+XHpYQSUbBJqw7tBSLdk+XKbIcab8IMfhPqWMEJGPnv4vRcweAoCHN7gczexifWT0xak5f0Ov9fN47+GLhe/hm8Qf4JfVToeFluIUT3yzdMwvrDy1FxolNcj5OvkPKYAKtPvvtL9+obUcNQJswrM3m0IDWuRqzZr0JY3x3H9yRYDXBSqen/NYVmaeYNLuXK0vlw21OJsjYHz3Qa3euCrhZFsCSgepHVY05tcf+qwGoEK2vAlBxqS2+SQNQ0YUagAqheKhJA1AhWA1AhVA81KQBqBCsBqBCKB5q0gBUCFYDUCEUDzVpACoEqwGoEIqHmjQAFYJtKgBPXilA+ok0pBfUfDIK02QWSYZOVAunwtpVuAUZLvvZj+F229znbPkp1aF9uk0DUNE9TQEgY3VxWyYhJCEAwebrNaY6dU0MQC/Hi24JKjMLN6FLaDshtpTUKKZHNfATEm9kw6TsnKK4G99u0gBU9E9TAagJKhVCddOkAagQjAagQigeatIAVAhWA1AhFA81aQAqBKsBqBCKh5o0ABWCFQDGdKzFX8LcuImrxin2qGnSTkiNLBqyVVJWhMCw9lIxZ89bbNNVcawiY0UY8+rsQqFXytLE+hYdhqlPQjW/H71wQEpVmdJvlzUByHQxby9/88YFMN1p5Oy+tQDIJM4PZvWUfDlvXFdrPOfszNhaDKlSbxLlJ7O8e/uevQJA0uX+vvbrWrQRIphIf8zd2fImhPF2R6rOTx6ZgVNeryVnjjy9o19GTvF21W7N2uYVAPIO0/JSDRvQZWhgueW/p76Jvad2NqsgWtvJzlWUYEzKQKWMWVrKumd3pZzNKQuvAZCkk0MS36rliNBO4VD8n1ndceBMTnPKotWci2RGQm3CMlWXB7xzmB+CItuDQ7MvLF4D4KPH1VKHQbC5TiFggNBgzF93eLkvyKlFXMO9h/ewbG8yBie9JZV2dqfD2g50+GP49O4oq7zsE/fkNQDy7q/euoxxC4ciKEbN+8IKs26O56TI5+zVppUn+oS0PXQR5KvJKU4Xeo6giACpzLMAZ1/TvGFx+9Zjaz10JY0/rFcByMslExYNZdGEKkoKFmxH+knN7ILsJJANQC+GBFgwlVW4FT8sHQkW5NdFaWfReczh0Pv4sc+I0OsApCT4RJK5igXa9ifWuW0xB0T6Yei0IMzJjBPSxuYoa/SZnjIvhKwI9G4Nnpx3xXzhA1oXSyp/p+c7ZevvUrHnS/fkEwC0QDhgSifQRnECz1UjEoiRBn0Fp9eavPZrrDm4CAxMt+ZFGPBLD2Nl7nyZNWDQlDeMufJUToaLzPhQd49+Hsm74nH/4T2fE5PPAJCSyT2dhY+T+8lwXNcTTYCSO4VvTki7MXxGV/y04lPMz5qKQ2f2+qSgG9vzrD/OKNiIpO1h+Dth4xMAAARTSURBVHbpCJnnjg9fcGx7ZeTA9aE1uGb8hV+RrAu+uvgUACkkhmciNvyIkMhn6rRpLIEbdLRGwijb+sX/UyYtJHffopwZ2F+SJQXkfPvia0M22VJJI1x597owmTI2Grd5olDQDZsWhJ6OF2XoZNyODlmtkIqLtuP9C21IFJ2NZxG2/gdhgfBV8PG6fA6AvCjOfbE9f53QzAZGGNx71HQW6Nyt+R/aO3RoxC4K9UN3x/Myqya5liet+kLiXxsOLUNuSZYM3XRqym5ewvU7FcJ2+qD6ATjkNWXh/mRYIHvq9dsV8gCUXj8LchySKnjTkT8xP3sqItb/KLQe/eNfQ6/oF4SrhvdAZ4JDJ8HUENAJ8Kgdo/3RI+bvGLfwPWQX7wDfOPn64pMAtIRG+jVOOzUmZYAMtdQE9Q3NTnAKG5VJe2bS33JYsn8Cw9sLWRDBSTLviavGwrHxFyRtDxdHh5S6qw4sxPrDy+TNDeco2XZsLXYc3yAPCL9Ta204vAyr9i+Ua6WDxP3JMcPMnq8X/0feew9OfNPgana9Bvu1kdXeNXCs0HL2e6RmpCnSJ/ZlfLd0hICb4G8pi08D0BIiOVhW7J2L75d9hKCw9gYtrTUpS2M6jJ3J/xOcdoCaLFfkoab2FJYsG7NVg2pH7AxbFstWlDF0ijYm8CyAmdegCsA7waUCnnXtJC8nGTmDyjO7Ce90VtE2VFW3HOBZfdsiAGhdbOXda0ImTsN8aFKgoc3MEINoNg7TjQWkqqN9pc3+kJiak2AemNAJf6z7FhvyUnG6vMgST4tctygAWhKm8X7xxnlwPpCYTRMwLCkY3aOeR5cwI2jttAEtLekrgKrnOmj/Gd6raccSdGH+Yse+P70rIjaMl+Gf9G53H96xxNGi1y0SgHaJkwaN86blnduHRbtnYPzyMcKo3z/hNbG5qDE4hMqwahJONtiOrAcwdQ6XdewrQ7FFyUu2fpNBn2ZBT8cL8tZn1Jy3MWn1F5Kzd+LiEdy+f0ucM/u9t4btFg9AVScwrHH47F6ZoCZ+828Yv3y0EEmS1LxPzCviTbPTmRVsdb5oTRsjqjGkG06BOAaW3WYHltXmtCkNJ0dCITQNTLZUeqdyvjjjfNR0PaL+DjomBBqdh9C13yE5M06YUkvKi3yGX1Al36fZ1ioBqBLQ1dtlEmvjS3tOgzVvVyKmbgtF2Lof8POKTzBuwVDQGyZIByW8Ia8GOcMQtRw1FjUpQyNCtWtpVIZKLGZ+Fr1HdpD9aKMNTQoSVtVxC4fJA8B5jxO2/Ib5WYlCGcwg85Hzubh04zxoUrTVpc0A0F0Hs8jpzv1bMoUXOaX5Wo80unnncyVRYs/JDKH84LRXnFGJVLvpx0kJslG+cxYk2qL834GSbNmP9L/Fl49LaQEpQVgD4yuMqe7k4K32Ng9Abwlen9eQgAagRoJXJaAB6FXx65NrAGoMeFUCGoBeFb8+uQagxoBXJfD/r7bROdahOygAAAAASUVORK5CYII=;fontStyle=1;fontSize=14;fontFamily=Roboto;fontSource=https%3A%2F%2Ffonts.googleapis.com%2Fcss%3Ffamily%3DRoboto;" parent="g6U7bq3GD-YRvO-RUGFt-1" vertex="1">
                    <mxGeometry x="680.0799999999999" y="195" width="84" height="84" as="geometry"/>
                </mxCell>
                <mxCell id="g6U7bq3GD-YRvO-RUGFt-24" value="Console Logging, Docker Logs, or Azure Monitor" style="text;whiteSpace=wrap;fontFamily=Roboto;fontSource=https%3A%2F%2Ffonts.googleapis.com%2Fcss%3Ffamily%3DRoboto;labelBackgroundColor=none;spacingTop=0;spacing=3;fillColor=#f5f5f5;fontColor=#333333;strokeColor=none;align=center;fontSize=13;" parent="g6U7bq3GD-YRvO-RUGFt-1" vertex="1">
                    <mxGeometry x="336" y="701" width="189" height="48.25" as="geometry"/>
                </mxCell>
                <mxCell id="g6U7bq3GD-YRvO-RUGFt-25" value="OpenSearch (or Azure Cognitive Search?)" style="text;whiteSpace=wrap;fontFamily=Roboto;fontSource=https%3A%2F%2Ffonts.googleapis.com%2Fcss%3Ffamily%3DRoboto;labelBackgroundColor=none;spacingTop=0;spacing=3;fillColor=#f5f5f5;fontColor=#333333;strokeColor=none;align=center;fontSize=13;" parent="g6U7bq3GD-YRvO-RUGFt-1" vertex="1">
                    <mxGeometry x="511" y="477" width="117.5" height="64" as="geometry"/>
                </mxCell>
                <mxCell id="g6U7bq3GD-YRvO-RUGFt-26" value="Kafka&#10;(maybe not on Azure)" style="text;whiteSpace=wrap;fontFamily=Roboto;fontSource=https%3A%2F%2Ffonts.googleapis.com%2Fcss%3Ffamily%3DRoboto;labelBackgroundColor=none;spacingTop=0;spacing=3;fillColor=#f5f5f5;fontColor=#333333;strokeColor=none;align=center;fontSize=13;" parent="g6U7bq3GD-YRvO-RUGFt-1" vertex="1">
                    <mxGeometry x="665" y="467" width="117.5" height="59" as="geometry"/>
                </mxCell>
                <mxCell id="g6U7bq3GD-YRvO-RUGFt-27" value="" style="shape=mxgraph.pid.fittings.funnel;html=1;pointerEvents=1;align=center;verticalLabelPosition=bottom;verticalAlign=top;dashed=0;labelBackgroundColor=#FFFFFF;labelBorderColor=none;fontFamily=Roboto;fontSource=https%3A%2F%2Ffonts.googleapis.com%2Fcss%3Ffamily%3DRoboto;fontSize=14;fontColor=#FFFF66;fillColor=#FFFFCC;rotation=30;" parent="g6U7bq3GD-YRvO-RUGFt-1" vertex="1">
                    <mxGeometry x="380.09" y="514.19" width="143" height="92.25" as="geometry"/>
                </mxCell>
            </root>
        </mxGraphModel>
    </diagram>
</mxfile>
